<svg width="1299.1px" height="121.6px" xmlns="http://www.w3.org/2000/svg" viewBox="-399.54374999999993 14.199996948242188 1299.0874999999999 121.60000610351562" style="background: rgba(0, 0, 0, 0)" preserveAspectRatio="xMidYMid"><defs><linearGradient id="editing-shiny-gradient" x1="0.04322727117869957" x2="0.9567727288213004" y1="0.2966316784620999" y2="0.7033683215379001" gradientUnits="objectBoundingBox"><stop offset="0" stop-color="#ffb200"></stop><stop offset="0.5" stop-color="#e10057"></stop><stop offset="1" stop-color="#5a1a80"></stop></linearGradient><linearGradient id="editing-shiny-gradient2" x1="0" x2="0" y1="0" y2="1"><stop offset="0.2" stop-color="#ffffff" stop-opacity="0.8"></stop><stop offset="0.8" stop-color="#ffffff" stop-opacity="0"></stop></linearGradient><filter id="editing-shiny2" x="-100%" y="-100%" width="300%" height="300%"><feMorphology operator="erode" radius="2"></feMorphology></filter><filter id="editing-shiny" x="-100%" y="-100%" width="300%" height="300%"><feFlood flood-color="#fff" result="flood"></feFlood><feConvolveMatrix in="SourceGraphic" result="conv" order="8,8" divisor="1" kernelMatrix="0 0 0 0 0 0 0 0 0 0 0 1 1 0 0 0 0 0 0 1 1 0 0 0 0 0 1 0 0 1 0 0 0 0 1 0 0 1 0 0 0 1 0 0 0 0 1 0 0 1 1 0 0 1 1 0 0 0 0 1 1 0 0 0 "></feConvolveMatrix><feOffset dx="0" dy="4" in="conv" result="offset"></feOffset><feComposite operator="in" in="flood" in2="offset" result="comp"></feComposite><feGaussianBlur in="offset" stdDeviation="3" result="shadow"></feGaussianBlur><feColorMatrix in="shadow" type="matrix" values="0.7 0 0 0 0  0 0.7 0 0 0  0 0 0.7 0 0  0 0 0 0.3 0" result="dark-shadow"></feColorMatrix><feOffset dx="0" dy="4" in="dark-shadow" result="offset-shadow"></feOffset><feOffset dx="0" dy="2" in="conv" result="offset-2"></feOffset><feComposite operator="out" in="offset" in2="offset-2" result="edge-diff"></feComposite><feGaussianBlur in="edge-diff" stdDeviation="1" result="edge-blur"></feGaussianBlur><feColorMatrix in="edge-blur" result="edge-shadow" type="matrix" values="0 0 0 0 0  0 0 0 0 0  0 0 0 0 0  0 0 0 0.5 0"></feColorMatrix><feComposite operator="in" in="edge-shadow" in2="offset" result="edge-shadow-in"></feComposite><feOffset dx="0" dy="1" in="edge-shadow-in" result="edge-shadow-final"></feOffset><feMerge result="out"><feMergeNode in="offset-shadow"></feMergeNode><feMergeNode in="comp"></feMergeNode><feMergeNode in="edge-shadow-final"></feMergeNode><feMergeNode in="SourceGraphic"></feMergeNode></feMerge></filter></defs><g filter="url(#editing-shiny)"><g transform="translate(-219.2,104.8)"><path d="M 6.5 0 L -0.8 0 L 10.8 -42.2 L 24.1 -42.2 L 27.1 -18.1 L 39 -42.2 L 50.2 -42.2 L 51.3 -10.6 L 51.3 -10.6 Q 51.6 -4.3 54.7 -2.4 L 54.7 -2.4 L 54.7 -2.4 Q 54 -1.1 51.9 0.1 L 51.9 0.1 L 51.9 0.1 Q 49.9 1.3 47.1 1.3 L 47.1 1.3 L 47.1 1.3 Q 44.4 1.3 42.8 0.5 L 42.8 0.5 L 42.8 0.5 Q 41.2 -0.3 40.3 -1.5 L 40.3 -1.5 L 40.3 -1.5 Q 38.7 -3.8 38.7 -8.3 L 38.7 -8.3 L 38.7 -28 L 26.1 0 L 18.2 0 L 13.7 -28.7 L 6.5 0 Z M 60.2 -1.9 L 60.2 -1.9 L 60.2 -1.9 Q 58.7 -3.6 58 -6.2 L 58 -6.2 L 58 -6.2 Q 57.3 -8.8 57.3 -13.1 L 57.3 -13.1 L 57.3 -13.1 Q 57.3 -17.4 58.8 -21.3 L 58.8 -21.3 L 58.8 -21.3 Q 60.3 -25.2 63 -28 L 63 -28 L 63 -28 Q 68.5 -33.9 77.6 -33.9 L 77.6 -33.9 L 77.6 -33.9 Q 80.8 -33.9 83.2 -32.8 L 83.2 -32.8 L 94.1 -33.9 L 89.4 -9 L 89.4 -9 Q 89.2 -8.2 89.2 -6.8 L 89.2 -6.8 L 89.2 -6.8 Q 89.2 -5.4 90.1 -4.5 L 90.1 -4.5 L 90.1 -4.5 Q 90.9 -3.6 92.2 -3.5 L 92.2 -3.5 L 92.2 -3.5 Q 91.6 -1.3 89.3 0 L 89.3 0 L 89.3 0 Q 86.9 1.3 84.3 1.3 L 84.3 1.3 L 84.3 1.3 Q 81.7 1.3 79.9 0.3 L 79.9 0.3 L 79.9 0.3 Q 78.1 -0.7 77.6 -2.4 L 77.6 -2.4 L 77.6 -2.4 Q 76.6 -0.8 74.4 0.3 L 74.4 0.3 L 74.4 0.3 Q 72.3 1.3 69.3 1.3 L 69.3 1.3 L 69.3 1.3 Q 66.4 1.3 64.1 0.5 L 64.1 0.5 L 64.1 0.5 Q 61.7 -0.3 60.2 -1.9 Z M 73.7 -27.9 L 73.7 -27.9 L 73.7 -27.9 Q 73 -26.8 72.3 -24.8 L 72.3 -24.8 L 72.3 -24.8 Q 71.7 -22.9 70.6 -17.6 L 70.6 -17.6 L 70.6 -17.6 Q 69.6 -12.4 69.6 -8.7 L 69.6 -8.7 L 69.6 -8.7 Q 69.6 -5 70.1 -3.9 L 70.1 -3.9 L 70.1 -3.9 Q 70.7 -2.8 71.7 -2.8 L 71.7 -2.8 L 71.7 -2.8 Q 73.8 -2.8 75.3 -4.8 L 75.3 -4.8 L 75.3 -4.8 Q 76.8 -6.7 77.4 -10.2 L 77.4 -10.2 L 80.8 -28.9 L 80.8 -28.9 Q 79.4 -30.1 77.9 -30.1 L 77.9 -30.1 L 77.9 -30.1 Q 76.3 -30.1 75.4 -29.6 L 75.4 -29.6 L 75.4 -29.6 Q 74.4 -29.1 73.7 -27.9 Z M 114.1 -30.3 L 114.1 -30.3 L 114.1 -30.3 Q 117.6 -33.9 124.9 -33.9 L 124.9 -33.9 L 124.9 -33.9 Q 128.9 -33.9 131.1 -31.8 L 131.1 -31.8 L 131.1 -31.8 Q 133.3 -29.6 133.3 -25.7 L 133.3 -25.7 L 133.3 -25.7 Q 133.3 -21.8 131.1 -19 L 131.1 -19 L 131.1 -19 Q 128.9 -16.2 124.8 -15 L 124.8 -15 L 124.8 -15 Q 125.1 -13.8 125.6 -12.4 L 125.6 -12.4 L 126.5 -9.9 L 126.5 -9.9 Q 127.7 -6.6 128.6 -5.4 L 128.6 -5.4 L 128.6 -5.4 Q 129.6 -4.3 130.9 -3.9 L 130.9 -3.9 L 130.9 -3.9 Q 130.2 -1.3 127.6 0.1 L 127.6 0.1 L 127.6 0.1 Q 125.6 1.3 122.8 1.3 L 122.8 1.3 L 122.8 1.3 Q 114.5 1.3 113.4 -11.5 L 113.4 -11.5 L 113.4 -11.5 Q 113.2 -13.3 113.2 -15 L 113.2 -15 L 113.2 -15 Q 116.4 -15.9 118.7 -18.9 L 118.7 -18.9 L 118.7 -18.9 Q 120.9 -21.9 120.9 -25.5 L 120.9 -25.5 L 120.9 -25.5 Q 120.9 -29 118.4 -29 L 118.4 -29 L 118.4 -29 Q 116.6 -29 115.2 -27 L 115.2 -27 L 115.2 -27 Q 113.8 -25 113.2 -21.6 L 113.2 -21.6 L 108.9 0 L 96 1.3 L 105 -44.8 L 117.8 -46.1 L 116.3 -38.5 L 116.3 -38.5 Q 115.4 -33.1 114.1 -30.3 Z M 155.4 -22.5 L 155.4 -22.5 L 155.4 -22.5 Q 156.3 -24.8 156.3 -26.9 L 156.3 -26.9 L 156.3 -26.9 Q 156.3 -30.7 153.2 -30.7 L 153.2 -30.7 L 153.2 -30.7 Q 151.6 -30.7 150.3 -29.2 L 150.3 -29.2 L 150.3 -29.2 Q 149 -27.8 149 -26 L 149 -26 L 149 -26 Q 149 -24.7 150 -23.7 L 150 -23.7 L 150 -23.7 Q 151.5 -22.3 155.3 -20 L 155.3 -20 L 155.3 -20 Q 159 -17.7 160.5 -15.8 L 160.5 -15.8 L 160.5 -15.8 Q 161.9 -13.9 161.9 -11.3 L 161.9 -11.3 L 161.9 -11.3 Q 161.9 -8.7 160.7 -6.3 L 160.7 -6.3 L 160.7 -6.3 Q 159.4 -4 157.2 -2.3 L 157.2 -2.3 L 157.2 -2.3 Q 152.4 1.3 144.7 1.3 L 144.7 1.3 L 144.7 1.3 Q 140.5 1.3 137.3 -0.9 L 137.3 -0.9 L 137.3 -0.9 Q 134.1 -3 134.1 -5.5 L 134.1 -5.5 L 134.1 -5.5 Q 134.1 -8 136 -9.5 L 136 -9.5 L 136 -9.5 Q 137.8 -10.9 140.5 -10.9 L 140.5 -10.9 L 140.5 -10.9 Q 143.2 -10.9 144.8 -9.9 L 144.8 -9.9 L 144.8 -9.9 Q 144 -7.8 144 -6.4 L 144 -6.4 L 144 -6.4 Q 144 -2.2 147.6 -2.2 L 147.6 -2.2 L 147.6 -2.2 Q 149.1 -2.2 150.1 -3.1 L 150.1 -3.1 L 150.1 -3.1 Q 151.2 -4.1 151.2 -5.8 L 151.2 -5.8 L 151.2 -5.8 Q 151.2 -9 145.7 -12.5 L 145.7 -12.5 L 145.7 -12.5 Q 141.2 -15.4 140.2 -16.6 L 140.2 -16.6 L 140.2 -16.6 Q 138.4 -18.6 138.4 -21.2 L 138.4 -21.2 L 138.4 -21.2 Q 138.4 -23.7 139.7 -26.2 L 139.7 -26.2 L 139.7 -26.2 Q 140.9 -28.6 143.1 -30.3 L 143.1 -30.3 L 143.1 -30.3 Q 147.8 -33.9 155.9 -33.9 L 155.9 -33.9 L 155.9 -33.9 Q 160.1 -33.9 162.5 -32.3 L 162.5 -32.3 L 162.5 -32.3 Q 165 -30.6 165 -27.8 L 165 -27.8 L 165 -27.8 Q 165 -25 163.3 -23.4 L 163.3 -23.4 L 163.3 -23.4 Q 161.6 -21.8 158.5 -21.8 L 158.5 -21.8 L 158.5 -21.8 Q 156.4 -21.8 155.4 -22.5 Z M 194.1 -9.9 L 194.1 -9.9 L 194.1 -9.9 Q 195.3 -8.3 195.3 -5.3 L 195.3 -5.3 L 195.3 -5.3 Q 195.3 -2.4 193.1 -0.5 L 193.1 -0.5 L 193.1 -0.5 Q 190.8 1.3 186.8 1.3 L 186.8 1.3 L 186.8 1.3 Q 184.5 1.3 180.9 0.8 L 180.9 0.8 L 180.9 0.8 Q 173.9 -0.3 171.9 -0.3 L 171.9 -0.3 L 171.9 -0.3 Q 169.9 -0.3 169 -0.2 L 169 -0.2 L 169 -0.2 Q 168.2 -0.1 166.8 0 L 166.8 0 L 174.6 -42.2 L 188.6 -42.2 L 182.2 -7 L 182.2 -7 Q 183 -6.9 183.8 -6.9 L 183.8 -6.9 L 185.4 -6.9 L 185.4 -6.9 Q 190.8 -6.9 194.1 -9.9 Z M 225.5 -10.8 L 225.5 -10.8 L 225.5 -10.8 Q 227.1 -9.7 227.1 -7.3 L 227.1 -7.3 L 227.1 -7.3 Q 227.1 -4.9 225.9 -3.4 L 225.9 -3.4 L 225.9 -3.4 Q 224.7 -1.9 222.7 -0.8 L 222.7 -0.8 L 222.7 -0.8 Q 218.6 1.3 214.2 1.3 L 214.2 1.3 L 214.2 1.3 Q 209.8 1.3 207.2 0.3 L 207.2 0.3 L 207.2 0.3 Q 204.6 -0.6 202.9 -2.4 L 202.9 -2.4 L 202.9 -2.4 Q 199.5 -5.8 199.5 -12 L 199.5 -12 L 199.5 -12 Q 199.5 -21.7 204.7 -27.6 L 204.7 -27.6 L 204.7 -27.6 Q 210.4 -33.9 220.2 -33.9 L 220.2 -33.9 L 220.2 -33.9 Q 226.2 -33.9 229.3 -31.4 L 229.3 -31.4 L 229.3 -31.4 Q 231.5 -29.4 231.5 -26.3 L 231.5 -26.3 L 231.5 -26.3 Q 231.5 -15 212 -15 L 212 -15 L 212 -15 Q 211.8 -13.4 211.8 -12 L 211.8 -12 L 211.8 -12 Q 211.8 -9 213.1 -7.9 L 213.1 -7.9 L 213.1 -7.9 Q 214.4 -6.8 216.8 -6.8 L 216.8 -6.8 L 216.8 -6.8 Q 219.3 -6.8 221.9 -7.9 L 221.9 -7.9 L 221.9 -7.9 Q 224.4 -9 225.5 -10.8 Z M 212.5 -17.8 L 212.5 -17.8 L 212.5 -17.8 Q 217 -17.8 219.7 -20.6 L 219.7 -20.6 L 219.7 -20.6 Q 222.3 -23.3 222.3 -27.6 L 222.3 -27.6 L 222.3 -27.6 Q 222.3 -29.1 221.7 -29.9 L 221.7 -29.9 L 221.7 -29.9 Q 221.2 -30.7 220.1 -30.7 L 220.1 -30.7 L 220.1 -30.7 Q 219 -30.7 218.1 -30.2 L 218.1 -30.2 L 218.1 -30.2 Q 217.2 -29.8 216.2 -28.4 L 216.2 -28.4 L 216.2 -28.4 Q 213.8 -25.2 212.5 -17.8 Z M 256.9 -31.6 L 256.9 -31.6 L 256.9 -31.6 Q 259 -33.9 262.7 -33.9 L 262.7 -33.9 L 262.7 -33.9 Q 264.9 -33.9 266.6 -32.7 L 266.6 -32.7 L 266.6 -32.7 Q 268.4 -31.5 268.4 -29.2 L 268.4 -29.2 L 268.4 -29.2 Q 268.4 -26.9 267.6 -24.5 L 267.6 -24.5 L 267.6 -24.5 Q 266.9 -22.1 265.9 -19.6 L 265.9 -19.6 L 265.9 -19.6 Q 263.7 -14.7 260.7 -10.7 L 260.7 -10.7 L 260.7 -10.7 Q 256.4 -4.9 252.4 -1.8 L 252.4 -1.8 L 252.4 -1.8 Q 248.3 1.3 243.9 1.3 L 243.9 1.3 L 243.9 1.3 Q 240.3 1.3 238.1 0.5 L 238.1 0.5 L 238.1 0.5 Q 237.8 -13 237.3 -17.8 L 237.3 -17.8 L 237.3 -17.8 Q 236.8 -22.6 236.4 -25.2 L 236.4 -25.2 L 236.4 -25.2 Q 235.8 -30.3 233.9 -31.6 L 233.9 -31.6 L 233.9 -31.6 Q 235.3 -32.8 236.8 -33.4 L 236.8 -33.4 L 236.8 -33.4 Q 238.2 -33.9 241.2 -33.9 L 241.2 -33.9 L 241.2 -33.9 Q 244.2 -33.9 246.3 -31.6 L 246.3 -31.6 L 246.3 -31.6 Q 248.4 -29.3 248.8 -25.1 L 248.8 -25.1 L 248.8 -25.1 Q 249.2 -21 249.2 -16 L 249.2 -16 L 249.2 -16 Q 249.2 -11 248.8 -5 L 248.8 -5 L 248.8 -5 Q 250.8 -6.4 252.9 -10.7 L 252.9 -10.7 L 252.9 -10.7 Q 255.8 -16.6 256.8 -23.8 L 256.8 -23.8 L 256.8 -23.8 Q 257.1 -26 257.1 -28.3 L 257.1 -28.3 L 257.1 -28.3 Q 257.1 -30.6 256.9 -31.6 Z M 280 -29.5 L 273.2 -29.5 L 273.2 -29.5 Q 275.6 -37.7 275.7 -46.3 L 275.7 -46.3 L 277.6 -46.6 L 277.6 -46.6 Q 278.5 -46.7 279.2 -46.7 L 279.2 -46.7 L 279.2 -46.7 Q 282.1 -46.7 283.6 -45.3 L 283.6 -45.3 L 283.6 -45.3 Q 285.1 -44 285.1 -41.5 L 285.1 -41.5 L 285.1 -41.5 Q 285.1 -39 284 -36.2 L 284 -36.2 L 284 -36.2 Q 281.9 -31.2 280 -29.5 L 280 -29.5 Z M 303.5 -22.5 L 303.5 -22.5 L 303.5 -22.5 Q 304.4 -24.8 304.4 -26.9 L 304.4 -26.9 L 304.4 -26.9 Q 304.4 -30.7 301.3 -30.7 L 301.3 -30.7 L 301.3 -30.7 Q 299.7 -30.7 298.4 -29.2 L 298.4 -29.2 L 298.4 -29.2 Q 297.1 -27.8 297.1 -26 L 297.1 -26 L 297.1 -26 Q 297.1 -24.7 298.1 -23.7 L 298.1 -23.7 L 298.1 -23.7 Q 299.6 -22.3 303.4 -20 L 303.4 -20 L 303.4 -20 Q 307.1 -17.7 308.6 -15.8 L 308.6 -15.8 L 308.6 -15.8 Q 310 -13.9 310 -11.3 L 310 -11.3 L 310 -11.3 Q 310 -8.7 308.8 -6.3 L 308.8 -6.3 L 308.8 -6.3 Q 307.5 -4 305.3 -2.3 L 305.3 -2.3 L 305.3 -2.3 Q 300.5 1.3 292.8 1.3 L 292.8 1.3 L 292.8 1.3 Q 288.6 1.3 285.4 -0.9 L 285.4 -0.9 L 285.4 -0.9 Q 282.2 -3 282.2 -5.5 L 282.2 -5.5 L 282.2 -5.5 Q 282.2 -8 284.1 -9.5 L 284.1 -9.5 L 284.1 -9.5 Q 285.9 -10.9 288.6 -10.9 L 288.6 -10.9 L 288.6 -10.9 Q 291.3 -10.9 292.9 -9.9 L 292.9 -9.9 L 292.9 -9.9 Q 292.1 -7.8 292.1 -6.4 L 292.1 -6.4 L 292.1 -6.4 Q 292.1 -2.2 295.7 -2.2 L 295.7 -2.2 L 295.7 -2.2 Q 297.2 -2.2 298.2 -3.1 L 298.2 -3.1 L 298.2 -3.1 Q 299.3 -4.1 299.3 -5.8 L 299.3 -5.8 L 299.3 -5.8 Q 299.3 -9 293.8 -12.5 L 293.8 -12.5 L 293.8 -12.5 Q 289.3 -15.4 288.3 -16.6 L 288.3 -16.6 L 288.3 -16.6 Q 286.5 -18.6 286.5 -21.2 L 286.5 -21.2 L 286.5 -21.2 Q 286.5 -23.7 287.7 -26.2 L 287.7 -26.2 L 287.7 -26.2 Q 289 -28.6 291.2 -30.3 L 291.2 -30.3 L 291.2 -30.3 Q 295.9 -33.9 304 -33.9 L 304 -33.9 L 304 -33.9 Q 308.2 -33.9 310.6 -32.3 L 310.6 -32.3 L 310.6 -32.3 Q 313.1 -30.6 313.1 -27.8 L 313.1 -27.8 L 313.1 -27.8 Q 313.1 -25 311.4 -23.4 L 311.4 -23.4 L 311.4 -23.4 Q 309.7 -21.8 306.6 -21.8 L 306.6 -21.8 L 306.6 -21.8 Q 304.5 -21.8 303.5 -22.5 Z M 360.1 -26.6 L 360.1 -26.6 L 360.1 -26.6 Q 360.1 -23.9 357.8 -22.3 L 357.8 -22.3 L 357.8 -22.3 Q 355.6 -20.6 351.9 -20.6 L 351.9 -20.6 L 351.9 -20.6 Q 350.4 -20.6 349.5 -21.1 L 349.5 -21.1 L 349.5 -21.1 Q 350.2 -22.7 350.4 -24.8 L 350.4 -24.8 L 350.4 -24.8 Q 350.7 -26.9 350.7 -27.5 L 350.7 -27.5 L 350.7 -27.5 Q 350.7 -30.1 348.8 -30.1 L 348.8 -30.1 L 348.8 -30.1 Q 347.5 -30.1 346.1 -28.5 L 346.1 -28.5 L 346.1 -28.5 Q 344.6 -26.9 343.4 -24.4 L 343.4 -24.4 L 343.4 -24.4 Q 340.7 -18.7 340.7 -12.9 L 340.7 -12.9 L 340.7 -12.9 Q 340.7 -9.7 341.9 -8.2 L 341.9 -8.2 L 341.9 -8.2 Q 343.2 -6.8 345.9 -6.8 L 345.9 -6.8 L 345.9 -6.8 Q 349.6 -6.8 352.5 -9.9 L 352.5 -9.9 L 352.5 -9.9 Q 353.3 -10.8 353.8 -11.9 L 353.8 -11.9 L 353.8 -11.9 Q 356.2 -10.6 356.2 -7.1 L 356.2 -7.1 L 356.2 -7.1 Q 356.2 -3.5 352.3 -1.1 L 352.3 -1.1 L 352.3 -1.1 Q 348.2 1.3 341.6 1.3 L 341.6 1.3 L 341.6 1.3 Q 328.6 1.3 328.6 -12.5 L 328.6 -12.5 L 328.6 -12.5 Q 328.6 -22.5 334.3 -28.3 L 334.3 -28.3 L 334.3 -28.3 Q 339.8 -33.9 349.9 -33.9 L 349.9 -33.9 L 349.9 -33.9 Q 360.1 -33.9 360.1 -26.6 Z M 375.7 1.3 L 375.7 1.3 L 375.7 1.3 Q 361.7 1.3 361.7 -12 L 361.7 -12 L 361.7 -12 Q 361.7 -21.4 366.9 -27.5 L 366.9 -27.5 L 366.9 -27.5 Q 372.4 -33.9 381.9 -33.9 L 381.9 -33.9 L 381.9 -33.9 Q 388.8 -33.9 392.3 -30.7 L 392.3 -30.7 L 392.3 -30.7 Q 395.8 -27.5 395.8 -20.8 L 395.8 -20.8 L 395.8 -20.8 Q 395.8 -10.6 390.3 -4.6 L 390.3 -4.6 L 390.3 -4.6 Q 385 1.3 375.7 1.3 Z M 377.4 -26.6 L 377.4 -26.6 L 377.4 -26.6 Q 376.6 -24.8 376 -22.2 L 376 -22.2 L 376 -22.2 Q 375.4 -19.6 374.7 -15.6 L 374.7 -15.6 L 374.7 -15.6 Q 373.9 -11.5 373.9 -6.4 L 373.9 -6.4 L 373.9 -6.4 Q 373.9 -4.7 374.4 -3.6 L 374.4 -3.6 L 374.4 -3.6 Q 375 -2.6 376.4 -2.6 L 376.4 -2.6 L 376.4 -2.6 Q 377.9 -2.6 378.9 -3.3 L 378.9 -3.3 L 378.9 -3.3 Q 379.8 -4 380.5 -5.6 L 380.5 -5.6 L 380.5 -5.6 Q 381.8 -8.6 382.8 -14.1 L 382.8 -14.1 L 382.8 -14.1 Q 383.8 -19.5 383.9 -21.9 L 383.9 -21.9 L 383.9 -21.9 Q 384 -24.3 384 -26 L 384 -26 L 384 -26 Q 384 -27.8 383.5 -28.9 L 383.5 -28.9 L 383.5 -28.9 Q 383 -30.1 381.5 -30.1 L 381.5 -30.1 L 381.5 -30.1 Q 380.1 -30.1 379.1 -29.2 L 379.1 -29.2 L 379.1 -29.2 Q 378.2 -28.3 377.4 -26.6 Z M 413.6 1.3 L 413.6 1.3 L 413.6 1.3 Q 399.5 1.3 399.5 -12 L 399.5 -12 L 399.5 -12 Q 399.5 -21.4 404.7 -27.5 L 404.7 -27.5 L 404.7 -27.5 Q 410.2 -33.9 419.7 -33.9 L 419.7 -33.9 L 419.7 -33.9 Q 426.6 -33.9 430.1 -30.7 L 430.1 -30.7 L 430.1 -30.7 Q 433.7 -27.5 433.7 -20.8 L 433.7 -20.8 L 433.7 -20.8 Q 433.7 -10.6 428.2 -4.6 L 428.2 -4.6 L 428.2 -4.6 Q 422.8 1.3 413.6 1.3 Z M 415.2 -26.6 L 415.2 -26.6 L 415.2 -26.6 Q 414.5 -24.8 413.9 -22.2 L 413.9 -22.2 L 413.9 -22.2 Q 413.3 -19.6 412.5 -15.6 L 412.5 -15.6 L 412.5 -15.6 Q 411.7 -11.5 411.7 -6.4 L 411.7 -6.4 L 411.7 -6.4 Q 411.7 -4.7 412.3 -3.6 L 412.3 -3.6 L 412.3 -3.6 Q 412.8 -2.6 414.3 -2.6 L 414.3 -2.6 L 414.3 -2.6 Q 415.7 -2.6 416.7 -3.3 L 416.7 -3.3 L 416.7 -3.3 Q 417.6 -4 418.3 -5.6 L 418.3 -5.6 L 418.3 -5.6 Q 419.6 -8.6 420.6 -14.1 L 420.6 -14.1 L 420.6 -14.1 Q 421.6 -19.5 421.7 -21.9 L 421.7 -21.9 L 421.7 -21.9 Q 421.8 -24.3 421.8 -26 L 421.8 -26 L 421.8 -26 Q 421.8 -27.8 421.3 -28.9 L 421.3 -28.9 L 421.3 -28.9 Q 420.8 -30.1 419.4 -30.1 L 419.4 -30.1 L 419.4 -30.1 Q 417.9 -30.1 417 -29.2 L 417 -29.2 L 417 -29.2 Q 416 -28.3 415.2 -26.6 Z M 452.7 -3.5 L 452.7 -3.5 L 452.7 -3.5 Q 450.8 1.3 444.4 1.3 L 444.4 1.3 L 444.4 1.3 Q 441.2 1.3 439.2 -1 L 439.2 -1 L 439.2 -1 Q 437.5 -2.8 437.5 -4.9 L 437.5 -4.9 L 437.5 -4.9 Q 437.5 -9.7 439.7 -20.2 L 439.7 -20.2 L 444.4 -44.8 L 457.4 -46.1 L 451.2 -13.7 L 451.2 -13.7 Q 450.1 -9 450.1 -7.3 L 450.1 -7.3 L 450.1 -7.3 Q 450.1 -3.6 452.7 -3.5 Z M 484.6 0 L 470.7 0 L 478.8 -42.2 L 492.9 -42.2 L 484.6 0 Z M 540.4 1.3 L 540.4 1.3 L 540.4 1.3 Q 532.6 1.3 532.6 -4.7 L 532.6 -4.7 L 532.6 -4.7 Q 532.6 -7.4 533.7 -12.4 L 533.7 -12.4 L 533.7 -12.4 Q 534.9 -17.5 535.2 -19.6 L 535.2 -19.6 L 535.2 -19.6 Q 536.1 -24.3 536.1 -25.7 L 536.1 -25.7 L 536.1 -25.7 Q 536.1 -29 533.7 -29 L 533.7 -29 L 533.7 -29 Q 532.1 -29 530.6 -26.8 L 530.6 -26.8 L 530.6 -26.8 Q 529 -24.6 528.3 -20.2 L 528.3 -20.2 L 524.4 0 L 511.9 1.3 L 515.3 -16.1 L 515.3 -16.1 Q 515.9 -19 516.4 -22.3 L 516.4 -22.3 L 516.4 -22.3 Q 516.9 -25.5 516.9 -26.1 L 516.9 -26.1 L 516.9 -26.1 Q 516.9 -29 514.8 -29 L 514.8 -29 L 514.8 -29 Q 513.3 -29 511.7 -26.8 L 511.7 -26.8 L 511.7 -26.8 Q 510.1 -24.6 509.2 -20.2 L 509.2 -20.2 L 505.3 0 L 492.7 1.3 L 499.4 -32.6 L 509.8 -33.9 L 508.7 -27.5 L 508.7 -27.5 Q 510.4 -30.9 513.5 -32.4 L 513.5 -32.4 L 513.5 -32.4 Q 516.5 -33.9 521.3 -33.9 L 521.3 -33.9 L 521.3 -33.9 Q 524.1 -33.9 525.9 -32.6 L 525.9 -32.6 L 525.9 -32.6 Q 527.7 -31.2 528.3 -29.1 L 528.3 -29.1 L 528.3 -29.1 Q 529.3 -31.3 532.1 -32.6 L 532.1 -32.6 L 532.1 -32.6 Q 534.9 -33.9 538.3 -33.9 L 538.3 -33.9 L 538.3 -33.9 Q 541.8 -33.9 543.5 -33.2 L 543.5 -33.2 L 543.5 -33.2 Q 545.1 -32.5 546.2 -31.2 L 546.2 -31.2 L 546.2 -31.2 Q 547.9 -29 547.9 -24.9 L 547.9 -24.9 L 547.9 -24.9 Q 547.9 -20.9 546.2 -12.5 L 546.2 -12.5 L 546.2 -12.5 Q 545.3 -8.4 545.3 -6.9 L 545.3 -6.9 L 545.3 -6.9 Q 545.3 -5.4 546.1 -4.5 L 546.1 -4.5 L 546.1 -4.5 Q 547 -3.6 548.3 -3.5 L 548.3 -3.5 L 548.3 -3.5 Q 547.6 -1.3 545.4 0 L 545.4 0 L 545.4 0 Q 543.2 1.3 540.4 1.3 Z M 556 -1.9 L 556 -1.9 L 556 -1.9 Q 554.5 -3.6 553.8 -6.2 L 553.8 -6.2 L 553.8 -6.2 Q 553.1 -8.8 553.1 -13.1 L 553.1 -13.1 L 553.1 -13.1 Q 553.1 -17.4 554.6 -21.3 L 554.6 -21.3 L 554.6 -21.3 Q 556.1 -25.2 558.8 -28 L 558.8 -28 L 558.8 -28 Q 564.3 -33.9 573.4 -33.9 L 573.4 -33.9 L 573.4 -33.9 Q 576.6 -33.9 579 -32.8 L 579 -32.8 L 590 -33.9 L 585.2 -9 L 585.2 -9 Q 585 -8.2 585 -6.8 L 585 -6.8 L 585 -6.8 Q 585 -5.4 585.9 -4.5 L 585.9 -4.5 L 585.9 -4.5 Q 586.8 -3.6 588 -3.5 L 588 -3.5 L 588 -3.5 Q 587.4 -1.3 585.1 0 L 585.1 0 L 585.1 0 Q 582.7 1.3 580.1 1.3 L 580.1 1.3 L 580.1 1.3 Q 577.5 1.3 575.7 0.3 L 575.7 0.3 L 575.7 0.3 Q 574 -0.7 573.4 -2.4 L 573.4 -2.4 L 573.4 -2.4 Q 572.4 -0.8 570.2 0.3 L 570.2 0.3 L 570.2 0.3 Q 568.1 1.3 565.1 1.3 L 565.1 1.3 L 565.1 1.3 Q 562.2 1.3 559.9 0.5 L 559.9 0.5 L 559.9 0.5 Q 557.5 -0.3 556 -1.9 Z M 569.5 -27.9 L 569.5 -27.9 L 569.5 -27.9 Q 568.8 -26.8 568.1 -24.8 L 568.1 -24.8 L 568.1 -24.8 Q 567.5 -22.9 566.4 -17.6 L 566.4 -17.6 L 566.4 -17.6 Q 565.4 -12.4 565.4 -8.7 L 565.4 -8.7 L 565.4 -8.7 Q 565.4 -5 566 -3.9 L 566 -3.9 L 566 -3.9 Q 566.5 -2.8 567.5 -2.8 L 567.5 -2.8 L 567.5 -2.8 Q 569.6 -2.8 571.1 -4.8 L 571.1 -4.8 L 571.1 -4.8 Q 572.6 -6.7 573.2 -10.2 L 573.2 -10.2 L 576.6 -28.9 L 576.6 -28.9 Q 575.2 -30.1 573.7 -30.1 L 573.7 -30.1 L 573.7 -30.1 Q 572.1 -30.1 571.2 -29.6 L 571.2 -29.6 L 571.2 -29.6 Q 570.2 -29.1 569.5 -27.9 Z M 597.7 -26.8 L 597.7 -26.8 L 597.7 -26.8 Q 599.9 -29.8 603.2 -31.9 L 603.2 -31.9 L 603.2 -31.9 Q 606.5 -33.9 610.5 -33.9 L 610.5 -33.9 L 610.5 -33.9 Q 614.5 -33.9 616.5 -32.6 L 616.5 -32.6 L 629 -33.9 L 624.6 -9.3 L 624.6 -9.3 Q 622.4 3.2 617.7 8.1 L 617.7 8.1 L 617.7 8.1 Q 613.1 12.8 604.3 12.8 L 604.3 12.8 L 604.3 12.8 Q 597.6 12.8 593.7 10.7 L 593.7 10.7 L 593.7 10.7 Q 589.9 8.6 589.9 5.1 L 589.9 5.1 L 589.9 5.1 Q 589.9 2.4 591.9 0.9 L 591.9 0.9 L 591.9 0.9 Q 593.9 -0.6 596.9 -0.6 L 596.9 -0.6 L 596.9 -0.6 Q 599.6 -0.6 601.7 0.6 L 601.7 0.6 L 601.7 0.6 Q 602.9 1.3 603.5 2.2 L 603.5 2.2 L 603.5 2.2 Q 602 3.5 602 5.6 L 602 5.6 L 602 5.6 Q 602 8.3 604.5 8.3 L 604.5 8.3 L 604.5 8.3 Q 608.8 8.3 611.3 -1.8 L 611.3 -1.8 L 611.3 -1.8 Q 612 -4.5 612.5 -7.3 L 612.5 -7.3 L 612.5 -7.3 Q 609.7 -3.8 603.1 -3.8 L 603.1 -3.8 L 603.1 -3.8 Q 598.6 -3.8 596 -6 L 596 -6 L 596 -6 Q 593.3 -8.1 593.3 -13.3 L 593.3 -13.3 L 593.3 -13.3 Q 593.3 -16.4 594.4 -20.1 L 594.4 -20.1 L 594.4 -20.1 Q 595.5 -23.7 597.7 -26.8 Z M 606 -13.1 L 606 -13.1 L 606 -13.1 Q 606 -8.7 608.3 -8.7 L 608.3 -8.7 L 608.3 -8.7 Q 609.8 -8.7 611.3 -10.4 L 611.3 -10.4 L 611.3 -10.4 Q 612.4 -11.7 612.9 -13.7 L 612.9 -13.7 L 616.1 -30.1 L 616.1 -30.1 Q 615.8 -30.2 615.5 -30.3 L 615.5 -30.3 L 615.5 -30.3 Q 614.9 -30.6 614 -30.6 L 614 -30.6 L 614 -30.6 Q 610.1 -30.6 607.8 -24.2 L 607.8 -24.2 L 607.8 -24.2 Q 606 -19.2 606 -13.1 Z M 657.4 -10.8 L 657.4 -10.8 L 657.4 -10.8 Q 659 -9.7 659 -7.3 L 659 -7.3 L 659 -7.3 Q 659 -4.9 657.8 -3.4 L 657.8 -3.4 L 657.8 -3.4 Q 656.6 -1.9 654.6 -0.8 L 654.6 -0.8 L 654.6 -0.8 Q 650.5 1.3 646.1 1.3 L 646.1 1.3 L 646.1 1.3 Q 641.7 1.3 639.1 0.3 L 639.1 0.3 L 639.1 0.3 Q 636.5 -0.6 634.8 -2.4 L 634.8 -2.4 L 634.8 -2.4 Q 631.4 -5.8 631.4 -12 L 631.4 -12 L 631.4 -12 Q 631.4 -21.7 636.6 -27.6 L 636.6 -27.6 L 636.6 -27.6 Q 642.2 -33.9 652 -33.9 L 652 -33.9 L 652 -33.9 Q 658.1 -33.9 661.1 -31.4 L 661.1 -31.4 L 661.1 -31.4 Q 663.4 -29.4 663.4 -26.3 L 663.4 -26.3 L 663.4 -26.3 Q 663.4 -15 643.9 -15 L 643.9 -15 L 643.9 -15 Q 643.6 -13.4 643.6 -12 L 643.6 -12 L 643.6 -12 Q 643.6 -9 645 -7.9 L 645 -7.9 L 645 -7.9 Q 646.3 -6.8 648.7 -6.8 L 648.7 -6.8 L 648.7 -6.8 Q 651.1 -6.8 653.7 -7.9 L 653.7 -7.9 L 653.7 -7.9 Q 656.3 -9 657.4 -10.8 Z M 644.4 -17.8 L 644.4 -17.8 L 644.4 -17.8 Q 648.9 -17.8 651.5 -20.6 L 651.5 -20.6 L 651.5 -20.6 Q 654.1 -23.3 654.1 -27.6 L 654.1 -27.6 L 654.1 -27.6 Q 654.1 -29.1 653.6 -29.9 L 653.6 -29.9 L 653.6 -29.9 Q 653.1 -30.7 652 -30.7 L 652 -30.7 L 652 -30.7 Q 650.9 -30.7 650 -30.2 L 650 -30.2 L 650 -30.2 Q 649 -29.8 648.1 -28.4 L 648.1 -28.4 L 648.1 -28.4 Q 645.7 -25.2 644.4 -17.8 Z M 684.7 -22.5 L 684.7 -22.5 L 684.7 -22.5 Q 685.6 -24.8 685.6 -26.9 L 685.6 -26.9 L 685.6 -26.9 Q 685.6 -30.7 682.5 -30.7 L 682.5 -30.7 L 682.5 -30.7 Q 680.9 -30.7 679.6 -29.2 L 679.6 -29.2 L 679.6 -29.2 Q 678.3 -27.8 678.3 -26 L 678.3 -26 L 678.3 -26 Q 678.3 -24.7 679.3 -23.7 L 679.3 -23.7 L 679.3 -23.7 Q 680.8 -22.3 684.5 -20 L 684.5 -20 L 684.5 -20 Q 688.3 -17.7 689.8 -15.8 L 689.8 -15.8 L 689.8 -15.8 Q 691.2 -13.9 691.2 -11.3 L 691.2 -11.3 L 691.2 -11.3 Q 691.2 -8.7 690 -6.3 L 690 -6.3 L 690 -6.3 Q 688.7 -4 686.5 -2.3 L 686.5 -2.3 L 686.5 -2.3 Q 681.7 1.3 674 1.3 L 674 1.3 L 674 1.3 Q 669.8 1.3 666.6 -0.9 L 666.6 -0.9 L 666.6 -0.9 Q 663.4 -3 663.4 -5.5 L 663.4 -5.5 L 663.4 -5.5 Q 663.4 -8 665.3 -9.5 L 665.3 -9.5 L 665.3 -9.5 Q 667.1 -10.9 669.8 -10.9 L 669.8 -10.9 L 669.8 -10.9 Q 672.5 -10.9 674.1 -9.9 L 674.1 -9.9 L 674.1 -9.9 Q 673.3 -7.8 673.3 -6.4 L 673.3 -6.4 L 673.3 -6.4 Q 673.3 -2.2 676.9 -2.2 L 676.9 -2.2 L 676.9 -2.2 Q 678.4 -2.2 679.4 -3.1 L 679.4 -3.1 L 679.4 -3.1 Q 680.5 -4.1 680.5 -5.8 L 680.5 -5.8 L 680.5 -5.8 Q 680.5 -9 674.9 -12.5 L 674.9 -12.5 L 674.9 -12.5 Q 670.5 -15.4 669.4 -16.6 L 669.4 -16.6 L 669.4 -16.6 Q 667.7 -18.6 667.7 -21.2 L 667.7 -21.2 L 667.7 -21.2 Q 667.7 -23.7 668.9 -26.2 L 668.9 -26.2 L 668.9 -26.2 Q 670.1 -28.6 672.4 -30.3 L 672.4 -30.3 L 672.4 -30.3 Q 677.1 -33.9 685.2 -33.9 L 685.2 -33.9 L 685.2 -33.9 Q 689.3 -33.9 691.8 -32.3 L 691.8 -32.3 L 691.8 -32.3 Q 694.3 -30.6 694.3 -27.8 L 694.3 -27.8 L 694.3 -27.8 Q 694.3 -25 692.6 -23.4 L 692.6 -23.4 L 692.6 -23.4 Q 690.9 -21.8 687.8 -21.8 L 687.8 -21.8 L 687.8 -21.8 Q 685.7 -21.8 684.7 -22.5 Z M 735.7 -20.6 L 748.7 -21.8 L 748.7 -21.8 Q 744.1 -11.7 744.1 0.1 L 744.1 0.1 L 744.1 0.1 Q 742.3 1.3 739.8 1.3 L 739.8 1.3 L 739.8 1.3 Q 737.3 1.3 735.7 0.1 L 735.7 0.1 L 735.7 0.1 Q 734.1 -1.1 733.8 -2.3 L 733.8 -2.3 L 733.8 -2.3 Q 732.2 -0.6 729.6 0.3 L 729.6 0.3 L 729.6 0.3 Q 727 1.3 724.2 1.3 L 724.2 1.3 L 724.2 1.3 Q 721.5 1.3 719.1 0.4 L 719.1 0.4 L 719.1 0.4 Q 716.7 -0.5 714.8 -2.5 L 714.8 -2.5 L 714.8 -2.5 Q 710.7 -6.8 710.7 -15.1 L 710.7 -15.1 L 710.7 -15.1 Q 710.7 -27.9 717.6 -35.6 L 717.6 -35.6 L 717.6 -35.6 Q 724.6 -43.5 737.1 -43.5 L 737.1 -43.5 L 737.1 -43.5 Q 745.7 -43.5 748.8 -39 L 748.8 -39 L 748.8 -39 Q 749.8 -37.6 749.8 -35.9 L 749.8 -35.9 L 749.8 -35.9 Q 749.8 -34.2 749 -32.8 L 749 -32.8 L 749 -32.8 Q 748.3 -31.4 747.1 -30.2 L 747.1 -30.2 L 747.1 -30.2 Q 744.4 -27.6 741 -27.6 L 741 -27.6 L 741 -27.6 Q 739.6 -27.6 738.4 -28.1 L 738.4 -28.1 L 738.4 -28.1 Q 738.6 -30 738.6 -32.3 L 738.6 -32.3 L 738.6 -32.3 Q 738.6 -34.5 738.5 -35.5 L 738.5 -35.5 L 738.5 -35.5 Q 738.3 -36.5 737.9 -37.4 L 737.9 -37.4 L 737.9 -37.4 Q 737.1 -39.1 735.3 -39.1 L 735.3 -39.1 L 735.3 -39.1 Q 733.4 -39.1 731.4 -37.1 L 731.4 -37.1 L 731.4 -37.1 Q 729.4 -35.2 727.8 -32 L 727.8 -32 L 727.8 -32 Q 724.3 -24.8 724.3 -16.2 L 724.3 -16.2 L 724.3 -16.2 Q 724.3 -12.2 725.8 -9.4 L 725.8 -9.4 L 725.8 -9.4 Q 727.5 -6.3 730.4 -6.3 L 730.4 -6.3 L 730.4 -6.3 Q 731.5 -6.3 732.4 -6.8 L 732.4 -6.8 L 732.4 -6.8 Q 733.3 -7.4 733.7 -7.7 L 733.7 -7.7 L 735.7 -20.6 Z M 754.6 -1.9 L 754.6 -1.9 L 754.6 -1.9 Q 753.1 -3.6 752.4 -6.2 L 752.4 -6.2 L 752.4 -6.2 Q 751.7 -8.8 751.7 -13.1 L 751.7 -13.1 L 751.7 -13.1 Q 751.7 -17.4 753.2 -21.3 L 753.2 -21.3 L 753.2 -21.3 Q 754.7 -25.2 757.4 -28 L 757.4 -28 L 757.4 -28 Q 762.9 -33.9 772 -33.9 L 772 -33.9 L 772 -33.9 Q 775.2 -33.9 777.6 -32.8 L 777.6 -32.8 L 788.5 -33.9 L 783.8 -9 L 783.8 -9 Q 783.6 -8.2 783.6 -6.8 L 783.6 -6.8 L 783.6 -6.8 Q 783.6 -5.4 784.5 -4.5 L 784.5 -4.5 L 784.5 -4.5 Q 785.3 -3.6 786.6 -3.5 L 786.6 -3.5 L 786.6 -3.5 Q 786 -1.3 783.6 0 L 783.6 0 L 783.6 0 Q 781.3 1.3 778.7 1.3 L 778.7 1.3 L 778.7 1.3 Q 776.1 1.3 774.3 0.3 L 774.3 0.3 L 774.3 0.3 Q 772.5 -0.7 772 -2.4 L 772 -2.4 L 772 -2.4 Q 771 -0.8 768.8 0.3 L 768.8 0.3 L 768.8 0.3 Q 766.7 1.3 763.7 1.3 L 763.7 1.3 L 763.7 1.3 Q 760.8 1.3 758.5 0.5 L 758.5 0.5 L 758.5 0.5 Q 756.1 -0.3 754.6 -1.9 Z M 768.1 -27.9 L 768.1 -27.9 L 768.1 -27.9 Q 767.4 -26.8 766.7 -24.8 L 766.7 -24.8 L 766.7 -24.8 Q 766.1 -22.9 765 -17.6 L 765 -17.6 L 765 -17.6 Q 764 -12.4 764 -8.7 L 764 -8.7 L 764 -8.7 Q 764 -5 764.5 -3.9 L 764.5 -3.9 L 764.5 -3.9 Q 765.1 -2.8 766.1 -2.8 L 766.1 -2.8 L 766.1 -2.8 Q 768.2 -2.8 769.7 -4.8 L 769.7 -4.8 L 769.7 -4.8 Q 771.2 -6.7 771.8 -10.2 L 771.8 -10.2 L 775.2 -28.9 L 775.2 -28.9 Q 773.8 -30.1 772.3 -30.1 L 772.3 -30.1 L 772.3 -30.1 Q 770.7 -30.1 769.8 -29.6 L 769.8 -29.6 L 769.8 -29.6 Q 768.8 -29.1 768.1 -27.9 Z M 807.3 -3.5 L 807.3 -3.5 L 807.3 -3.5 Q 805.3 1.3 799 1.3 L 799 1.3 L 799 1.3 Q 795.8 1.3 793.7 -1 L 793.7 -1 L 793.7 -1 Q 792.1 -2.8 792.1 -4.9 L 792.1 -4.9 L 792.1 -4.9 Q 792.1 -9.7 794.3 -20.2 L 794.3 -20.2 L 799 -44.8 L 812 -46.1 L 805.8 -13.7 L 805.8 -13.7 Q 804.7 -9 804.7 -7.3 L 804.7 -7.3 L 804.7 -7.3 Q 804.7 -3.6 807.3 -3.5 Z M 828 -3.5 L 828 -3.5 L 828 -3.5 Q 826 1.3 819.7 1.3 L 819.7 1.3 L 819.7 1.3 Q 816.5 1.3 814.5 -1 L 814.5 -1 L 814.5 -1 Q 812.8 -2.8 812.8 -4.9 L 812.8 -4.9 L 812.8 -4.9 Q 812.8 -9.7 815 -20.2 L 815 -20.2 L 819.7 -44.8 L 832.7 -46.1 L 826.5 -13.7 L 826.5 -13.7 Q 825.4 -9 825.4 -7.3 L 825.4 -7.3 L 825.4 -7.3 Q 825.4 -3.6 828 -3.5 Z M 859.4 -10.8 L 859.4 -10.8 L 859.4 -10.8 Q 861 -9.7 861 -7.3 L 861 -7.3 L 861 -7.3 Q 861 -4.9 859.8 -3.4 L 859.8 -3.4 L 859.8 -3.4 Q 858.6 -1.9 856.6 -0.8 L 856.6 -0.8 L 856.6 -0.8 Q 852.5 1.3 848.1 1.3 L 848.1 1.3 L 848.1 1.3 Q 843.6 1.3 841.1 0.3 L 841.1 0.3 L 841.1 0.3 Q 838.5 -0.6 836.7 -2.4 L 836.7 -2.4 L 836.7 -2.4 Q 833.3 -5.8 833.3 -12 L 833.3 -12 L 833.3 -12 Q 833.3 -21.7 838.6 -27.6 L 838.6 -27.6 L 838.6 -27.6 Q 844.2 -33.9 854 -33.9 L 854 -33.9 L 854 -33.9 Q 860.1 -33.9 863.1 -31.4 L 863.1 -31.4 L 863.1 -31.4 Q 865.3 -29.4 865.3 -26.3 L 865.3 -26.3 L 865.3 -26.3 Q 865.3 -15 845.9 -15 L 845.9 -15 L 845.9 -15 Q 845.6 -13.4 845.6 -12 L 845.6 -12 L 845.6 -12 Q 845.6 -9 846.9 -7.9 L 846.9 -7.9 L 846.9 -7.9 Q 848.3 -6.8 850.7 -6.8 L 850.7 -6.8 L 850.7 -6.8 Q 853.1 -6.8 855.7 -7.9 L 855.7 -7.9 L 855.7 -7.9 Q 858.3 -9 859.4 -10.8 Z M 846.3 -17.8 L 846.3 -17.8 L 846.3 -17.8 Q 850.9 -17.8 853.5 -20.6 L 853.5 -20.6 L 853.5 -20.6 Q 856.1 -23.3 856.1 -27.6 L 856.1 -27.6 L 856.1 -27.6 Q 856.1 -29.1 855.6 -29.9 L 855.6 -29.9 L 855.6 -29.9 Q 855 -30.7 854 -30.7 L 854 -30.7 L 854 -30.7 Q 852.9 -30.7 851.9 -30.2 L 851.9 -30.2 L 851.9 -30.2 Q 851 -29.8 850 -28.4 L 850 -28.4 L 850 -28.4 Q 847.7 -25.2 846.3 -17.8 Z M 887.5 -18 L 887.5 -18 L 887.5 -18 Q 889.9 -22.1 889.9 -26.2 L 889.9 -26.2 L 889.9 -26.2 Q 889.9 -29 887.9 -29 L 887.9 -29 L 887.9 -29 Q 886.3 -29 884.7 -26.4 L 884.7 -26.4 L 884.7 -26.4 Q 883.1 -23.7 882.6 -20.4 L 882.6 -20.4 L 879.2 0 L 866 1.3 L 872.5 -32.6 L 883.1 -33.9 L 881.9 -27.5 L 881.9 -27.5 Q 885.1 -33.9 892.1 -33.9 L 892.1 -33.9 L 892.1 -33.9 Q 895.8 -33.9 897.8 -32 L 897.8 -32 L 897.8 -32 Q 899.8 -30.1 899.8 -26.1 L 899.8 -26.1 L 899.8 -26.1 Q 899.8 -22.2 897.3 -19.7 L 897.3 -19.7 L 897.3 -19.7 Q 894.7 -17.2 890.2 -17.2 L 890.2 -17.2 L 890.2 -17.2 Q 888.3 -17.2 887.5 -18 Z M 921.2 -7.2 L 921.2 -7.2 L 921.2 -7.2 Q 917.9 -3.8 911.8 -3.8 L 911.8 -3.8 L 911.8 -3.8 Q 904.2 -3.8 902.6 -9.3 L 902.6 -9.3 L 902.6 -9.3 Q 902.1 -11 902.1 -12.9 L 902.1 -12.9 L 902.1 -12.9 Q 902.1 -14.7 902.5 -16.6 L 902.5 -16.6 L 905.5 -32.6 L 918.5 -33.9 L 914.9 -15.3 L 914.9 -15.3 Q 914.8 -14.5 914.6 -13.6 L 914.6 -13.6 L 914.6 -13.6 Q 914.4 -12.7 914.4 -11.7 L 914.4 -11.7 L 914.4 -11.7 Q 914.4 -10.8 914.8 -10.2 L 914.8 -10.2 L 914.8 -10.2 Q 915.1 -9.6 915.5 -9.2 L 915.5 -9.2 L 915.5 -9.2 Q 916.3 -8.7 917.7 -8.7 L 917.7 -8.7 L 917.7 -8.7 Q 919 -8.7 920.2 -10.4 L 920.2 -10.4 L 920.2 -10.4 Q 921.4 -12 922 -14.9 L 922 -14.9 L 925.5 -32.6 L 938.1 -33.9 L 933.3 -8.8 L 933.3 -8.8 Q 930.9 3.5 926.1 8.4 L 926.1 8.4 L 926.1 8.4 Q 923.6 10.9 920.4 11.9 L 920.4 11.9 L 920.4 11.9 Q 917.1 12.9 913 12.9 L 913 12.9 L 913 12.9 Q 906.2 12.9 902.4 10.8 L 902.4 10.8 L 902.4 10.8 Q 898.6 8.6 898.6 5.1 L 898.6 5.1 L 898.6 5.1 Q 898.6 2.5 900.5 1 L 900.5 1 L 900.5 1 Q 902.5 -0.5 905.6 -0.5 L 905.6 -0.5 L 905.6 -0.5 Q 908.3 -0.5 910.3 0.6 L 910.3 0.6 L 910.3 0.6 Q 911.5 1.3 912.1 2.2 L 912.1 2.2 L 912.1 2.2 Q 910.7 3.5 910.7 5.6 L 910.7 5.6 L 910.7 5.6 Q 910.7 8.4 913.2 8.4 L 913.2 8.4 L 913.2 8.4 Q 917.4 8.4 919.9 -1.3 L 919.9 -1.3 L 919.9 -1.3 Q 920.6 -4.2 921.2 -7.2 Z" fill="url(#editing-shiny-gradient)"></path></g></g><g transform="matrix(1,0,0,1,0,0)" filter="url(#editing-shiny2)"><g transform="matrix(1.4,0,0,2.2,-448.4,242.8)"><path d="M 53.9 -61.3 L 46.6 -61.3 L 58.2 -103.6 L 71.5 -103.6 L 74.5 -79.4 L 86.4 -103.6 L 97.6 -103.6 L 98.7 -71.9 L 98.7 -71.9 Q 99 -65.7 102.1 -63.7 L 102.1 -63.7 L 102.1 -63.7 Q 101.4 -62.5 99.3 -61.3 L 99.3 -61.3 L 99.3 -61.3 Q 97.3 -60 94.6 -60 L 94.6 -60 L 94.6 -60 Q 91.8 -60 90.2 -60.8 L 90.2 -60.8 L 90.2 -60.8 Q 88.6 -61.6 87.7 -62.9 L 87.7 -62.9 L 87.7 -62.9 Q 86.1 -65.2 86.1 -69.6 L 86.1 -69.6 L 86.1 -89.3 L 73.5 -61.3 L 65.6 -61.3 L 61.1 -90.1 L 53.9 -61.3 Z M 107.6 -63.2 L 107.6 -63.2 L 107.6 -63.2 Q 106.1 -64.9 105.4 -67.5 L 105.4 -67.5 L 105.4 -67.5 Q 104.8 -70.1 104.8 -74.4 L 104.8 -74.4 L 104.8 -74.4 Q 104.8 -78.7 106.2 -82.6 L 106.2 -82.6 L 106.2 -82.6 Q 107.7 -86.5 110.4 -89.3 L 110.4 -89.3 L 110.4 -89.3 Q 115.9 -95.2 125 -95.2 L 125 -95.2 L 125 -95.2 Q 128.2 -95.2 130.6 -94.1 L 130.6 -94.1 L 141.6 -95.2 L 136.8 -70.3 L 136.8 -70.3 Q 136.6 -69.5 136.6 -68.1 L 136.6 -68.1 L 136.6 -68.1 Q 136.6 -66.7 137.5 -65.8 L 137.5 -65.8 L 137.5 -65.8 Q 138.4 -64.9 139.6 -64.8 L 139.6 -64.8 L 139.6 -64.8 Q 139 -62.6 136.7 -61.3 L 136.7 -61.3 L 136.7 -61.3 Q 134.3 -60 131.7 -60 L 131.7 -60 L 131.7 -60 Q 129.1 -60 127.3 -61 L 127.3 -61 L 127.3 -61 Q 125.6 -62 125 -63.7 L 125 -63.7 L 125 -63.7 Q 124 -62.1 121.8 -61.1 L 121.8 -61.1 L 121.8 -61.1 Q 119.7 -60 116.8 -60 L 116.8 -60 L 116.8 -60 Q 113.8 -60 111.5 -60.8 L 111.5 -60.8 L 111.5 -60.8 Q 109.1 -61.6 107.6 -63.2 Z M 121.1 -89.2 L 121.1 -89.2 L 121.1 -89.2 Q 120.4 -88.1 119.7 -86.1 L 119.7 -86.1 L 119.7 -86.1 Q 119.1 -84.2 118 -78.9 L 118 -78.9 L 118 -78.9 Q 117 -73.7 117 -70 L 117 -70 L 117 -70 Q 117 -66.3 117.6 -65.2 L 117.6 -65.2 L 117.6 -65.2 Q 118.1 -64.1 119.2 -64.1 L 119.2 -64.1 L 119.2 -64.1 Q 121.2 -64.1 122.7 -66.1 L 122.7 -66.1 L 122.7 -66.1 Q 124.2 -68 124.8 -71.5 L 124.8 -71.5 L 128.2 -90.2 L 128.2 -90.2 Q 126.8 -91.4 125.3 -91.4 L 125.3 -91.4 L 125.3 -91.4 Q 123.7 -91.4 122.8 -90.9 L 122.8 -90.9 L 122.8 -90.9 Q 121.8 -90.4 121.1 -89.2 Z M 161.5 -91.7 L 161.5 -91.7 L 161.5 -91.7 Q 165 -95.2 172.3 -95.2 L 172.3 -95.2 L 172.3 -95.2 Q 176.3 -95.2 178.5 -93.1 L 178.5 -93.1 L 178.5 -93.1 Q 180.7 -90.9 180.7 -87 L 180.7 -87 L 180.7 -87 Q 180.7 -83.1 178.5 -80.3 L 178.5 -80.3 L 178.5 -80.3 Q 176.3 -77.5 172.2 -76.4 L 172.2 -76.4 L 172.2 -76.4 Q 172.5 -75.1 173 -73.7 L 173 -73.7 L 173.9 -71.2 L 173.9 -71.2 Q 175.1 -67.9 176.1 -66.8 L 176.1 -66.8 L 176.1 -66.8 Q 177 -65.6 178.3 -65.2 L 178.3 -65.2 L 178.3 -65.2 Q 177.6 -62.6 175 -61.2 L 175 -61.2 L 175 -61.2 Q 173 -60 170.2 -60 L 170.2 -60 L 170.2 -60 Q 161.9 -60 160.8 -72.8 L 160.8 -72.8 L 160.8 -72.8 Q 160.6 -74.6 160.6 -76.4 L 160.6 -76.4 L 160.6 -76.4 Q 163.8 -77.3 166.1 -80.3 L 166.1 -80.3 L 166.1 -80.3 Q 168.3 -83.3 168.3 -86.8 L 168.3 -86.8 L 168.3 -86.8 Q 168.3 -90.3 165.8 -90.3 L 165.8 -90.3 L 165.8 -90.3 Q 164 -90.3 162.6 -88.3 L 162.6 -88.3 L 162.6 -88.3 Q 161.2 -86.3 160.6 -82.9 L 160.6 -82.9 L 156.3 -61.3 L 143.4 -60 L 152.4 -106.1 L 165.2 -107.4 L 163.8 -99.8 L 163.8 -99.8 Q 162.8 -94.4 161.5 -91.7 Z M 202.8 -83.8 L 202.8 -83.8 L 202.8 -83.8 Q 203.7 -86.1 203.7 -88.2 L 203.7 -88.2 L 203.7 -88.2 Q 203.7 -92 200.6 -92 L 200.6 -92 L 200.6 -92 Q 199 -92 197.7 -90.5 L 197.7 -90.5 L 197.7 -90.5 Q 196.4 -89.1 196.4 -87.3 L 196.4 -87.3 L 196.4 -87.3 Q 196.4 -86 197.4 -85 L 197.4 -85 L 197.4 -85 Q 198.9 -83.6 202.7 -81.3 L 202.7 -81.3 L 202.7 -81.3 Q 206.5 -79 207.9 -77.1 L 207.9 -77.1 L 207.9 -77.1 Q 209.3 -75.2 209.3 -72.6 L 209.3 -72.6 L 209.3 -72.6 Q 209.3 -70 208.1 -67.7 L 208.1 -67.7 L 208.1 -67.7 Q 206.8 -65.3 204.6 -63.6 L 204.6 -63.6 L 204.6 -63.6 Q 199.8 -60 192.1 -60 L 192.1 -60 L 192.1 -60 Q 188 -60 184.8 -62.2 L 184.8 -62.2 L 184.8 -62.2 Q 181.6 -64.3 181.6 -66.8 L 181.6 -66.8 L 181.6 -66.8 Q 181.6 -69.3 183.4 -70.8 L 183.4 -70.8 L 183.4 -70.8 Q 185.2 -72.3 187.9 -72.3 L 187.9 -72.3 L 187.9 -72.3 Q 190.6 -72.3 192.2 -71.2 L 192.2 -71.2 L 192.2 -71.2 Q 191.4 -69.1 191.4 -67.7 L 191.4 -67.7 L 191.4 -67.7 Q 191.4 -63.5 195 -63.5 L 195 -63.5 L 195 -63.5 Q 196.5 -63.5 197.6 -64.5 L 197.6 -64.5 L 197.6 -64.5 Q 198.6 -65.4 198.6 -67.1 L 198.6 -67.1 L 198.6 -67.1 Q 198.6 -70.3 193.1 -73.8 L 193.1 -73.8 L 193.1 -73.8 Q 188.6 -76.7 187.6 -77.9 L 187.6 -77.9 L 187.6 -77.9 Q 185.8 -79.9 185.8 -82.5 L 185.8 -82.5 L 185.8 -82.5 Q 185.8 -85.1 187.1 -87.5 L 187.1 -87.5 L 187.1 -87.5 Q 188.3 -89.9 190.5 -91.7 L 190.5 -91.7 L 190.5 -91.7 Q 195.2 -95.2 203.3 -95.2 L 203.3 -95.2 L 203.3 -95.2 Q 207.5 -95.2 209.9 -93.6 L 209.9 -93.6 L 209.9 -93.6 Q 212.4 -91.9 212.4 -89.1 L 212.4 -89.1 L 212.4 -89.1 Q 212.4 -86.3 210.7 -84.7 L 210.7 -84.7 L 210.7 -84.7 Q 209 -83.1 205.9 -83.1 L 205.9 -83.1 L 205.9 -83.1 Q 203.8 -83.1 202.8 -83.8 Z M 241.5 -71.2 L 241.5 -71.2 L 241.5 -71.2 Q 242.7 -69.6 242.7 -66.7 L 242.7 -66.7 L 242.7 -66.7 Q 242.7 -63.7 240.5 -61.9 L 240.5 -61.9 L 240.5 -61.9 Q 238.2 -60 234.2 -60 L 234.2 -60 L 234.2 -60 Q 231.9 -60 228.3 -60.5 L 228.3 -60.5 L 228.3 -60.5 Q 221.3 -61.6 219.3 -61.6 L 219.3 -61.6 L 219.3 -61.6 Q 217.3 -61.6 216.4 -61.5 L 216.4 -61.5 L 216.4 -61.5 Q 215.6 -61.4 214.3 -61.3 L 214.3 -61.3 L 222 -103.6 L 236 -103.6 L 229.6 -68.4 L 229.6 -68.4 Q 230.5 -68.2 231.2 -68.2 L 231.2 -68.2 L 232.8 -68.2 L 232.8 -68.2 Q 238.2 -68.2 241.5 -71.2 Z M 273 -72.1 L 273 -72.1 L 273 -72.1 Q 274.6 -71 274.6 -68.6 L 274.6 -68.6 L 274.6 -68.6 Q 274.6 -66.2 273.3 -64.7 L 273.3 -64.7 L 273.3 -64.7 Q 272.1 -63.2 270.1 -62.1 L 270.1 -62.1 L 270.1 -62.1 Q 266 -60 261.6 -60 L 261.6 -60 L 261.6 -60 Q 257.2 -60 254.6 -61 L 254.6 -61 L 254.6 -61 Q 252 -62 250.3 -63.7 L 250.3 -63.7 L 250.3 -63.7 Q 246.9 -67.1 246.9 -73.3 L 246.9 -73.3 L 246.9 -73.3 Q 246.9 -83 252.2 -88.9 L 252.2 -88.9 L 252.2 -88.9 Q 257.8 -95.2 267.6 -95.2 L 267.6 -95.2 L 267.6 -95.2 Q 273.7 -95.2 276.7 -92.7 L 276.7 -92.7 L 276.7 -92.7 Q 278.9 -90.8 278.9 -87.6 L 278.9 -87.6 L 278.9 -87.6 Q 278.9 -76.4 259.4 -76.4 L 259.4 -76.4 L 259.4 -76.4 Q 259.2 -74.7 259.2 -73.3 L 259.2 -73.3 L 259.2 -73.3 Q 259.2 -70.3 260.5 -69.2 L 260.5 -69.2 L 260.5 -69.2 Q 261.8 -68.1 264.2 -68.1 L 264.2 -68.1 L 264.2 -68.1 Q 266.7 -68.1 269.3 -69.2 L 269.3 -69.2 L 269.3 -69.2 Q 271.9 -70.3 273 -72.1 Z M 259.9 -79.1 L 259.9 -79.1 L 259.9 -79.1 Q 264.4 -79.1 267.1 -81.9 L 267.1 -81.9 L 267.1 -81.9 Q 269.7 -84.6 269.7 -88.9 L 269.7 -88.9 L 269.7 -88.9 Q 269.7 -90.4 269.1 -91.2 L 269.1 -91.2 L 269.1 -91.2 Q 268.6 -92 267.5 -92 L 267.5 -92 L 267.5 -92 Q 266.4 -92 265.5 -91.6 L 265.5 -91.6 L 265.5 -91.6 Q 264.6 -91.1 263.6 -89.7 L 263.6 -89.7 L 263.6 -89.7 Q 261.2 -86.5 259.9 -79.1 Z M 304.3 -92.9 L 304.3 -92.9 L 304.3 -92.9 Q 306.4 -95.2 310.1 -95.2 L 310.1 -95.2 L 310.1 -95.2 Q 312.3 -95.2 314 -94 L 314 -94 L 314 -94 Q 315.8 -92.8 315.8 -90.5 L 315.8 -90.5 L 315.8 -90.5 Q 315.8 -88.3 315.1 -85.8 L 315.1 -85.8 L 315.1 -85.8 Q 314.4 -83.4 313.3 -80.9 L 313.3 -80.9 L 313.3 -80.9 Q 311.1 -76 308.1 -72 L 308.1 -72 L 308.1 -72 Q 303.9 -66.2 299.8 -63.1 L 299.8 -63.1 L 299.8 -63.1 Q 295.7 -60 291.3 -60 L 291.3 -60 L 291.3 -60 Q 287.7 -60 285.6 -60.9 L 285.6 -60.9 L 285.6 -60.9 Q 285.2 -74.3 284.7 -79.1 L 284.7 -79.1 L 284.7 -79.1 Q 284.2 -83.9 283.8 -86.5 L 283.8 -86.5 L 283.8 -86.5 Q 283.2 -91.7 281.3 -92.9 L 281.3 -92.9 L 281.3 -92.9 Q 282.7 -94.1 284.2 -94.7 L 284.2 -94.7 L 284.2 -94.7 Q 285.6 -95.2 288.6 -95.2 L 288.6 -95.2 L 288.6 -95.2 Q 291.6 -95.2 293.7 -92.9 L 293.7 -92.9 L 293.7 -92.9 Q 295.8 -90.6 296.2 -86.4 L 296.2 -86.4 L 296.2 -86.4 Q 296.6 -82.3 296.6 -77.3 L 296.6 -77.3 L 296.6 -77.3 Q 296.6 -72.3 296.2 -66.3 L 296.2 -66.3 L 296.2 -66.3 Q 298.2 -67.7 300.3 -72 L 300.3 -72 L 300.3 -72 Q 303.2 -78 304.2 -85.1 L 304.2 -85.1 L 304.2 -85.1 Q 304.6 -87.3 304.6 -89.6 L 304.6 -89.6 L 304.6 -89.6 Q 304.6 -91.9 304.3 -92.9 Z M 327.4 -90.8 L 320.6 -90.8 L 320.6 -90.8 Q 323 -99 323.1 -107.7 L 323.1 -107.7 L 325 -107.9 L 325 -107.9 Q 325.9 -108 326.6 -108 L 326.6 -108 L 326.6 -108 Q 329.5 -108 331 -106.7 L 331 -106.7 L 331 -106.7 Q 332.5 -105.3 332.5 -102.9 L 332.5 -102.9 L 332.5 -102.9 Q 332.5 -100.3 331.4 -97.5 L 331.4 -97.5 L 331.4 -97.5 Q 329.3 -92.5 327.4 -90.8 L 327.4 -90.8 Z M 350.9 -83.8 L 350.9 -83.8 L 350.9 -83.8 Q 351.8 -86.1 351.8 -88.2 L 351.8 -88.2 L 351.8 -88.2 Q 351.8 -92 348.7 -92 L 348.7 -92 L 348.7 -92 Q 347.1 -92 345.8 -90.5 L 345.8 -90.5 L 345.8 -90.5 Q 344.5 -89.1 344.5 -87.3 L 344.5 -87.3 L 344.5 -87.3 Q 344.5 -86 345.5 -85 L 345.5 -85 L 345.5 -85 Q 347 -83.6 350.8 -81.3 L 350.8 -81.3 L 350.8 -81.3 Q 354.6 -79 356 -77.1 L 356 -77.1 L 356 -77.1 Q 357.4 -75.2 357.4 -72.6 L 357.4 -72.6 L 357.4 -72.6 Q 357.4 -70 356.2 -67.7 L 356.2 -67.7 L 356.2 -67.7 Q 354.9 -65.3 352.7 -63.6 L 352.7 -63.6 L 352.7 -63.6 Q 347.9 -60 340.2 -60 L 340.2 -60 L 340.2 -60 Q 336.1 -60 332.9 -62.2 L 332.9 -62.2 L 332.9 -62.2 Q 329.7 -64.3 329.7 -66.8 L 329.7 -66.8 L 329.7 -66.8 Q 329.7 -69.3 331.5 -70.8 L 331.5 -70.8 L 331.5 -70.8 Q 333.3 -72.3 336 -72.3 L 336 -72.3 L 336 -72.3 Q 338.7 -72.3 340.3 -71.2 L 340.3 -71.2 L 340.3 -71.2 Q 339.5 -69.1 339.5 -67.7 L 339.5 -67.7 L 339.5 -67.7 Q 339.5 -63.5 343.1 -63.5 L 343.1 -63.5 L 343.1 -63.5 Q 344.6 -63.5 345.7 -64.5 L 345.7 -64.5 L 345.7 -64.5 Q 346.7 -65.4 346.7 -67.1 L 346.7 -67.1 L 346.7 -67.1 Q 346.7 -70.3 341.2 -73.8 L 341.2 -73.8 L 341.2 -73.8 Q 336.7 -76.7 335.7 -77.9 L 335.7 -77.9 L 335.7 -77.9 Q 333.9 -79.9 333.9 -82.5 L 333.9 -82.5 L 333.9 -82.5 Q 333.9 -85.1 335.2 -87.5 L 335.2 -87.5 L 335.2 -87.5 Q 336.4 -89.9 338.6 -91.7 L 338.6 -91.7 L 338.6 -91.7 Q 343.3 -95.2 351.4 -95.2 L 351.4 -95.2 L 351.4 -95.2 Q 355.6 -95.2 358 -93.6 L 358 -93.6 L 358 -93.6 Q 360.5 -91.9 360.5 -89.1 L 360.5 -89.1 L 360.5 -89.1 Q 360.5 -86.3 358.8 -84.7 L 358.8 -84.7 L 358.8 -84.7 Q 357.1 -83.1 354 -83.1 L 354 -83.1 L 354 -83.1 Q 351.9 -83.1 350.9 -83.8 Z M 407.5 -87.9 L 407.5 -87.9 L 407.5 -87.9 Q 407.5 -85.3 405.2 -83.6 L 405.2 -83.6 L 405.2 -83.6 Q 403 -81.9 399.4 -81.9 L 399.4 -81.9 L 399.4 -81.9 Q 397.8 -81.9 396.9 -82.4 L 396.9 -82.4 L 396.9 -82.4 Q 397.6 -84 397.8 -86.1 L 397.8 -86.1 L 397.8 -86.1 Q 398.1 -88.2 398.1 -88.8 L 398.1 -88.8 L 398.1 -88.8 Q 398.1 -91.5 396.2 -91.5 L 396.2 -91.5 L 396.2 -91.5 Q 394.9 -91.5 393.5 -89.9 L 393.5 -89.9 L 393.5 -89.9 Q 392.1 -88.3 390.8 -85.8 L 390.8 -85.8 L 390.8 -85.8 Q 388.2 -80 388.2 -74.2 L 388.2 -74.2 L 388.2 -74.2 Q 388.2 -71 389.4 -69.5 L 389.4 -69.5 L 389.4 -69.5 Q 390.6 -68.1 393.3 -68.1 L 393.3 -68.1 L 393.3 -68.1 Q 397 -68.1 399.9 -71.2 L 399.9 -71.2 L 399.9 -71.2 Q 400.8 -72.1 401.2 -73.2 L 401.2 -73.2 L 401.2 -73.2 Q 403.6 -71.9 403.6 -68.4 L 403.6 -68.4 L 403.6 -68.4 Q 403.6 -64.8 399.7 -62.5 L 399.7 -62.5 L 399.7 -62.5 Q 395.6 -60 389 -60 L 389 -60 L 389 -60 Q 376.1 -60 376.1 -73.8 L 376.1 -73.8 L 376.1 -73.8 Q 376.1 -83.8 381.8 -89.6 L 381.8 -89.6 L 381.8 -89.6 Q 387.3 -95.2 397.4 -95.2 L 397.4 -95.2 L 397.4 -95.2 Q 407.5 -95.2 407.5 -87.9 Z M 423.2 -60 L 423.2 -60 L 423.2 -60 Q 409.1 -60 409.1 -73.3 L 409.1 -73.3 L 409.1 -73.3 Q 409.1 -82.7 414.3 -88.8 L 414.3 -88.8 L 414.3 -88.8 Q 419.8 -95.2 429.3 -95.2 L 429.3 -95.2 L 429.3 -95.2 Q 436.2 -95.2 439.7 -92 L 439.7 -92 L 439.7 -92 Q 443.3 -88.8 443.3 -82.1 L 443.3 -82.1 L 443.3 -82.1 Q 443.3 -71.9 437.8 -65.9 L 437.8 -65.9 L 437.8 -65.9 Q 432.4 -60 423.2 -60 Z M 424.8 -87.9 L 424.8 -87.9 L 424.8 -87.9 Q 424.1 -86.1 423.4 -83.6 L 423.4 -83.6 L 423.4 -83.6 Q 422.8 -81 422.1 -76.9 L 422.1 -76.9 L 422.1 -76.9 Q 421.3 -72.8 421.3 -67.7 L 421.3 -67.7 L 421.3 -67.7 Q 421.3 -66.1 421.8 -65 L 421.8 -65 L 421.8 -65 Q 422.4 -63.9 423.9 -63.9 L 423.9 -63.9 L 423.9 -63.9 Q 425.3 -63.9 426.3 -64.6 L 426.3 -64.6 L 426.3 -64.6 Q 427.2 -65.3 427.9 -66.9 L 427.9 -66.9 L 427.9 -66.9 Q 429.2 -69.9 430.2 -75.4 L 430.2 -75.4 L 430.2 -75.4 Q 431.2 -80.8 431.3 -83.2 L 431.3 -83.2 L 431.3 -83.2 Q 431.4 -85.6 431.4 -87.3 L 431.4 -87.3 L 431.4 -87.3 Q 431.4 -89.1 430.9 -90.2 L 430.9 -90.2 L 430.9 -90.2 Q 430.4 -91.4 429 -91.4 L 429 -91.4 L 429 -91.4 Q 427.5 -91.4 426.6 -90.5 L 426.6 -90.5 L 426.6 -90.5 Q 425.6 -89.6 424.8 -87.9 Z M 461 -60 L 461 -60 L 461 -60 Q 446.9 -60 446.9 -73.3 L 446.9 -73.3 L 446.9 -73.3 Q 446.9 -82.7 452.1 -88.8 L 452.1 -88.8 L 452.1 -88.8 Q 457.6 -95.2 467.1 -95.2 L 467.1 -95.2 L 467.1 -95.2 Q 474 -95.2 477.6 -92 L 477.6 -92 L 477.6 -92 Q 481.1 -88.8 481.1 -82.1 L 481.1 -82.1 L 481.1 -82.1 Q 481.1 -71.9 475.6 -65.9 L 475.6 -65.9 L 475.6 -65.9 Q 470.2 -60 461 -60 Z M 462.6 -87.9 L 462.6 -87.9 L 462.6 -87.9 Q 461.9 -86.1 461.3 -83.6 L 461.3 -83.6 L 461.3 -83.6 Q 460.7 -81 459.9 -76.9 L 459.9 -76.9 L 459.9 -76.9 Q 459.1 -72.8 459.1 -67.7 L 459.1 -67.7 L 459.1 -67.7 Q 459.1 -66.1 459.7 -65 L 459.7 -65 L 459.7 -65 Q 460.2 -63.9 461.7 -63.9 L 461.7 -63.9 L 461.7 -63.9 Q 463.2 -63.9 464.1 -64.6 L 464.1 -64.6 L 464.1 -64.6 Q 465 -65.3 465.7 -66.9 L 465.7 -66.9 L 465.7 -66.9 Q 467 -69.9 468 -75.4 L 468 -75.4 L 468 -75.4 Q 469 -80.8 469.1 -83.2 L 469.1 -83.2 L 469.1 -83.2 Q 469.2 -85.6 469.2 -87.3 L 469.2 -87.3 L 469.2 -87.3 Q 469.2 -89.1 468.7 -90.2 L 468.7 -90.2 L 468.7 -90.2 Q 468.2 -91.4 466.8 -91.4 L 466.8 -91.4 L 466.8 -91.4 Q 465.3 -91.4 464.4 -90.5 L 464.4 -90.5 L 464.4 -90.5 Q 463.4 -89.6 462.6 -87.9 Z M 500.2 -64.8 L 500.2 -64.8 L 500.2 -64.8 Q 498.2 -60 491.8 -60 L 491.8 -60 L 491.8 -60 Q 488.6 -60 486.6 -62.3 L 486.6 -62.3 L 486.6 -62.3 Q 484.9 -64.1 484.9 -66.2 L 484.9 -66.2 L 484.9 -66.2 Q 484.9 -71 487.2 -81.5 L 487.2 -81.5 L 491.8 -106.1 L 504.8 -107.4 L 498.6 -75 L 498.6 -75 Q 497.5 -70.3 497.5 -68.6 L 497.5 -68.6 L 497.5 -68.6 Q 497.5 -65 500.2 -64.8 Z M 532 -61.3 L 518.1 -61.3 L 526.2 -103.6 L 540.3 -103.6 L 532 -61.3 Z M 587.8 -60 L 587.8 -60 L 587.8 -60 Q 580 -60 580 -66.1 L 580 -66.1 L 580 -66.1 Q 580 -68.7 581.1 -73.8 L 581.1 -73.8 L 581.1 -73.8 Q 582.3 -78.9 582.6 -80.9 L 582.6 -80.9 L 582.6 -80.9 Q 583.5 -85.6 583.5 -87 L 583.5 -87 L 583.5 -87 Q 583.5 -90.3 581.1 -90.3 L 581.1 -90.3 L 581.1 -90.3 Q 579.5 -90.3 578 -88.1 L 578 -88.1 L 578 -88.1 Q 576.4 -85.9 575.7 -81.5 L 575.7 -81.5 L 571.8 -61.3 L 559.3 -60 L 562.7 -77.4 L 562.7 -77.4 Q 563.3 -80.3 563.8 -83.6 L 563.8 -83.6 L 563.8 -83.6 Q 564.3 -86.9 564.3 -87.4 L 564.3 -87.4 L 564.3 -87.4 Q 564.3 -90.3 562.2 -90.3 L 562.2 -90.3 L 562.2 -90.3 Q 560.7 -90.3 559.1 -88.1 L 559.1 -88.1 L 559.1 -88.1 Q 557.5 -86 556.6 -81.5 L 556.6 -81.5 L 552.7 -61.3 L 540.1 -60 L 546.8 -94 L 557.2 -95.2 L 556.2 -88.8 L 556.2 -88.8 Q 557.8 -92.2 560.9 -93.7 L 560.9 -93.7 L 560.9 -93.7 Q 564 -95.2 568.8 -95.2 L 568.8 -95.2 L 568.8 -95.2 Q 571.5 -95.2 573.3 -93.9 L 573.3 -93.9 L 573.3 -93.9 Q 575.1 -92.5 575.7 -90.4 L 575.7 -90.4 L 575.7 -90.4 Q 576.8 -92.6 579.5 -93.9 L 579.5 -93.9 L 579.5 -93.9 Q 582.3 -95.2 585.8 -95.2 L 585.8 -95.2 L 585.8 -95.2 Q 589.2 -95.2 590.9 -94.5 L 590.9 -94.5 L 590.9 -94.5 Q 592.6 -93.8 593.6 -92.5 L 593.6 -92.5 L 593.6 -92.5 Q 595.3 -90.3 595.3 -86.2 L 595.3 -86.2 L 595.3 -86.2 Q 595.3 -82.2 593.6 -73.8 L 593.6 -73.8 L 593.6 -73.8 Q 592.7 -69.7 592.7 -68.2 L 592.7 -68.2 L 592.7 -68.2 Q 592.7 -66.7 593.6 -65.8 L 593.6 -65.8 L 593.6 -65.8 Q 594.4 -64.9 595.7 -64.8 L 595.7 -64.8 L 595.7 -64.8 Q 595.1 -62.6 592.9 -61.3 L 592.9 -61.3 L 592.9 -61.3 Q 590.6 -60 587.8 -60 Z M 603.4 -63.2 L 603.4 -63.2 L 603.4 -63.2 Q 601.9 -64.9 601.2 -67.5 L 601.2 -67.5 L 601.2 -67.5 Q 600.6 -70.1 600.6 -74.4 L 600.6 -74.4 L 600.6 -74.4 Q 600.6 -78.7 602 -82.6 L 602 -82.6 L 602 -82.6 Q 603.5 -86.5 606.2 -89.3 L 606.2 -89.3 L 606.2 -89.3 Q 611.7 -95.2 620.8 -95.2 L 620.8 -95.2 L 620.8 -95.2 Q 624.1 -95.2 626.4 -94.1 L 626.4 -94.1 L 637.4 -95.2 L 632.6 -70.3 L 632.6 -70.3 Q 632.4 -69.5 632.4 -68.1 L 632.4 -68.1 L 632.4 -68.1 Q 632.4 -66.7 633.3 -65.8 L 633.3 -65.8 L 633.3 -65.8 Q 634.2 -64.9 635.4 -64.8 L 635.4 -64.8 L 635.4 -64.8 Q 634.8 -62.6 632.5 -61.3 L 632.5 -61.3 L 632.5 -61.3 Q 630.1 -60 627.5 -60 L 627.5 -60 L 627.5 -60 Q 624.9 -60 623.1 -61 L 623.1 -61 L 623.1 -61 Q 621.4 -62 620.9 -63.7 L 620.9 -63.7 L 620.9 -63.7 Q 619.8 -62.1 617.7 -61.1 L 617.7 -61.1 L 617.7 -61.1 Q 615.5 -60 612.6 -60 L 612.6 -60 L 612.6 -60 Q 609.7 -60 607.3 -60.8 L 607.3 -60.8 L 607.3 -60.8 Q 604.9 -61.6 603.4 -63.2 Z M 616.9 -89.2 L 616.9 -89.2 L 616.9 -89.2 Q 616.2 -88.1 615.5 -86.1 L 615.5 -86.1 L 615.5 -86.1 Q 614.9 -84.2 613.8 -78.9 L 613.8 -78.9 L 613.8 -78.9 Q 612.8 -73.7 612.8 -70 L 612.8 -70 L 612.8 -70 Q 612.8 -66.3 613.4 -65.2 L 613.4 -65.2 L 613.4 -65.2 Q 613.9 -64.1 615 -64.1 L 615 -64.1 L 615 -64.1 Q 617 -64.1 618.5 -66.1 L 618.5 -66.1 L 618.5 -66.1 Q 620 -68 620.6 -71.5 L 620.6 -71.5 L 624 -90.2 L 624 -90.2 Q 622.6 -91.4 621.1 -91.4 L 621.1 -91.4 L 621.1 -91.4 Q 619.5 -91.4 618.6 -90.9 L 618.6 -90.9 L 618.6 -90.9 Q 617.7 -90.4 616.9 -89.2 Z M 645.1 -88.1 L 645.1 -88.1 L 645.1 -88.1 Q 647.3 -91.1 650.6 -93.2 L 650.6 -93.2 L 650.6 -93.2 Q 653.9 -95.2 657.9 -95.2 L 657.9 -95.2 L 657.9 -95.2 Q 661.9 -95.2 663.9 -94 L 663.9 -94 L 676.4 -95.2 L 672.1 -70.7 L 672.1 -70.7 Q 669.8 -58.1 665.1 -53.2 L 665.1 -53.2 L 665.1 -53.2 Q 660.5 -48.5 651.7 -48.5 L 651.7 -48.5 L 651.7 -48.5 Q 645 -48.5 641.1 -50.6 L 641.1 -50.6 L 641.1 -50.6 Q 637.3 -52.7 637.3 -56.3 L 637.3 -56.3 L 637.3 -56.3 Q 637.3 -58.9 639.3 -60.4 L 639.3 -60.4 L 639.3 -60.4 Q 641.3 -61.9 644.3 -61.9 L 644.3 -61.9 L 644.3 -61.9 Q 647 -61.9 649.1 -60.7 L 649.1 -60.7 L 649.1 -60.7 Q 650.3 -60 650.9 -59.1 L 650.9 -59.1 L 650.9 -59.1 Q 649.4 -57.9 649.4 -55.7 L 649.4 -55.7 L 649.4 -55.7 Q 649.4 -53 652 -53 L 652 -53 L 652 -53 Q 656.2 -53 658.7 -63.1 L 658.7 -63.1 L 658.7 -63.1 Q 659.4 -65.9 660 -68.6 L 660 -68.6 L 660 -68.6 Q 657.1 -65.1 650.6 -65.1 L 650.6 -65.1 L 650.6 -65.1 Q 646 -65.1 643.4 -67.3 L 643.4 -67.3 L 643.4 -67.3 Q 640.8 -69.4 640.8 -74.6 L 640.8 -74.6 L 640.8 -74.6 Q 640.8 -77.8 641.8 -81.4 L 641.8 -81.4 L 641.8 -81.4 Q 642.9 -85 645.1 -88.1 Z M 653.4 -74.4 L 653.4 -74.4 L 653.4 -74.4 Q 653.4 -70 655.7 -70 L 655.7 -70 L 655.7 -70 Q 657.2 -70 658.7 -71.7 L 658.7 -71.7 L 658.7 -71.7 Q 659.8 -73 660.3 -75 L 660.3 -75 L 663.5 -91.5 L 663.5 -91.5 Q 663.2 -91.5 662.9 -91.7 L 662.9 -91.7 L 662.9 -91.7 Q 662.3 -91.9 661.4 -91.9 L 661.4 -91.9 L 661.4 -91.9 Q 657.5 -91.9 655.2 -85.5 L 655.2 -85.5 L 655.2 -85.5 Q 653.4 -80.5 653.4 -74.4 Z M 704.8 -72.1 L 704.8 -72.1 L 704.8 -72.1 Q 706.4 -71 706.4 -68.6 L 706.4 -68.6 L 706.4 -68.6 Q 706.4 -66.2 705.2 -64.7 L 705.2 -64.7 L 705.2 -64.7 Q 704 -63.2 702 -62.1 L 702 -62.1 L 702 -62.1 Q 697.9 -60 693.5 -60 L 693.5 -60 L 693.5 -60 Q 689.1 -60 686.5 -61 L 686.5 -61 L 686.5 -61 Q 683.9 -62 682.2 -63.7 L 682.2 -63.7 L 682.2 -63.7 Q 678.8 -67.1 678.8 -73.3 L 678.8 -73.3 L 678.8 -73.3 Q 678.8 -83 684 -88.9 L 684 -88.9 L 684 -88.9 Q 689.7 -95.2 699.4 -95.2 L 699.4 -95.2 L 699.4 -95.2 Q 705.5 -95.2 708.5 -92.7 L 708.5 -92.7 L 708.5 -92.7 Q 710.8 -90.8 710.8 -87.6 L 710.8 -87.6 L 710.8 -87.6 Q 710.8 -76.4 691.3 -76.4 L 691.3 -76.4 L 691.3 -76.4 Q 691.1 -74.7 691.1 -73.3 L 691.1 -73.3 L 691.1 -73.3 Q 691.1 -70.3 692.4 -69.2 L 692.4 -69.2 L 692.4 -69.2 Q 693.7 -68.1 696.1 -68.1 L 696.1 -68.1 L 696.1 -68.1 Q 698.6 -68.1 701.1 -69.2 L 701.1 -69.2 L 701.1 -69.2 Q 703.7 -70.3 704.8 -72.1 Z M 691.8 -79.1 L 691.8 -79.1 L 691.8 -79.1 Q 696.3 -79.1 698.9 -81.9 L 698.9 -81.9 L 698.9 -81.9 Q 701.6 -84.6 701.6 -88.9 L 701.6 -88.9 L 701.6 -88.9 Q 701.6 -90.4 701 -91.2 L 701 -91.2 L 701 -91.2 Q 700.5 -92 699.4 -92 L 699.4 -92 L 699.4 -92 Q 698.3 -92 697.4 -91.6 L 697.4 -91.6 L 697.4 -91.6 Q 696.4 -91.1 695.5 -89.7 L 695.5 -89.7 L 695.5 -89.7 Q 693.1 -86.5 691.8 -79.1 Z M 732.1 -83.8 L 732.1 -83.8 L 732.1 -83.8 Q 733 -86.1 733 -88.2 L 733 -88.2 L 733 -88.2 Q 733 -92 729.9 -92 L 729.9 -92 L 729.9 -92 Q 728.3 -92 727 -90.5 L 727 -90.5 L 727 -90.5 Q 725.7 -89.1 725.7 -87.3 L 725.7 -87.3 L 725.7 -87.3 Q 725.7 -86 726.7 -85 L 726.7 -85 L 726.7 -85 Q 728.2 -83.6 732 -81.3 L 732 -81.3 L 732 -81.3 Q 735.7 -79 737.2 -77.1 L 737.2 -77.1 L 737.2 -77.1 Q 738.6 -75.2 738.6 -72.6 L 738.6 -72.6 L 738.6 -72.6 Q 738.6 -70 737.4 -67.7 L 737.4 -67.7 L 737.4 -67.7 Q 736.1 -65.3 733.9 -63.6 L 733.9 -63.6 L 733.9 -63.6 Q 729.1 -60 721.4 -60 L 721.4 -60 L 721.4 -60 Q 717.2 -60 714 -62.2 L 714 -62.2 L 714 -62.2 Q 710.8 -64.3 710.8 -66.8 L 710.8 -66.8 L 710.8 -66.8 Q 710.8 -69.3 712.7 -70.8 L 712.7 -70.8 L 712.7 -70.8 Q 714.5 -72.3 717.2 -72.3 L 717.2 -72.3 L 717.2 -72.3 Q 719.9 -72.3 721.5 -71.2 L 721.5 -71.2 L 721.5 -71.2 Q 720.7 -69.1 720.7 -67.7 L 720.7 -67.7 L 720.7 -67.7 Q 720.7 -63.5 724.3 -63.5 L 724.3 -63.5 L 724.3 -63.5 Q 725.8 -63.5 726.8 -64.5 L 726.8 -64.5 L 726.8 -64.5 Q 727.9 -65.4 727.9 -67.1 L 727.9 -67.1 L 727.9 -67.1 Q 727.9 -70.3 722.4 -73.8 L 722.4 -73.8 L 722.4 -73.8 Q 717.9 -76.7 716.9 -77.9 L 716.9 -77.9 L 716.9 -77.9 Q 715.1 -79.9 715.1 -82.5 L 715.1 -82.5 L 715.1 -82.5 Q 715.1 -85.1 716.3 -87.5 L 716.3 -87.5 L 716.3 -87.5 Q 717.6 -89.9 719.8 -91.7 L 719.8 -91.7 L 719.8 -91.7 Q 724.5 -95.2 732.6 -95.2 L 732.6 -95.2 L 732.6 -95.2 Q 736.8 -95.2 739.2 -93.6 L 739.2 -93.6 L 739.2 -93.6 Q 741.7 -91.9 741.7 -89.1 L 741.7 -89.1 L 741.7 -89.1 Q 741.7 -86.3 740 -84.7 L 740 -84.7 L 740 -84.7 Q 738.3 -83.1 735.2 -83.1 L 735.2 -83.1 L 735.2 -83.1 Q 733.1 -83.1 732.1 -83.8 Z M 783.2 -81.9 L 796.1 -83.1 L 796.1 -83.1 Q 791.5 -73 791.5 -61.3 L 791.5 -61.3 L 791.5 -61.3 Q 789.8 -60 787.2 -60 L 787.2 -60 L 787.2 -60 Q 784.7 -60 783.1 -61.2 L 783.1 -61.2 L 783.1 -61.2 Q 781.5 -62.4 781.2 -63.6 L 781.2 -63.6 L 781.2 -63.6 Q 779.6 -62 777 -61 L 777 -61 L 777 -61 Q 774.4 -60 771.6 -60 L 771.6 -60 L 771.6 -60 Q 768.9 -60 766.5 -60.9 L 766.5 -60.9 L 766.5 -60.9 Q 764.1 -61.8 762.2 -63.8 L 762.2 -63.8 L 762.2 -63.8 Q 758.1 -68.2 758.1 -76.4 L 758.1 -76.4 L 758.1 -76.4 Q 758.1 -89.2 765 -96.9 L 765 -96.9 L 765 -96.9 Q 772 -104.8 784.5 -104.8 L 784.5 -104.8 L 784.5 -104.8 Q 793.1 -104.8 796.2 -100.4 L 796.2 -100.4 L 796.2 -100.4 Q 797.2 -98.9 797.2 -97.3 L 797.2 -97.3 L 797.2 -97.3 Q 797.2 -95.6 796.4 -94.1 L 796.4 -94.1 L 796.4 -94.1 Q 795.7 -92.7 794.6 -91.5 L 794.6 -91.5 L 794.6 -91.5 Q 791.8 -89 788.4 -89 L 788.4 -89 L 788.4 -89 Q 787.1 -89 785.8 -89.4 L 785.8 -89.4 L 785.8 -89.4 Q 786 -91.3 786 -93.6 L 786 -93.6 L 786 -93.6 Q 786 -95.8 785.9 -96.8 L 785.9 -96.8 L 785.9 -96.8 Q 785.7 -97.9 785.3 -98.7 L 785.3 -98.7 L 785.3 -98.7 Q 784.5 -100.4 782.7 -100.4 L 782.7 -100.4 L 782.7 -100.4 Q 780.9 -100.4 778.8 -98.5 L 778.8 -98.5 L 778.8 -98.5 Q 776.8 -96.5 775.2 -93.3 L 775.2 -93.3 L 775.2 -93.3 Q 771.7 -86.1 771.7 -77.5 L 771.7 -77.5 L 771.7 -77.5 Q 771.7 -73.5 773.2 -70.7 L 773.2 -70.7 L 773.2 -70.7 Q 774.9 -67.7 777.8 -67.7 L 777.8 -67.7 L 777.8 -67.7 Q 778.9 -67.7 779.8 -68.2 L 779.8 -68.2 L 779.8 -68.2 Q 780.7 -68.7 781.1 -69.1 L 781.1 -69.1 L 783.2 -81.9 Z M 802 -63.2 L 802 -63.2 L 802 -63.2 Q 800.5 -64.9 799.8 -67.5 L 799.8 -67.5 L 799.8 -67.5 Q 799.2 -70.1 799.2 -74.4 L 799.2 -74.4 L 799.2 -74.4 Q 799.2 -78.7 800.6 -82.6 L 800.6 -82.6 L 800.6 -82.6 Q 802.1 -86.5 804.8 -89.3 L 804.8 -89.3 L 804.8 -89.3 Q 810.3 -95.2 819.4 -95.2 L 819.4 -95.2 L 819.4 -95.2 Q 822.6 -95.2 825 -94.1 L 825 -94.1 L 836 -95.2 L 831.2 -70.3 L 831.2 -70.3 Q 831 -69.5 831 -68.1 L 831 -68.1 L 831 -68.1 Q 831 -66.7 831.9 -65.8 L 831.9 -65.8 L 831.9 -65.8 Q 832.8 -64.9 834 -64.8 L 834 -64.8 L 834 -64.8 Q 833.4 -62.6 831.1 -61.3 L 831.1 -61.3 L 831.1 -61.3 Q 828.7 -60 826.1 -60 L 826.1 -60 L 826.1 -60 Q 823.5 -60 821.7 -61 L 821.7 -61 L 821.7 -61 Q 820 -62 819.4 -63.7 L 819.4 -63.7 L 819.4 -63.7 Q 818.4 -62.1 816.2 -61.1 L 816.2 -61.1 L 816.2 -61.1 Q 814.1 -60 811.2 -60 L 811.2 -60 L 811.2 -60 Q 808.2 -60 805.9 -60.8 L 805.9 -60.8 L 805.9 -60.8 Q 803.5 -61.6 802 -63.2 Z M 815.5 -89.2 L 815.5 -89.2 L 815.5 -89.2 Q 814.8 -88.1 814.1 -86.1 L 814.1 -86.1 L 814.1 -86.1 Q 813.5 -84.2 812.4 -78.9 L 812.4 -78.9 L 812.4 -78.9 Q 811.4 -73.7 811.4 -70 L 811.4 -70 L 811.4 -70 Q 811.4 -66.3 812 -65.2 L 812 -65.2 L 812 -65.2 Q 812.5 -64.1 813.6 -64.1 L 813.6 -64.1 L 813.6 -64.1 Q 815.6 -64.1 817.1 -66.1 L 817.1 -66.1 L 817.1 -66.1 Q 818.6 -68 819.2 -71.5 L 819.2 -71.5 L 822.6 -90.2 L 822.6 -90.2 Q 821.2 -91.4 819.7 -91.4 L 819.7 -91.4 L 819.7 -91.4 Q 818.1 -91.4 817.2 -90.9 L 817.2 -90.9 L 817.2 -90.9 Q 816.2 -90.4 815.5 -89.2 Z M 854.7 -64.8 L 854.7 -64.8 L 854.7 -64.8 Q 852.7 -60 846.4 -60 L 846.4 -60 L 846.4 -60 Q 843.2 -60 841.1 -62.3 L 841.1 -62.3 L 841.1 -62.3 Q 839.5 -64.1 839.5 -66.2 L 839.5 -66.2 L 839.5 -66.2 Q 839.5 -71 841.7 -81.5 L 841.7 -81.5 L 846.4 -106.1 L 859.4 -107.4 L 853.2 -75 L 853.2 -75 Q 852.1 -70.3 852.1 -68.6 L 852.1 -68.6 L 852.1 -68.6 Q 852.1 -65 854.7 -64.8 Z M 875.4 -64.8 L 875.4 -64.8 L 875.4 -64.8 Q 873.5 -60 867.1 -60 L 867.1 -60 L 867.1 -60 Q 863.9 -60 861.9 -62.3 L 861.9 -62.3 L 861.9 -62.3 Q 860.2 -64.1 860.2 -66.2 L 860.2 -66.2 L 860.2 -66.2 Q 860.2 -71 862.5 -81.5 L 862.5 -81.5 L 867.1 -106.1 L 880.1 -107.4 L 873.9 -75 L 873.9 -75 Q 872.8 -70.3 872.8 -68.6 L 872.8 -68.6 L 872.8 -68.6 Q 872.8 -65 875.4 -64.8 Z M 906.8 -72.1 L 906.8 -72.1 L 906.8 -72.1 Q 908.4 -71 908.4 -68.6 L 908.4 -68.6 L 908.4 -68.6 Q 908.4 -66.2 907.2 -64.7 L 907.2 -64.7 L 907.2 -64.7 Q 906 -63.2 904 -62.1 L 904 -62.1 L 904 -62.1 Q 899.9 -60 895.5 -60 L 895.5 -60 L 895.5 -60 Q 891.1 -60 888.5 -61 L 888.5 -61 L 888.5 -61 Q 885.9 -62 884.2 -63.7 L 884.2 -63.7 L 884.2 -63.7 Q 880.8 -67.1 880.8 -73.3 L 880.8 -73.3 L 880.8 -73.3 Q 880.8 -83 886 -88.9 L 886 -88.9 L 886 -88.9 Q 891.6 -95.2 901.4 -95.2 L 901.4 -95.2 L 901.4 -95.2 Q 907.5 -95.2 910.5 -92.7 L 910.5 -92.7 L 910.5 -92.7 Q 912.8 -90.8 912.8 -87.6 L 912.8 -87.6 L 912.8 -87.6 Q 912.8 -76.4 893.3 -76.4 L 893.3 -76.4 L 893.3 -76.4 Q 893 -74.7 893 -73.3 L 893 -73.3 L 893 -73.3 Q 893 -70.3 894.4 -69.2 L 894.4 -69.2 L 894.4 -69.2 Q 895.7 -68.1 898.1 -68.1 L 898.1 -68.1 L 898.1 -68.1 Q 900.5 -68.1 903.1 -69.2 L 903.1 -69.2 L 903.1 -69.2 Q 905.7 -70.3 906.8 -72.1 Z M 893.8 -79.1 L 893.8 -79.1 L 893.8 -79.1 Q 898.3 -79.1 900.9 -81.9 L 900.9 -81.9 L 900.9 -81.9 Q 903.5 -84.6 903.5 -88.9 L 903.5 -88.9 L 903.5 -88.9 Q 903.5 -90.4 903 -91.2 L 903 -91.2 L 903 -91.2 Q 902.5 -92 901.4 -92 L 901.4 -92 L 901.4 -92 Q 900.3 -92 899.4 -91.6 L 899.4 -91.6 L 899.4 -91.6 Q 898.4 -91.1 897.5 -89.7 L 897.5 -89.7 L 897.5 -89.7 Q 895.1 -86.5 893.8 -79.1 Z M 935 -79.3 L 935 -79.3 L 935 -79.3 Q 937.3 -83.4 937.3 -87.6 L 937.3 -87.6 L 937.3 -87.6 Q 937.3 -90.3 935.3 -90.3 L 935.3 -90.3 L 935.3 -90.3 Q 933.8 -90.3 932.2 -87.7 L 932.2 -87.7 L 932.2 -87.7 Q 930.5 -85.1 930 -81.7 L 930 -81.7 L 926.6 -61.3 L 913.4 -60 L 919.9 -94 L 930.5 -95.2 L 929.3 -88.8 L 929.3 -88.8 Q 932.5 -95.2 939.5 -95.2 L 939.5 -95.2 L 939.5 -95.2 Q 943.2 -95.2 945.2 -93.3 L 945.2 -93.3 L 945.2 -93.3 Q 947.3 -91.4 947.3 -87.5 L 947.3 -87.5 L 947.3 -87.5 Q 947.3 -83.5 944.7 -81 L 944.7 -81 L 944.7 -81 Q 942.1 -78.5 937.7 -78.5 L 937.7 -78.5 L 937.7 -78.5 Q 935.7 -78.5 935 -79.3 Z M 968.6 -68.5 L 968.6 -68.5 L 968.6 -68.5 Q 965.3 -65.1 959.2 -65.1 L 959.2 -65.1 L 959.2 -65.1 Q 951.6 -65.1 950 -70.7 L 950 -70.7 L 950 -70.7 Q 949.5 -72.3 949.5 -74.2 L 949.5 -74.2 L 949.5 -74.2 Q 949.5 -76 949.9 -78 L 949.9 -78 L 952.9 -94 L 965.9 -95.2 L 962.4 -76.6 L 962.4 -76.6 Q 962.2 -75.8 962 -74.9 L 962 -74.9 L 962 -74.9 Q 961.8 -74 961.8 -73.1 L 961.8 -73.1 L 961.8 -73.1 Q 961.8 -72.1 962.2 -71.5 L 962.2 -71.5 L 962.2 -71.5 Q 962.5 -70.9 962.9 -70.5 L 962.9 -70.5 L 962.9 -70.5 Q 963.7 -70 965.1 -70 L 965.1 -70 L 965.1 -70 Q 966.5 -70 967.6 -71.7 L 967.6 -71.7 L 967.6 -71.7 Q 968.8 -73.3 969.4 -76.2 L 969.4 -76.2 L 972.9 -94 L 985.5 -95.2 L 980.7 -70.1 L 980.7 -70.1 Q 978.4 -57.8 973.5 -52.9 L 973.5 -52.9 L 973.5 -52.9 Q 971 -50.4 967.8 -49.4 L 967.8 -49.4 L 967.8 -49.4 Q 964.5 -48.5 960.4 -48.5 L 960.4 -48.5 L 960.4 -48.5 Q 953.7 -48.5 949.8 -50.6 L 949.8 -50.6 L 949.8 -50.6 Q 946 -52.7 946 -56.2 L 946 -56.2 L 946 -56.2 Q 946 -58.8 948 -60.3 L 948 -60.3 L 948 -60.3 Q 949.9 -61.8 953 -61.8 L 953 -61.8 L 953 -61.8 Q 955.7 -61.8 957.8 -60.7 L 957.8 -60.7 L 957.8 -60.7 Q 959 -60 959.5 -59.1 L 959.5 -59.1 L 959.5 -59.1 Q 958.1 -57.8 958.1 -55.7 L 958.1 -55.7 L 958.1 -55.7 Q 958.1 -52.9 960.6 -52.9 L 960.6 -52.9 L 960.6 -52.9 Q 964.9 -52.9 967.3 -62.6 L 967.3 -62.6 L 967.3 -62.6 Q 968 -65.5 968.6 -68.5 Z" fill="url(#editing-shiny-gradient2)"></path></g></g><style>text {
  font-size: 64px;
  font-family: Arial Black;
  dominant-baseline: central;
  text-anchor: middle;
}</style></svg>