<svg width="1299.1px" height="121.6px" xmlns="http://www.w3.org/2000/svg" viewBox="-399.54374999999993 14.199996948242188 1299.0874999999999 121.60000610351562" style="background: rgba(0, 0, 0, 0)" preserveAspectRatio="xMidYMid"><defs><linearGradient id="editing-shiny-gradient" x1="0.04322727117869957" x2="0.9567727288213004" y1="0.2966316784620999" y2="0.7033683215379001" gradientUnits="objectBoundingBox"><stop offset="0" stop-color="#ffb200"></stop><stop offset="0.5" stop-color="#e10057"></stop><stop offset="1" stop-color="#5a1a80"></stop></linearGradient><linearGradient id="editing-shiny-gradient2" x1="0" x2="0" y1="0" y2="1"><stop offset="0.2" stop-color="#ffffff" stop-opacity="0.8"></stop><stop offset="0.8" stop-color="#ffffff" stop-opacity="0"></stop></linearGradient><filter id="editing-shiny2" x="-100%" y="-100%" width="300%" height="300%"><feMorphology operator="erode" radius="2"></feMorphology></filter><filter id="editing-shiny" x="-100%" y="-100%" width="300%" height="300%"><feFlood flood-color="#fff" result="flood"></feFlood><feConvolveMatrix in="SourceGraphic" result="conv" order="8,8" divisor="1" kernelMatrix="0 0 0 0 0 0 0 0 0 0 0 1 1 0 0 0 0 0 0 1 1 0 0 0 0 0 1 0 0 1 0 0 0 0 1 0 0 1 0 0 0 1 0 0 0 0 1 0 0 1 1 0 0 1 1 0 0 0 0 1 1 0 0 0 "></feConvolveMatrix><feOffset dx="0" dy="4" in="conv" result="offset"></feOffset><feComposite operator="in" in="flood" in2="offset" result="comp"></feComposite><feGaussianBlur in="offset" stdDeviation="3" result="shadow"></feGaussianBlur><feColorMatrix in="shadow" type="matrix" values="0.7 0 0 0 0  0 0.7 0 0 0  0 0 0.7 0 0  0 0 0 0.3 0" result="dark-shadow"></feColorMatrix><feOffset dx="0" dy="4" in="dark-shadow" result="offset-shadow"></feOffset><feOffset dx="0" dy="2" in="conv" result="offset-2"></feOffset><feComposite operator="out" in="offset" in2="offset-2" result="edge-diff"></feComposite><feGaussianBlur in="edge-diff" stdDeviation="1" result="edge-blur"></feGaussianBlur><feColorMatrix in="edge-blur" result="edge-shadow" type="matrix" values="0 0 0 0 0  0 0 0 0 0  0 0 0 0 0  0 0 0 0.5 0"></feColorMatrix><feComposite operator="in" in="edge-shadow" in2="offset" result="edge-shadow-in"></feComposite><feOffset dx="0" dy="1" in="edge-shadow-in" result="edge-shadow-final"></feOffset><feMerge result="out"><feMergeNode in="offset-shadow"></feMergeNode><feMergeNode in="comp"></feMergeNode><feMergeNode in="edge-shadow-final"></feMergeNode><feMergeNode in="SourceGraphic"></feMergeNode></feMerge></filter></defs><g filter="url(#editing-shiny)"><g transform="translate(-219.2,104.8)"><path d="M 6.5 0 L -0.8 0 L 10.8 -42.2 L 24.1 -42.2 L 27.1 -18.1 L 39 -42.2 L 50.2 -42.2 L 51.3 -10.6 L 51.3 -10.6 Q 51.6 -4.3 54.7 -2.4 L 54.7 -2.4 L 54.7 -2.4 Q 54 -1.1 51.9 0.1 L 51.9 0.1 L 51.9 0.1 Q 49.9 1.3 47.1 1.3 L 47.1 1.3 L 47.1 1.3 Q 44.4 1.3 42.8 0.5 L 42.8 0.5 L 42.8 0.5 Q 41.2 -0.3 40.3 -1.5 L 40.3 -1.5 L 40.3 -1.5 Q 38.7 -3.8 38.7 -8.3 L 38.7 -8.3 L 38.7 -28 L 26.1 0 L 18.2 0 L 13.7 -28.7 L 6.5 0 Z M 60.2 -1.9 L 60.2 -1.9 L 60.2 -1.9 Q 58.7 -3.6 58 -6.2 L 58 -6.2 L 58 -6.2 Q 57.3 -8.8 57.3 -13.1 L 57.3 -13.1 L 57.3 -13.1 Q 57.3 -17.4 58.8 -21.3 L 58.8 -21.3 L 58.8 -21.3 Q 60.3 -25.2 63 -28 L 63 -28 L 63 -28 Q 68.5 -33.9 77.6 -33.9 L 77.6 -33.9 L 77.6 -33.9 Q 80.8 -33.9 83.2 -32.8 L 83.2 -32.8 L 94.1 -33.9 L 89.4 -9 L 89.4 -9 Q 89.2 -8.2 89.2 -6.8 L 89.2 -6.8 L 89.2 -6.8 Q 89.2 -5.4 90.1 -4.5 L 90.1 -4.5 L 90.1 -4.5 Q 90.9 -3.6 92.2 -3.5 L 92.2 -3.5 L 92.2 -3.5 Q 91.6 -1.3 89.3 0 L 89.3 0 L 89.3 0 Q 86.9 1.3 84.3 1.3 L 84.3 1.3 L 84.3 1.3 Q 81.7 1.3 79.9 0.3 L 79.9 0.3 L 79.9 0.3 Q 78.1 -0.7 77.6 -2.4 L 77.6 -2.4 L 77.6 -2.4 Q 76.6 -0.8 74.4 0.3 L 74.4 0.3 L 74.4 0.3 Q 72.3 1.3 69.3 1.3 L 69.3 1.3 L 69.3 1.3 Q 66.4 1.3 64.1 0.5 L 64.1 0.5 L 64.1 0.5 Q 61.7 -0.3 60.2 -1.9 Z M 73.7 -27.9 L 73.7 -27.9 L 73.7 -27.9 Q 73 -26.8 72.3 -24.8 L 72.3 -24.8 L 72.3 -24.8 Q 71.7 -22.9 70.6 -17.6 L 70.6 -17.6 L 70.6 -17.6 Q 69.6 -12.4 69.6 -8.7 L 69.6 -8.7 L 69.6 -8.7 Q 69.6 -5 70.1 -3.9 L 70.1 -3.9 L 70.1 -3.9 Q 70.7 -2.8 71.7 -2.8 L 71.7 -2.8 L 71.7 -2.8 Q 73.8 -2.8 75.3 -4.8 L 75.3 -4.8 L 75.3 -4.8 Q 76.8 -6.7 77.4 -10.2 L 77.4 -10.2 L 80.8 -28.9 L 80.8 -28.9 Q 79.4 -30.1 77.9 -30.1 L 77.9 -30.1 L 77.9 -30.1 Q 76.3 -30.1 75.4 -29.6 L 75.4 -29.6 L 75.4 -29.6 Q 74.4 -29.1 73.7 -27.9 Z M 114.1 -30.3 L 114.1 -30.3 L 114.1 -30.3 Q 117.6 -33.9 124.9 -33.9 L 124.9 -33.9 L 124.9 -33.9 Q 128.9 -33.9 131.1 -31.8 L 131.1 -31.8 L 131.1 -31.8 Q 133.3 -29.6 133.3 -25.7 L 133.3 -25.7 L 133.3 -25.7 Q 133.3 -21.8 131.1 -19 L 131.1 -19 L 131.1 -19 Q 128.9 -16.2 124.8 -15 L 124.8 -15 L 124.8 -15 Q 125.1 -13.8 125.6 -12.4 L 125.6 -12.4 L 126.5 -9.9 L 126.5 -9.9 Q 127.7 -6.6 128.6 -5.4 L 128.6 -5.4 L 128.6 -5.4 Q 129.6 -4.3 130.9 -3.9 L 130.9 -3.9 L 130.9 -3.9 Q 130.2 -1.3 127.6 0.1 L 127.6 0.1 L 127.6 0.1 Q 125.6 1.3 122.8 1.3 L 122.8 1.3 L 122.8 1.3 Q 114.5 1.3 113.4 -11.5 L 113.4 -11.5 L 113.4 -11.5 Q 113.2 -13.3 113.2 -15 L 113.2 -15 L 113.2 -15 Q 116.4 -15.9 118.7 -18.9 L 118.7 -18.9 L 118.7 -18.9 Q 120.9 -21.9 120.9 -25.5 L 120.9 -25.5 L 120.9 -25.5 Q 120.9 -29 118.4 -29 L 118.4 -29 L 118.4 -29 Q 116.6 -29 115.2 -27 L 115.2 -27 L 115.2 -27 Q 113.8 -25 113.2 -21.6 L 113.2 -21.6 L 108.9 0 L 96 1.3 L 105 -44.8 L 117.8 -46.1 L 116.3 -38.5 L 116.3 -38.5 Q 115.4 -33.1 114.1 -30.3 Z M 155.4 -22.5 L 155.4 -22.5 L 155.4 -22.5 Q 156.3 -24.8 156.3 -26.9 L 156.3 -26.9 L 156.3 -26.9 Q 156.3 -30.7 153.2 -30.7 L 153.2 -30.7 L 153.2 -30.7 Q 151.6 -30.7 150.3 -29.2 L 150.3 -29.2 L 150.3 -29.2 Q 149 -27.8 149 -26 L 149 -26 L 149 -26 Q 149 -24.7 150 -23.7 L 150 -23.7 L 150 -23.7 Q 151.5 -22.3 155.3 -20 L 155.3 -20 L 155.3 -20 Q 159 -17.7 160.5 -15.8 L 160.5 -15.8 L 160.5 -15.8 Q 161.9 -13.9 161.9 -11.3 L 161.9 -11.3 L 161.9 -11.3 Q 161.9 -8.7 160.7 -6.3 L 160.7 -6.3 L 160.7 -6.3 Q 159.4 -4 157.2 -2.3 L 157.2 -2.3 L 157.2 -2.3 Q 152.4 1.3 144.7 1.3 L 144.7 1.3 L 144.7 1.3 Q 140.5 1.3 137.3 -0.9 L 137.3 -0.9 L 137.3 -0.9 Q 134.1 -3 134.1 -5.5 L 134.1 -5.5 L 134.1 -5.5 Q 134.1 -8 136 -9.5 L 136 -9.5 L 136 -9.5 Q 137.8 -10.9 140.5 -10.9 L 140.5 -10.9 L 140.5 -10.9 Q 143.2 -10.9 144.8 -9.9 L 144.8 -9.9 L 144.8 -9.9 Q 144 -7.8 144 -6.4 L 144 -6.4 L 144 -6.4 Q 144 -2.2 147.6 -2.2 L 147.6 -2.2 L 147.6 -2.2 Q 149.1 -2.2 150.1 -3.1 L 150.1 -3.1 L 150.1 -3.1 Q 151.2 -4.1 151.2 -5.8 L 151.2 -5.8 L 151.2 -5.8 Q 151.2 -9 145.7 -12.5 L 145.7 -12.5 L 145.7 -12.5 Q 141.2 -15.4 140.2 -16.6 L 140.2 -16.6 L 140.2 -16.6 Q 138.4 -18.6 138.4 -21.2 L 138.4 -21.2 L 138.4 -21.2 Q 138.4 -23.7 139.7 -26.2 L 139.7 -26.2 L 139.7 -26.2 Q 140.9 -28.6 143.1 -30.3 L 143.1 -30.3 L 143.1 -30.3 Q 147.8 -33.9 155.9 -33.9 L 155.9 -33.9 L 155.9 -33.9 Q 160.1 -33.9 162.5 -32.3 L 162.5 -32.3 L 162.5 -32.3 Q 165 -30.6 165 -27.8 L 165 -27.8 L 165 -27.8 Q 165 -25 163.3 -23.4 L 163.3 -23.4 L 163.3 -23.4 Q 161.6 -21.8 158.5 -21.8 L 158.5 -21.8 L 158.5 -21.8 Q 156.4 -21.8 155.4 -22.5 Z M 194.1 -9.9 L 194.1 -9.9 L 194.1 -9.9 Q 195.3 -8.3 195.3 -5.3 L 195.3 -5.3 L 195.3 -5.3 Q 195.3 -2.4 193.1 -0.5 L 193.1 -0.5 L 193.1 -0.5 Q 190.8 1.3 186.8 1.3 L 186.8 1.3 L 186.8 1.3 Q 184.5 1.3 180.9 0.8 L 180.9 0.8 L 180.9 0.8 Q 173.9 -0.3 171.9 -0.3 L 171.9 -0.3 L 171.9 -0.3 Q 169.9 -0.3 169 -0.2 L 169 -0.2 L 169 -0.2 Q 168.2 -0.1 166.8 0 L 166.8 0 L 174.6 -42.2 L 188.6 -42.2 L 182.2 -7 L 182.2 -7 Q 183 -6.9 183.8 -6.9 L 183.8 -6.9 L 185.4 -6.9 L 185.4 -6.9 Q 190.8 -6.9 194.1 -9.9 Z M 225.5 -10.8 L 225.5 -10.8 L 225.5 -10.8 Q 227.1 -9.7 227.1 -7.3 L 227.1 -7.3 L 227.1 -7.3 Q 227.1 -4.9 225.9 -3.4 L 225.9 -3.4 L 225.9 -3.4 Q 224.7 -1.9 222.7 -0.8 L 222.7 -0.8 L 222.7 -0.8 Q 218.6 1.3 214.2 1.3 L 214.2 1.3 L 214.2 1.3 Q 209.8 1.3 207.2 0.3 L 207.2 0.3 L 207.2 0.3 Q 204.6 -0.6 202.9 -2.4 L 202.9 -2.4 L 202.9 -2.4 Q 199.5 -5.8 199.5 -12 L 199.5 -12 L 199.5 -12 Q 199.5 -21.7 204.7 -27.6 L 204.7 -27.6 L 204.7 -27.6 Q 210.4 -33.9 220.2 -33.9 L 220.2 -33.9 L 220.2 -33.9 Q 226.2 -33.9 229.3 -31.4 L 229.3 -31.4 L 229.3 -31.4 Q 231.5 -29.4 231.5 -26.3 L 231.5 -26.3 L 231.5 -26.3 Q 231.5 -15 212 -15 L 212 -15 L 212 -15 Q 211.8 -13.4 211.8 -12 L 211.8 -12 L 211.8 -12 Q 211.8 -9 213.1 -7.9 L 213.1 -7.9 L 213.1 -7.9 Q 214.4 -6.8 216.8 -6.8 L 216.8 -6.8 L 216.8 -6.8 Q 219.3 -6.8 221.9 -7.9 L 221.9 -7.9 L 221.9 -7.9 Q 224.4 -9 225.5 -10.8 Z M 212.5 -17.8 L 212.5 -17.8 L 212.5 -17.8 Q 217 -17.8 219.7 -20.6 L 219.7 -20.6 L 219.7 -20.6 Q 222.3 -23.3 222.3 -27.6 L 222.3 -27.6 L 222.3 -27.6 Q 222.3 -29.1 221.7 -29.9 L 221.7 -29.9 L 221.7 -29.9 Q 221.2 -30.7 220.1 -30.7 L 220.1 -30.7 L 220.1 -30.7 Q 219 -30.7 218.1 -30.2 L 218.1 -30.2 L 218.1 -30.2 Q 217.2 -29.8 216.2 -28.4 L 216.2 -28.4 L 216.2 -28.4 Q 213.8 -25.2 212.5 -17.8 Z M 256.9 -31.6 L 256.9 -31.6 L 256.9 -31.6 Q 259 -33.9 262.7 -33.9 L 262.7 -33.9 L 262.7 -33.9 Q 264.9 -33.9 266.6 -32.7 L 266.6 -32.7 L 266.6 -32.7 Q 268.4 -31.5 268.4 -29.2 L 268.4 -29.2 L 268.4 -29.2 Q 268.4 -26.9 267.6 -24.5 L 267.6 -24.5 L 267.6 -24.5 Q 266.9 -22.1 265.9 -19.6 L 265.9 -19.6 L 265.9 -19.6 Q 263.7 -14.7 260.7 -10.7 L 260.7 -10.7 L 260.7 -10.7 Q 256.4 -4.9 252.4 -1.8 L 252.4 -1.8 L 252.4 -1.8 Q 248.3 1.3 243.9 1.3 L 243.9 1.3 L 243.9 1.3 Q 240.3 1.3 238.1 0.5 L 238.1 0.5 L 238.1 0.5 Q 237.8 -13 237.3 -17.8 L 237.3 -17.8 L 237.3 -17.8 Q 236.8 -22.6 236.4 -25.2 L 236.4 -25.2 L 236.4 -25.2 Q 235.8 -30.3 233.9 -31.6 L 233.9 -31.6 L 233.9 -31.6 Q 235.3 -32.8 236.8 -33.4 L 236.8 -33.4 L 236.8 -33.4 Q 238.2 -33.9 241.2 -33.9 L 241.2 -33.9 L 241.2 -33.9 Q 244.2 -33.9 246.3 -31.6 L 246.3 -31.6 L 246.3 -31.6 Q 248.4 -29.3 248.8 -25.1 L 248.8 -25.1 L 248.8 -25.1 Q 249.2 -21 249.2 -16 L 249.2 -16 L 249.2 -16 Q 249.2 -11 248.8 -5 L 248.8 -5 L 248.8 -5 Q 250.8 -6.4 252.9 -10.7 L 252.9 -10.7 L 252.9 -10.7 Q 255.8 -16.6 256.8 -23.8 L 256.8 -23.8 L 256.8 -23.8 Q 257.1 -26 257.1 -28.3 L 257.1 -28.3 L 257.1 -28.3 Q 257.1 -30.6 256.9 -31.6 Z M 280 -29.5 L 273.2 -29.5 L 273.2 -29.5 Q 275.6 -37.7 275.7 -46.3 L 275.7 -46.3 L 277.6 -46.6 L 277.6 -46.6 Q 278.5 -46.7 279.2 -46.7 L 279.2 -46.7 L 279.2 -46.7 Q 282.1 -46.7 283.6 -45.3 L 283.6 -45.3 L 283.6 -45.3 Q 285.1 -44 285.1 -41.5 L 285.1 -41.5 L 285.1 -41.5 Q 285.1 -39 284 -36.2 L 284 -36.2 L 284 -36.2 Q 281.9 -31.2 280 -29.5 L 280 -29.5 Z M 303.5 -22.5 L 303.5 -22.5 L 303.5 -22.5 Q 304.4 -24.8 304.4 -26.9 L 304.4 -26.9 L 304.4 -26.9 Q 304.4 -30.7 301.3 -30.7 L 301.3 -30.7 L 301.3 -30.7 Q 299.7 -30.7 298.4 -29.2 L 298.4 -29.2 L 298.4 -29.2 Q 297.1 -27.8 297.1 -26 L 297.1 -26 L 297.1 -26 Q 297.1 -24.7 298.1 -23.7 L 298.1 -23.7 L 298.1 -23.7 Q 299.6 -22.3 303.4 -20 L 303.4 -20 L 303.4 -20 Q 307.1 -17.7 308.6 -15.8 L 308.6 -15.8 L 308.6 -15.8 Q 310 -13.9 310 -11.3 L 310 -11.3 L 310 -11.3 Q 310 -8.7 308.8 -6.3 L 308.8 -6.3 L 308.8 -6.3 Q 307.5 -4 305.3 -2.3 L 305.3 -2.3 L 305.3 -2.3 Q 300.5 1.3 292.8 1.3 L 292.8 1.3 L 292.8 1.3 Q 288.6 1.3 285.4 -0.9 L 285.4 -0.9 L 285.4 -0.9 Q 282.2 -3 282.2 -5.5 L 282.2 -5.5 L 282.2 -5.5 Q 282.2 -8 284.1 -9.5 L 284.1 -9.5 L 284.1 -9.5 Q 285.9 -10.9 288.6 -10.9 L 288.6 -10.9 L 288.6 -10.9 Q 291.3 -10.9 292.9 -9.9 L 292.9 -9.9 L 292.9 -9.9 Q 292.1 -7.8 292.1 -6.4 L 292.1 -6.4 L 292.1 -6.4 Q 292.1 -2.2 295.7 -2.2 L 295.7 -2.2 L 295.7 -2.2 Q 297.2 -2.2 298.2 -3.1 L 298.2 -3.1 L 298.2 -3.1 Q 299.3 -4.1 299.3 -5.8 L 299.3 -5.8 L 299.3 -5.8 Q 299.3 -9 293.8 -12.5 L 293.8 -12.5 L 293.8 -12.5 Q 289.3 -15.4 288.3 -16.6 L 288.3 -16.6 L 288.3 -16.6 Q 286.5 -18.6 286.5 -21.2 L 286.5 -21.2 L 286.5 -21.2 Q 286.5 -23.7 287.7 -26.2 L 287.7 -26.2 L 287.7 -26.2 Q 289 -28.6 291.2 -30.3 L 291.2 -30.3 L 291.2 -30.3 Q 295.9 -33.9 304 -33.9 L 304 -33.9 L 304 -33.9 Q 308.2 -33.9 310.6 -32.3 L 310.6 -32.3 L 310.6 -32.3 Q 313.1 -30.6 313.1 -27.8 L 313.1 -27.8 L 313.1 -27.8 Q 313.1 -25 311.4 -23.4 L 311.4 -23.4 L 311.4 -23.4 Q 309.7 -21.8 306.6 -21.8 L 306.6 -21.8 L 306.6 -21.8 Q 304.5 -21.8 303.5 -22.5 Z M 360.1 -26.6 L 360.1 -26.6 L 360.1 -26.6 Q 360.1 -23.9 357.8 -22.3 L 357.8 -22.3 L 357.8 -22.3 Q 355.6 -20.6 351.9 -20.6 L 351.9 -20.6 L 351.9 -20.6 Q 350.4 -20.6 349.5 -21.1 L 349.5 -21.1 L 349.5 -21.1 Q 350.2 -22.7 350.4 -24.8 L 350.4 -24.8 L 350.4 -24.8 Q 350.7 -26.9 350.7 -27.5 L 350.7 -27.5 L 350.7 -27.5 Q 350.7 -30.1 348.8 -30.1 L 348.8 -30.1 L 348.8 -30.1 Q 347.5 -30.1 346.1 -28.5 L 346.1 -28.5 L 346.1 -28.5 Q 344.6 -26.9 343.4 -24.4 L 343.4 -24.4 L 343.4 -24.4 Q 340.7 -18.7 340.7 -12.9 L 340.7 -12.9 L 340.7 -12.9 Q 340.7 -9.7 341.9 -8.2 L 341.9 -8.2 L 341.9 -8.2 Q 343.2 -6.8 345.9 -6.8 L 345.9 -6.8 L 345.9 -6.8 Q 349.6 -6.8 352.5 -9.9 L 352.5 -9.9 L 352.5 -9.9 Q 353.3 -10.8 353.8 -11.9 L 353.8 -11.9 L 353.8 -11.9 Q 356.2 -10.6 356.2 -7.1 L 356.2 -7.1 L 356.2 -7.1 Q 356.2 -3.5 352.3 -1.1 L 352.3 -1.1 L 352.3 -1.1 Q 348.2 1.3 341.6 1.3 L 341.6 1.3 L 341.6 1.3 Q 328.6 1.3 328.6 -12.5 L 328.6 -12.5 L 328.6 -12.5 Q 328.6 -22.5 334.3 -28.3 L 334.3 -28.3 L 334.3 -28.3 Q 339.8 -33.9 349.9 -33.9 L 349.9 -33.9 L 349.9 -33.9 Q 360.1 -33.9 360.1 -26.6 Z M 375.7 1.3 L 375.7 1.3 L 375.7 1.3 Q 361.7 1.3 361.7 -12 L 361.7 -12 L 361.7 -12 Q 361.7 -21.4 366.9 -27.5 L 366.9 -27.5 L 366.9 -27.5 Q 372.4 -33.9 381.9 -33.9 L 381.9 -33.9 L 381.9 -33.9 Q 388.8 -33.9 392.3 -30.7 L 392.3 -30.7 L 392.3 -30.7 Q 395.8 -27.5 395.8 -20.8 L 395.8 -20.8 L 395.8 -20.8 Q 395.8 -10.6 390.3 -4.6 L 390.3 -4.6 L 390.3 -4.6 Q 385 1.3 375.7 1.3 Z M 377.4 -26.6 L 377.4 -26.6 L 377.4 -26.6 Q 376.6 -24.8 376 -22.2 L 376 -22.2 L 376 -22.2 Q 375.4 -19.6 374.7 -15.6 L 374.7 -15.6 L 374.7 -15.6 Q 373.9 -11.5 373.9 -6.4 L 373.9 -6.4 L 373.9 -6.4 Q 373.9 -4.7 374.4 -3.6 L 374.4 -3.6 L 374.4 -3.6 Q 375 -2.6 376.4 -2.6 L 376.4 -2.6 L 376.4 -2.6 Q 377.9 -2.6 378.9 -3.3 L 378.9 -3.3 L 378.9 -3.3 Q 379.8 -4 380.5 -5.6 L 380.5 -5.6 L 380.5 -5.6 Q 381.8 -8.6 382.8 -14.1 L 382.8 -14.1 L 382.8 -14.1 Q 383.8 -19.5 383.9 -21.9 L 383.9 -21.9 L 383.9 -21.9 Q 384 -24.3 384 -26 L 384 -26 L 384 -26 Q 384 -27.8 383.5 -28.9 L 383.5 -28.9 L 383.5 -28.9 Q 383 -30.1 381.5 -30.1 L 381.5 -30.1 L 381.5 -30.1 Q 380.1 -30.1 379.1 -29.2 L 379.1 -29.2 L 379.1 -29.2 Q 378.2 -28.3 377.4 -26.6 Z M 413.6 1.3 L 413.6 1.3 L 413.6 1.3 Q 399.5 1.3 399.5 -12 L 399.5 -12 L 399.5 -12 Q 399.5 -21.4 404.7 -27.5 L 404.7 -27.5 L 404.7 -27.5 Q 410.2 -33.9 419.7 -33.9 L 419.7 -33.9 L 419.7 -33.9 Q 426.6 -33.9 430.1 -30.7 L 430.1 -30.7 L 430.1 -30.7 Q 433.7 -27.5 433.7 -20.8 L 433.7 -20.8 L 433.7 -20.8 Q 433.7 -10.6 428.2 -4.6 L 428.2 -4.6 L 428.2 -4.6 Q 422.8 1.3 413.6 1.3 Z M 415.2 -26.6 L 415.2 -26.6 L 415.2 -26.6 Q 414.5 -24.8 413.9 -22.2 L 413.9 -22.2 L 413.9 -22.2 Q 413.3 -19.6 412.5 -15.6 L 412.5 -15.6 L 412.5 -15.6 Q 411.7 -11.5 411.7 -6.4 L 411.7 -6.4 L 411.7 -6.4 Q 411.7 -4.7 412.3 -3.6 L 412.3 -3.6 L 412.3 -3.6 Q 412.8 -2.6 414.3 -2.6 L 414.3 -2.6 L 414.3 -2.6 Q 415.7 -2.6 416.7 -3.3 L 416.7 -3.3 L 416.7 -3.3 Q 417.6 -4 418.3 -5.6 L 418.3 -5.6 L 418.3 -5.6 Q 419.6 -8.6 420.6 -14.1 L 420.6 -14.1 L 420.6 -14.1 Q 421.6 -19.5 421.7 -21.9 L 421.7 -21.9 L 421.7 -21.9 Q 421.8 -24.3 421.8 -26 L 421.8 -26 L 421.8 -26 Q 421.8 -27.8 421.3 -28.9 L 421.3 -28.9 L 421.3 -28.9 Q 420.8 -30.1 419.4 -30.1 L 419.4 -30.1 L 419.4 -30.1 Q 417.9 -30.1 417 -29.2 L 417 -29.2 L 417 -29.2 Q 416 -28.3 415.2 -26.6 Z M 452.7 -3.5 L 452.7 -3.5 L 452.7 -3.5 Q 450.8 1.3 444.4 1.3 L 444.4 1.3 L 444.4 1.3 Q 441.2 1.3 439.2 -1 L 439.2 -1 L 439.2 -1 Q 437.5 -2.8 437.5 -4.9 L 437.5 -4.9 L 437.5 -4.9 Q 437.5 -9.7 439.7 -20.2 L 439.7 -20.2 L 444.4 -44.8 L 457.4 -46.1 L 451.2 -13.7 L 451.2 -13.7 Q 450.1 -9 450.1 -7.3 L 450.1 -7.3 L 450.1 -7.3 Q 450.1 -3.6 452.7 -3.5 Z M 484.6 0 L 470.7 0 L 478.8 -42.2 L 492.9 -42.2 L 484.6 0 Z M 540.4 1.3 L 540.4 1.3 L 540.4 1.3 Q 532.6 1.3 532.6 -4.7 L 532.6 -4.7 L 532.6 -4.7 Q 532.6 -7.4 533.7 -12.4 L 533.7 -12.4 L 533.7 -12.4 Q 534.9 -17.5 535.2 -19.6 L 535.2 -19.6 L 535.2 -19.6 Q 536.1 -24.3 536.1 -25.7 L 536.1 -25.7 L 536.1 -25.7 Q 536.1 -29 533.7 -29 L 533.7 -29 L 533.7 -29 Q 532.1 -29 530.6 -26.8 L 530.6 -26.8 L 530.6 -26.8 Q 529 -24.6 528.3 -20.2 L 528.3 -20.2 L 524.4 0 L 511.9 1.3 L 515.3 -16.1 L 515.3 -16.1 Q 515.9 -19 516.4 -22.3 L 516.4 -22.3 L 516.4 -22.3 Q 516.9 -25.5 516.9 -26.1 L 516.9 -26.1 L 516.9 -26.1 Q 516.9 -29 514.8 -29 L 514.8 -29 L 514.8 -29 Q 513.3 -29 511.7 -26.8 L 511.7 -26.8 L 511.7 -26.8 Q 510.1 -24.6 509.2 -20.2 L 509.2 -20.2 L 505.3 0 L 492.7 1.3 L 499.4 -32.6 L 509.8 -33.9 L 508.7 -27.5 L 508.7 -27.5 Q 510.4 -30.9 513.5 -32.4 L 513.5 -32.4 L 513.5 -32.4 Q 516.5 -33.9 521.3 -33.9 L 521.3 -33.9 L 521.3 -33.9 Q 524.1 -33.9 525.9 -32.6 L 525.9 -32.6 L 525.9 -32.6 Q 527.7 -31.2 528.3 -29.1 L 528.3 -29.1 L 528.3 -29.1 Q 529.3 -31.3 532.1 -32.6 L 532.1 -32.6 L 532.1 -32.6 Q 534.9 -33.9 538.3 -33.9 L 538.3 -33.9 L 538.3 -33.9 Q 541.8 -33.9 543.5 -33.2 L 543.5 -33.2 L 543.5 -33.2 Q 545.1 -32.5 546.2 -31.2 L 546.2 -31.2 L 546.2 -31.2 Q 547.9 -29 547.9 -24.9 L 547.9 -24.9 L 547.9 -24.9 Q 547.9 -20.9 546.2 -12.5 L 546.2 -12.5 L 546.2 -12.5 Q 545.3 -8.4 545.3 -6.9 L 545.3 -6.9 L 545.3 -6.9 Q 545.3 -5.4 546.1 -4.5 L 546.1 -4.5 L 546.1 -4.5 Q 547 -3.6 548.3 -3.5 L 548.3 -3.5 L 548.3 -3.5 Q 547.6 -1.3 545.4 0 L 545.4 0 L 545.4 0 Q 543.2 1.3 540.4 1.3 Z M 556 -1.9 L 556 -1.9 L 556 -1.9 Q 554.5 -3.6 553.8 -6.2 L 553.8 -6.2 L 553.8 -6.2 Q 553.1 -8.8 553.1 -13.1 L 553.1 -13.1 L 553.1 -13.1 Q 553.1 -17.4 554.6 -21.3 L 554.6 -21.3 L 554.6 -21.3 Q 556.1 -25.2 558.8 -28 L 558.8 -28 L 558.8 -28 Q 564.3 -33.9 573.4 -33.9 L 573.4 -33.9 L 573.4 -33.9 Q 576.6 -33.9 579 -32.8 L 579 -32.8 L 590 -33.9 L 585.2 -9 L 585.2 -9 Q 585 -8.2 585 -6.8 L 585 -6.8 L 585 -6.8 Q 585 -5.4 585.9 -4.5 L 585.9 -4.5 L 585.9 -4.5 Q 586.8 -3.6 588 -3.5 L 588 -3.5 L 588 -3.5 Q 587.4 -1.3 585.1 0 L 585.1 0 L 585.1 0 Q 582.7 1.3 580.1 1.3 L 580.1 1.3 L 580.1 1.3 Q 577.5 1.3 575.7 0.3 L 575.7 0.3 L 575.7 0.3 Q 574 -0.7 573.4 -2.4 L 573.4 -2.4 L 573.4 -2.4 Q 572.4 -0.8 570.2 0.3 L 570.2 0.3 L 570.2 0.3 Q 568.1 1.3 565.1 1.3 L 565.1 1.3 L 565.1 1.3 Q 562.2 1.3 559.9 0.5 L 559.9 0.5 L 559.9 0.5 Q 557.5 -0.3 556 -1.9 Z M 569.5 -27.9 L 569.5 -27.9 L 569.5 -27.9 Q 568.8 -26.8 568.1 -24.8 L 568.1 -24.8 L 568.1 -24.8 Q 567.5 -22.9 566.4 -17.6 L 566.4 -17.6 L 566.4 -17.6 Q 565.4 -12.4 565.4 -8.7 L 565.4 -8.7 L 565.4 -8.7 Q 565.4 -5 566 -3.9 L 566 -3.9 L 566 -3.9 Q 566.5 -2.8 567.5 -2.8 L 567.5 -2.8 L 567.5 -2.8 Q 569.6 -2.8 571.1 -4.8 L 571.1 -4.8 L 571.1 -4.8 Q 572.6 -6.7 573.2 -10.2 L 573.2 -10.2 L 576.6 -28.9 L 576.6 -28.9 Q 575.2 -30.1 573.7 -30.1 L 573.7 -30.1 L 573.7 -30.1 Q 572.1 -30.1 571.2 -29.6 L 571.2 -29.6 L 571.2 -29.6 Q 570.2 -29.1 569.5 -27.9 Z M 597.7 -26.8 L 597.7 -26.8 L 597.7 -26.8 Q 599.9 -29.8 603.2 -31.9 L 603.2 -31.9 L 603.2 -31.9 Q 606.5 -33.9 610.5 -33.9 L 610.5 -33.9 L 610.5 -33.9 Q 614.5 -33.9 616.5 -32.6 L 616.5 -32.6 L 629 -33.9 L 624.6 -9.3 L 624.6 -9.3 Q 622.4 3.2 617.7 8.1 L 617.7 8.1 L 617.7 8.1 Q 613.1 12.8 604.3 12.8 L 604.3 12.8 L 604.3 12.8 Q 597.6 12.8 593.7 10.7 L 593.7 10.7 L 593.7 10.7 Q 589.9 8.6 589.9 5.1 L 589.9 5.1 L 589.9 5.1 Q 589.9 2.4 591.9 0.9 L 591.9 0.9 L 591.9 0.9 Q 593.9 -0.6 596.9 -0.6 L 596.9 -0.6 L 596.9 -0.6 Q 599.6 -0.6 601.7 0.6 L 601.7 0.6 L 601.7 0.6 Q 602.9 1.3 603.5 2.2 L 603.5 2.2 L 603.5 2.2 Q 602 3.5 602 5.6 L 602 5.6 L 602 5.6 Q 602 8.3 604.5 8.3 L 604.5 8.3 L 604.5 8.3 Q 608.8 8.3 611.3 -1.8 L 611.3 -1.8 L 611.3 -1.8 Q 612 -4.5 612.5 -7.3 L 612.5 -7.3 L 612.5 -7.3 Q 609.7 -3.8 603.1 -3.8 L 603.1 -3.8 L 603.1 -3.8 Q 598.6 -3.8 596 -6 L 596 -6 L 596 -6 Q 593.3 -8.1 593.3 -13.3 L 593.3 -13.3 L 593.3 -13.3 Q 593.3 -16.4 594.4 -20.1 L 594.4 -20.1 L 594.4 -20.1 Q 595.5 -23.7 597.7 -26.8 Z M 606 -13.1 L 606 -13.1 L 606 -13.1 Q 606 -8.7 608.3 -8.7 L 608.3 -8.7 L 608.3 -8.7 Q 609.8 -8.7 611.3 -10.4 L 611.3 -10.4 L 611.3 -10.4 Q 612.4 -11.7 612.9 -13.7 L 612.9 -13.7 L 616.1 -30.1 L 616.1 -30.1 Q 615.8 -30.2 615.5 -30.3 L 615.5 -30.3 L 615.5 -30.3 Q 614.9 -30.6 614 -30.6 L 614 -30.6 L 614 -30.6 Q 610.1 -30.6 607.8 -24.2 L 607.8 -24.2 L 607.8 -24.2 Q 606 -19.2 606 -13.1 Z M 657.4 -10.8 L 657.4 -10.8 L 657.4 -10.8 Q 659 -9.7 659 -7.3 L 659 -7.3 L 659 -7.3 Q 659 -4.9 657.8 -3.4 L 657.8 -3.4 L 657.8 -3.4 Q 656.6 -1.9 654.6 -0.8 L 654.6 -0.8 L 654.6 -0.8 Q 650.5 1.3 646.1 1.3 L 646.1 1.3 L 646.1 1.3 Q 641.7 1.3 639.1 0.3 L 639.1 0.3 L 639.1 0.3 Q 636.5 -0.6 634.8 -2.4 L 634.8 -2.4 L 634.8 -2.4 Q 631.4 -5.8 631.4 -12 L 631.4 -12 L 631.4 -12 Q 631.4 -21.7 636.6 -27.6 L 636.6 -27.6 L 636.6 -27.6 Q 642.2 -33.9 652 -33.9 L 652 -33.9 L 652 -33.9 Q 658.1 -33.9 661.1 -31.4 L 661.1 -31.4 L 661.1 -31.4 Q 663.4 -29.4 663.4 -26.3 L 663.4 -26.3 L 663.4 -26.3 Q 663.4 -15 643.9 -15 L 643.9 -15 L 643.9 -15 Q 643.6 -13.4 643.6 -12 L 643.6 -12 L 643.6 -12 Q 643.6 -9 645 -7.9 L 645 -7.9 L 645 -7.9 Q 646.3 -6.8 648.7 -6.8 L 648.7 -6.8 L 648.7 -6.8 Q 651.1 -6.8 653.7 -7.9 L 653.7 -7.9 L 653.7 -7.9 Q 656.3 -9 657.4 -10.8 Z M 644.4 -17.8 L 644.4 -17.8 L 644.4 -17.8 Q 648.9 -17.8 651.5 -20.6 L 651.5 -20.6 L 651.5 -20.6 Q 654.1 -23.3 654.1 -27.6 L 654.1 -27.6 L 654.1 -27.6 Q 654.1 -29.1 653.6 -29.9 L 653.6 -29.9 L 653.6 -29.9 Q 653.1 -30.7 652 -30.7 L 652 -30.7 L 652 -30.7 Q 650.9 -30.7 650 -30.2 L 650 -30.2 L 650 -30.2 Q 649 -29.8 648.1 -28.4 L 648.1 -28.4 L 648.1 -28.4 Q 645.7 -25.2 644.4 -17.8 Z M 684.7 -22.5 L 684.7 -22.5 L 684.7 -22.5 Q 685.6 -24.8 685.6 -26.9 L 685.6 -26.9 L 685.6 -26.9 Q 685.6 -30.7 682.5 -30.7 L 682.5 -30.7 L 682.5 -30.7 Q 680.9 -30.7 679.6 -29.2 L 679.6 -29.2 L 679.6 -29.2 Q 678.3 -27.8 678.3 -26 L 678.3 -26 L 678.3 -26 Q 678.3 -24.7 679.3 -23.7 L 679.3 -23.7 L 679.3 -23.7 Q 680.8 -22.3 684.5 -20 L 684.5 -20 L 684.5 -20 Q 688.3 -17.7 689.8 -15.8 L 689.8 -15.8 L 689.8 -15.8 Q 691.2 -13.9 691.2 -11.3 L 691.2 -11.3 L 691.2 -11.3 Q 691.2 -8.7 690 -6.3 L 690 -6.3 L 690 -6.3 Q 688.7 -4 686.5 -2.3 L 686.5 -2.3 L 686.5 -2.3 Q 681.7 1.3 674 1.3 L 674 1.3 L 674 1.3 Q 669.8 1.3 666.6 -0.9 L 666.6 -0.9 L 666.6 -0.9 Q 663.4 -3 663.4 -5.5 L 663.4 -5.5 L 663.4 -5.5 Q 663.4 -8 665.3 -9.5 L 665.3 -9.5 L 665.3 -9.5 Q 667.1 -10.9 669.8 -10.9 L 669.8 -10.9 L 669.8 -10.9 Q 672.5 -10.9 674.1 -9.9 L 674.1 -9.9 L 674.1 -9.9 Q 673.3 -7.8 673.3 -6.4 L 673.3 -6.4 L 673.3 -6.4 Q 673.3 -2.2 676.9 -2.2 L 676.9 -2.2 L 676.9 -2.2 Q 678.4 -2.2 679.4 -3.1 L 679.4 -3.1 L 679.4 -3.1 Q 680.5 -4.1 680.5 -5.8 L 680.5 -5.8 L 680.5 -5.8 Q 680.5 -9 674.9 -12.5 L 674.9 -12.5 L 674.9 -12.5 Q 670.5 -15.4 669.4 -16.6 L 669.4 -16.6 L 669.4 -16.6 Q 667.7 -18.6 667.7 -21.2 L 667.7 -21.2 L 667.7 -21.2 Q 667.7 -23.7 668.9 -26.2 L 668.9 -26.2 L 668.9 -26.2 Q 670.1 -28.6 672.4 -30.3 L 672.4 -30.3 L 672.4 -30.3 Q 677.1 -33.9 685.2 -33.9 L 685.2 -33.9 L 685.2 -33.9 Q 689.3 -33.9 691.8 -32.3 L 691.8 -32.3 L 691.8 -32.3 Q 694.3 -30.6 694.3 -27.8 L 694.3 -27.8 L 694.3 -27.8 Q 694.3 -25 692.6 -23.4 L 692.6 -23.4 L 692.6 -23.4 Q 690.9 -21.8 687.8 -21.8 L 687.8 -21.8 L 687.8 -21.8 Q 685.7 -21.8 684.7 -22.5 Z M 735.7 -20.6 L 748.7 -21.8 L 748.7 -21.8 Q 744.1 -11.7 744.1 0.1 L 744.1 0.1 L 744.1 0.1 Q 742.3 1.3 739.8 1.3 L 739.8 1.3 L 739.8 1.3 Q 737.3 1.3 735.7 0.1 L 735.7 0.1 L 735.7 0.1 Q 734.1 -1.1 733.8 -2.3 L 733.8 -2.3 L 733.8 -2.3 Q 732.2 -0.6 729.6 0.3 L 729.6 0.3 L 729.6 0.3 Q 727 1.3 724.2 1.3 L 724.2 1.3 L 724.2 1.3 Q 721.5 1.3 719.1 0.4 L 719.1 0.4 L 719.1 0.4 Q 716.7 -0.5 714.8 -2.5 L 714.8 -2.5 L 714.8 -2.5 Q 710.7 -6.8 710.7 -15.1 L 710.7 -15.1 L 710.7 -15.1 Q 710.7 -27.9 717.6 -35.6 L 717.6 -35.6 L 717.6 -35.6 Q 724.6 -43.5 737.1 -43.5 L 737.1 -43.5 L 737.1 -43.5 Q 745.7 -43.5 748.8 -39 L 748.8 -39 L 748.8 -39 Q 749.8 -37.6 749.8 -35.9 L 749.8 -35.9 L 749.8 -35.9 Q 749.8 -34.2 749 -32.8 L 749 -32.8 L 749 -32.8 Q 748.3 -31.4 747.1 -30.2 L 747.1 -30.2 L 747.1 -30.2 Q 744.4 -27.6 741 -27.6 L 741 -27.6 L 741 -27.6 Q 739.6 -27.6 738.4 -28.1 L 738.4 -28.1 L 738.4 -28.1 Q 738.6 -30 738.6 -32.3 L 738.6 -32.3 L 738.6 -32.3 Q 738.6 -34.5 738.5 -35.5 L 738.5 -35.5 L 738.5 -35.5 Q 738.3 -36.5 737.9 -37.4 L 737.9 -37.4 L 737.9 -37.4 Q 737.1 -39.1 735.3 -39.1 L 735.3 -39.1 L 735.3 -39.1 Q 733.4 -39.1 731.4 -37.1 L 731.4 -37.1 L 731.4 -37.1 Q 729.4 -35.2 727.8 -32 L 727.8 -32 L 727.8 -32 Q 724.3 -24.8 724.3 -16.2 L 724.3 -16.2 L 724.3 -16.2 Q 724.3 -12.2 725.8 -9.4 L 725.8 -9.4 L 725.8 -9.4 Q 727.5 -6.3 730.4 -6.3 L 730.4 -6.3 L 730.4 -6.3 Q 731.5 -6.3 732.4 -6.8 L 732.4 -6.8 L 732.4 -6.8 Q 733.3 -7.4 733.7 -7.7 L 733.7 -7.7 L 735.7 -20.6 Z M 754.6 -1.9 L 754.6 -1.9 L 754.6 -1.9 Q 753.1 -3.6 752.4 -6.2 L 752.4 -6.2 L 752.4 -6.2 Q 751.7 -8.8 751.7 -13.1 L 751.7 -13.1 L 751.7 -13.1 Q 751.7 -17.4 753.2 -21.3 L 753.2 -21.3 L 753.2 -21.3 Q 754.7 -25.2 757.4 -28 L 757.4 -28 L 757.4 -28 Q 762.9 -33.9 772 -33.9 L 772 -33.9 L 772 -33.9 Q 775.2 -33.9 777.6 -32.8 L 777.6 -32.8 L 788.5 -33.9 L 783.8 -9 L 783.8 -9 Q 783.6 -8.2 783.6 -6.8 L 783.6 -6.8 L 783.6 -6.8 Q 783.6 -5.4 784.5 -4.5 L 784.5 -4.5 L 784.5 -4.5 Q 785.3 -3.6 786.6 -3.5 L 786.6 -3.5 L 786.6 -3.5 Q 786 -1.3 783.6 0 L 783.6 0 L 783.6 0 Q 781.3 1.3 778.7 1.3 L 778.7 1.3 L 778.7 1.3 Q 776.1 1.3 774.3 0.3 L 774.3 0.3 L 774.3 0.3 Q 772.5 -0.7 772 -2.4 L 772 -2.4 L 772 -2.4 Q 771 -0.8 768.8 0.3 L 768.8 0.3 L 768.8 0.3 Q 766.7 1.3 763.7 1.3 L 763.7 1.3 L 763.7 1.3 Q 760.8 1.3 758.5 0.5 L 758.5 0.5 L 758.5 0.5 Q 756.1 -0.3 754.6 -1.9 Z M 768.1 -27.9 L 768.1 -27.9 L 768.1 -27.9 Q 767.4 -26.8 766.7 -24.8 L 766.7 -24.8 L 766.7 -24.8 Q 766.1 -22.9 765 -17.6 L 765 -17.6 L 765 -17.6 Q 764 -12.4 764 -8.7 L 764 -8.7 L 764 -8.7 Q 764 -5 764.5 -3.9 L 764.5 -3.9 L 764.5 -3.9 Q 765.1 -2.8 766.1 -2.8 L 766.1 -2.8 L 766.1 -2.8 Q 768.2 -2.8 769.7 -4.8 L 769.7 -4.8 L 769.7 -4.8 Q 771.2 -6.7 771.8 -10.2 L 771.8 -10.2 L 775.2 -28.9 L 775.2 -28.9 Q 773.8 -30.1 772.3 -30.1 L 772.3 -30.1 L 772.3 -30.1 Q 770.7 -30.1 769.8 -29.6 L 769.8 -29.6 L 769.8 -29.6 Q 768.8 -29.1 768.1 -27.9 Z M 807.3 -3.5 L 807.3 -3.5 L 807.3 -3.5 Q 805.3 1.3 799 1.3 L 799 1.3 L 799 1.3 Q 795.8 1.3 793.7 -1 L 793.7 -1 L 793.7 -1 Q 792.1 -2.8 792.1 -4.9 L 792.1 -4.9 L 792.1 -4.9 Q 792.1 -9.7 794.3 -20.2 L 794.3 -20.2 L 799 -44.8 L 812 -46.1 L 805.8 -13.7 L 805.8 -13.7 Q 804.7 -9 804.7 -7.3 L 804.7 -7.3 L 804.7 -7.3 Q 804.7 -3.6 807.3 -3.5 Z M 828 -3.5 L 828 -3.5 L 828 -3.5 Q 826 1.3 819.7 1.3 L 819.7 1.3 L 819.7 1.3 Q 816.5 1.3 814.5 -1 L 814.5 -1 L 814.5 -1 Q 812.8 -2.8 812.8 -4.9 L 812.8 -4.9 L 812.8 -4.9 Q 812.8 -9.7 815 -20.2 L 815 -20.2 L 819.7 -44.8 L 832.7 -46.1 L 826.5 -13.7 L 826.5 -13.7 Q 825.4 -9 825.4 -7.3 L 825.4 -7.3 L 825.4 -7.3 Q 825.4 -3.6 828 -3.5 Z M 859.4 -10.8 L 859.4 -10.8 L 859.4 -10.8 Q 861 -9.7 861 -7.3 L 861 -7.3 L 861 -7.3 Q 861 -4.9 859.8 -3.4 L 859.8 -3.4 L 859.8 -3.4 Q 858.6 -1.9 856.6 -0.8 L 856.6 -0.8 L 856.6 -0.8 Q 852.5 1.3 848.1 1.3 L 848.1 1.3 L 848.1 1.3 Q 843.6 1.3 841.1 0.3 L 841.1 0.3 L 841.1 0.3 Q 838.5 -0.6 836.7 -2.4 L 836.7 -2.4 L 836.7 -2.4 Q 833.3 -5.8 833.3 -12 L 833.3 -12 L 833.3 -12 Q 833.3 -21.7 838.6 -27.6 L 838.6 -27.6 L 838.6 -27.6 Q 844.2 -33.9 854 -33.9 L 854 -33.9 L 854 -33.9 Q 860.1 -33.9 863.1 -31.4 L 863.1 -31.4 L 863.1 -31.4 Q 865.3 -29.4 865.3 -26.3 L 865.3 -26.3 L 865.3 -26.3 Q 865.3 -15 845.9 -15 L 845.9 -15 L 845.9 -15 Q 845.6 -13.4 845.6 -12 L 845.6 -12 L 845.6 -12 Q 845.6 -9 846.9 -7.9 L 846.9 -7.9 L 846.9 -7.9 Q 848.3 -6.8 850.7 -6.8 L 850.7 -6.8 L 850.7 -6.8 Q 853.1 -6.8 855.7 -7.9 L 855.7 -7.9 L 855.7 -7.9 Q 858.3 -9 859.4 -10.8 Z M 846.3 -17.8 L 846.3 -17.8 L 846.3 -17.8 Q 850.9 -17.8 853.5 -20.6 L 853.5 -20.6 L 853.5 -20.6 Q 856.1 -23.3 856.1 -27.6 L 856.1 -27.6 L 856.1 -27.6 Q 856.1 -29.1 855.6 -29.9 L 855.6 -29.9 L 855.6 -29.9 Q 855 -30.7 854 -30.7 L 854 -30.7 L 854 -30.7 Q 852.9 -30.7 851.9 -30.2 L 851.9 -30.2 L 851.9 -30.2 Q 851 -29.8 850 -28.4 L 850 -28.4 L 850 -28.4 Q 847.7 -25.2 846.3 -17.8 Z M 887.5 -18 L 887.5 -18 L 887.5 -18 Q 889.9 -22.1 889.9 -26.2 L 889.9 -26.2 L 889.9 -26.2 Q 889.9 -29 887.9 -29 L 887.9 -29 L 887.9 -29 Q 886.3 -29 884.7 -26.4 L 884.7 -26.4 L 884.7 -26.4 Q 883.1 -23.7 882.6 -20.4 L 882.6 -20.4 L 879.2 0 L 866 1.3 L 872.5 -32.6 L 883.1 -33.9 L 881.9 -27.5 L 881.9 -27.5 Q 885.1 -33.9 892.1 -33.9 L 892.1 -33.9 L 892.1 -33.9 Q 895.8 -33.9 897.8 -32 L 897.8 -32 L 897.8 -32 Q 899.8 -30.1 899.8 -26.1 L 899.8 -26.1 L 899.8 -26.1 Q 899.8 -22.2 897.3 -19.7 L 897.3 -19.7 L 897.3 -19.7 Q 894.7 -17.2 890.2 -17.2 L 890.2 -17.2 L 890.2 -17.2 Q 888.3 -17.2 887.5 -18 Z M 921.2 -7.2 L 921.2 -7.2 L 921.2 -7.2 Q 917.9 -3.8 911.8 -3.8 L 911.8 -3.8 L 911.8 -3.8 Q 904.2 -3.8 902.6 -9.3 L 902.6 -9.3 L 902.6 -9.3 Q 902.1 -11 902.1 -12.9 L 902.1 -12.9 L 902.1 -12.9 Q 902.1 -14.7 902.5 -16.6 L 902.5 -16.6 L 905.5 -32.6 L 918.5 -33.9 L 914.9 -15.3 L 914.9 -15.3 Q 914.8 -14.5 914.6 -13.6 L 914.6 -13.6 L 914.6 -13.6 Q 914.4 -12.7 914.4 -11.7 L 914.4 -11.7 L 914.4 -11.7 Q 914.4 -10.8 914.8 -10.2 L 914.8 -10.2 L 914.8 -10.2 Q 915.1 -9.6 915.5 -9.2 L 915.5 -9.2 L 915.5 -9.2 Q 916.3 -8.7 917.7 -8.7 L 917.7 -8.7 L 917.7 -8.7 Q 919 -8.7 920.2 -10.4 L 920.2 -10.4 L 920.2 -10.4 Q 921.4 -12 922 -14.9 L 922 -14.9 L 925.5 -32.6 L 938.1 -33.9 L 933.3 -8.8 L 933.3 -8.8 Q 930.9 3.5 926.1 8.4 L 926.1 8.4 L 926.1 8.4 Q 923.6 10.9 920.4 11.9 L 920.4 11.9 L 920.4 11.9 Q 917.1 12.9 913 12.9 L 913 12.9 L 913 12.9 Q 906.2 12.9 902.4 10.8 L 902.4 10.8 L 902.4 10.8 Q 898.6 8.6 898.6 5.1 L 898.6 5.1 L 898.6 5.1 Q 898.6 2.5 900.5 1 L 900.5 1 L 900.5 1 Q 902.5 -0.5 905.6 -0.5 L 905.6 -0.5 L 905.6 -0.5 Q 908.3 -0.5 910.3 0.6 L 910.3 0.6 L 910.3 0.6 Q 911.5 1.3 912.1 2.2 L 912.1 2.2 L 912.1 2.2 Q 910.7 3.5 910.7 5.6 L 910.7 5.6 L 910.7 5.6 Q 910.7 8.4 913.2 8.4 L 913.2 8.4 L 913.2 8.4 Q 917.4 8.4 919.9 -1.3 L 919.9 -1.3 L 919.9 -1.3 Q 920.6 -4.2 921.2 -7.2 Z" fill="url(#editing-shiny-gradient)"></path></g></g><g transform="matrix(1,0,0,1,0,0)" filter="url(#editing-shiny2)"><g transform="matrix(1,0,0,1.2,-177.2,107.1)"><path d="M -35.1 2 L -42.4 2 L -30.8 -40.3 L -17.5 -40.3 L -14.5 -16.1 L -2.6 -40.3 L 8.6 -40.3 L 9.7 -8.6 L 9.7 -8.6 Q 10 -2.4 13.1 -0.4 L 13.1 -0.4 L 13.1 -0.4 Q 12.4 0.8 10.3 2 L 10.3 2 L 10.3 2 Q 8.3 3.3 5.6 3.3 L 5.6 3.3 L 5.6 3.3 Q 2.8 3.3 1.2 2.5 L 1.2 2.5 L 1.2 2.5 Q -0.4 1.7 -1.3 0.4 L -1.3 0.4 L -1.3 0.4 Q -2.9 -1.9 -2.9 -6.3 L -2.9 -6.3 L -2.9 -26 L -15.5 2 L -23.4 2 L -27.9 -26.8 L -35.1 2 Z M 18.6 0.1 L 18.6 0.1 L 18.6 0.1 Q 17.1 -1.6 16.4 -4.2 L 16.4 -4.2 L 16.4 -4.2 Q 15.8 -6.8 15.8 -11.1 L 15.8 -11.1 L 15.8 -11.1 Q 15.8 -15.4 17.2 -19.3 L 17.2 -19.3 L 17.2 -19.3 Q 18.7 -23.2 21.4 -26 L 21.4 -26 L 21.4 -26 Q 26.9 -31.9 36 -31.9 L 36 -31.9 L 36 -31.9 Q 39.2 -31.9 41.6 -30.8 L 41.6 -30.8 L 52.6 -31.9 L 47.8 -7 L 47.8 -7 Q 47.6 -6.2 47.6 -4.8 L 47.6 -4.8 L 47.6 -4.8 Q 47.6 -3.4 48.5 -2.5 L 48.5 -2.5 L 48.5 -2.5 Q 49.4 -1.6 50.6 -1.5 L 50.6 -1.5 L 50.6 -1.5 Q 50 0.7 47.7 2 L 47.7 2 L 47.7 2 Q 45.3 3.3 42.7 3.3 L 42.7 3.3 L 42.7 3.3 Q 40.1 3.3 38.3 2.3 L 38.3 2.3 L 38.3 2.3 Q 36.6 1.3 36 -0.4 L 36 -0.4 L 36 -0.4 Q 35 1.2 32.8 2.2 L 32.8 2.2 L 32.8 2.2 Q 30.7 3.3 27.8 3.3 L 27.8 3.3 L 27.8 3.3 Q 24.8 3.3 22.5 2.5 L 22.5 2.5 L 22.5 2.5 Q 20.1 1.7 18.6 0.1 Z M 32.1 -25.9 L 32.1 -25.9 L 32.1 -25.9 Q 31.4 -24.8 30.7 -22.8 L 30.7 -22.8 L 30.7 -22.8 Q 30.1 -20.9 29 -15.6 L 29 -15.6 L 29 -15.6 Q 28 -10.4 28 -6.7 L 28 -6.7 L 28 -6.7 Q 28 -3 28.6 -1.9 L 28.6 -1.9 L 28.6 -1.9 Q 29.1 -0.8 30.2 -0.8 L 30.2 -0.8 L 30.2 -0.8 Q 32.2 -0.8 33.7 -2.8 L 33.7 -2.8 L 33.7 -2.8 Q 35.2 -4.7 35.8 -8.2 L 35.8 -8.2 L 39.2 -26.9 L 39.2 -26.9 Q 37.8 -28.1 36.3 -28.1 L 36.3 -28.1 L 36.3 -28.1 Q 34.7 -28.1 33.8 -27.6 L 33.8 -27.6 L 33.8 -27.6 Q 32.8 -27.1 32.1 -25.9 Z M 72.5 -28.4 L 72.5 -28.4 L 72.5 -28.4 Q 76 -31.9 83.3 -31.9 L 83.3 -31.9 L 83.3 -31.9 Q 87.3 -31.9 89.5 -29.8 L 89.5 -29.8 L 89.5 -29.8 Q 91.7 -27.6 91.7 -23.7 L 91.7 -23.7 L 91.7 -23.7 Q 91.7 -19.8 89.5 -17 L 89.5 -17 L 89.5 -17 Q 87.3 -14.2 83.2 -13.1 L 83.2 -13.1 L 83.2 -13.1 Q 83.5 -11.8 84 -10.4 L 84 -10.4 L 84.9 -7.9 L 84.9 -7.9 Q 86.1 -4.6 87.1 -3.5 L 87.1 -3.5 L 87.1 -3.5 Q 88 -2.3 89.3 -1.9 L 89.3 -1.9 L 89.3 -1.9 Q 88.6 0.7 86 2.1 L 86 2.1 L 86 2.1 Q 84 3.3 81.2 3.3 L 81.2 3.3 L 81.2 3.3 Q 72.9 3.3 71.8 -9.5 L 71.8 -9.5 L 71.8 -9.5 Q 71.6 -11.3 71.6 -13.1 L 71.6 -13.1 L 71.6 -13.1 Q 74.8 -14 77.1 -17 L 77.1 -17 L 77.1 -17 Q 79.3 -20 79.3 -23.5 L 79.3 -23.5 L 79.3 -23.5 Q 79.3 -27 76.8 -27 L 76.8 -27 L 76.8 -27 Q 75 -27 73.6 -25 L 73.6 -25 L 73.6 -25 Q 72.2 -23 71.6 -19.6 L 71.6 -19.6 L 67.3 2 L 54.4 3.3 L 63.4 -42.8 L 76.2 -44.1 L 74.8 -36.5 L 74.8 -36.5 Q 73.8 -31.1 72.5 -28.4 Z M 113.8 -20.5 L 113.8 -20.5 L 113.8 -20.5 Q 114.7 -22.8 114.7 -24.9 L 114.7 -24.9 L 114.7 -24.9 Q 114.7 -28.7 111.6 -28.7 L 111.6 -28.7 L 111.6 -28.7 Q 110 -28.7 108.7 -27.2 L 108.7 -27.2 L 108.7 -27.2 Q 107.4 -25.8 107.4 -24 L 107.4 -24 L 107.4 -24 Q 107.4 -22.7 108.4 -21.7 L 108.4 -21.7 L 108.4 -21.7 Q 109.9 -20.3 113.7 -18 L 113.7 -18 L 113.7 -18 Q 117.5 -15.7 118.9 -13.8 L 118.9 -13.8 L 118.9 -13.8 Q 120.3 -11.9 120.3 -9.3 L 120.3 -9.3 L 120.3 -9.3 Q 120.3 -6.7 119.1 -4.4 L 119.1 -4.4 L 119.1 -4.4 Q 117.8 -2 115.6 -0.3 L 115.6 -0.3 L 115.6 -0.3 Q 110.8 3.3 103.1 3.3 L 103.1 3.3 L 103.1 3.3 Q 99 3.3 95.8 1.1 L 95.8 1.1 L 95.8 1.1 Q 92.6 -1 92.6 -3.5 L 92.6 -3.5 L 92.6 -3.5 Q 92.6 -6 94.4 -7.5 L 94.4 -7.5 L 94.4 -7.5 Q 96.2 -9 98.9 -9 L 98.9 -9 L 98.9 -9 Q 101.6 -9 103.2 -7.9 L 103.2 -7.9 L 103.2 -7.9 Q 102.4 -5.8 102.4 -4.4 L 102.4 -4.4 L 102.4 -4.4 Q 102.4 -0.2 106 -0.2 L 106 -0.2 L 106 -0.2 Q 107.5 -0.2 108.6 -1.2 L 108.6 -1.2 L 108.6 -1.2 Q 109.6 -2.1 109.6 -3.8 L 109.6 -3.8 L 109.6 -3.8 Q 109.6 -7 104.1 -10.5 L 104.1 -10.5 L 104.1 -10.5 Q 99.6 -13.4 98.6 -14.6 L 98.6 -14.6 L 98.6 -14.6 Q 96.8 -16.6 96.8 -19.2 L 96.8 -19.2 L 96.8 -19.2 Q 96.8 -21.8 98.1 -24.2 L 98.1 -24.2 L 98.1 -24.2 Q 99.3 -26.6 101.5 -28.4 L 101.5 -28.4 L 101.5 -28.4 Q 106.2 -31.9 114.3 -31.9 L 114.3 -31.9 L 114.3 -31.9 Q 118.5 -31.9 120.9 -30.3 L 120.9 -30.3 L 120.9 -30.3 Q 123.4 -28.6 123.4 -25.8 L 123.4 -25.8 L 123.4 -25.8 Q 123.4 -23 121.7 -21.4 L 121.7 -21.4 L 121.7 -21.4 Q 120 -19.8 116.9 -19.8 L 116.9 -19.8 L 116.9 -19.8 Q 114.8 -19.8 113.8 -20.5 Z M 152.5 -7.9 L 152.5 -7.9 L 152.5 -7.9 Q 153.7 -6.3 153.7 -3.4 L 153.7 -3.4 L 153.7 -3.4 Q 153.7 -0.4 151.5 1.4 L 151.5 1.4 L 151.5 1.4 Q 149.2 3.3 145.2 3.3 L 145.2 3.3 L 145.2 3.3 Q 142.9 3.3 139.3 2.8 L 139.3 2.8 L 139.3 2.8 Q 132.3 1.7 130.3 1.7 L 130.3 1.7 L 130.3 1.7 Q 128.3 1.7 127.4 1.8 L 127.4 1.8 L 127.4 1.8 Q 126.6 1.9 125.3 2 L 125.3 2 L 133 -40.3 L 147 -40.3 L 140.6 -5.1 L 140.6 -5.1 Q 141.5 -4.9 142.2 -4.9 L 142.2 -4.9 L 143.8 -4.9 L 143.8 -4.9 Q 149.2 -4.9 152.5 -7.9 Z M 184 -8.8 L 184 -8.8 L 184 -8.8 Q 185.6 -7.7 185.6 -5.3 L 185.6 -5.3 L 185.6 -5.3 Q 185.6 -2.9 184.3 -1.4 L 184.3 -1.4 L 184.3 -1.4 Q 183.1 0.1 181.1 1.2 L 181.1 1.2 L 181.1 1.2 Q 177 3.3 172.6 3.3 L 172.6 3.3 L 172.6 3.3 Q 168.2 3.3 165.6 2.3 L 165.6 2.3 L 165.6 2.3 Q 163 1.3 161.3 -0.4 L 161.3 -0.4 L 161.3 -0.4 Q 157.9 -3.8 157.9 -10 L 157.9 -10 L 157.9 -10 Q 157.9 -19.7 163.2 -25.6 L 163.2 -25.6 L 163.2 -25.6 Q 168.8 -31.9 178.6 -31.9 L 178.6 -31.9 L 178.6 -31.9 Q 184.7 -31.9 187.7 -29.4 L 187.7 -29.4 L 187.7 -29.4 Q 189.9 -27.5 189.9 -24.3 L 189.9 -24.3 L 189.9 -24.3 Q 189.9 -13.1 170.4 -13.1 L 170.4 -13.1 L 170.4 -13.1 Q 170.2 -11.4 170.2 -10 L 170.2 -10 L 170.2 -10 Q 170.2 -7 171.5 -5.9 L 171.5 -5.9 L 171.5 -5.9 Q 172.8 -4.8 175.2 -4.8 L 175.2 -4.8 L 175.2 -4.8 Q 177.7 -4.8 180.3 -5.9 L 180.3 -5.9 L 180.3 -5.9 Q 182.9 -7 184 -8.8 Z M 170.9 -15.8 L 170.9 -15.8 L 170.9 -15.8 Q 175.4 -15.8 178.1 -18.6 L 178.1 -18.6 L 178.1 -18.6 Q 180.7 -21.3 180.7 -25.6 L 180.7 -25.6 L 180.7 -25.6 Q 180.7 -27.1 180.1 -27.9 L 180.1 -27.9 L 180.1 -27.9 Q 179.6 -28.7 178.5 -28.7 L 178.5 -28.7 L 178.5 -28.7 Q 177.4 -28.7 176.5 -28.3 L 176.5 -28.3 L 176.5 -28.3 Q 175.6 -27.8 174.6 -26.4 L 174.6 -26.4 L 174.6 -26.4 Q 172.2 -23.2 170.9 -15.8 Z M 215.3 -29.6 L 215.3 -29.6 L 215.3 -29.6 Q 217.4 -31.9 221.1 -31.9 L 221.1 -31.9 L 221.1 -31.9 Q 223.3 -31.9 225 -30.7 L 225 -30.7 L 225 -30.7 Q 226.8 -29.5 226.8 -27.2 L 226.8 -27.2 L 226.8 -27.2 Q 226.8 -25 226.1 -22.5 L 226.1 -22.5 L 226.1 -22.5 Q 225.4 -20.1 224.3 -17.6 L 224.3 -17.6 L 224.3 -17.6 Q 222.1 -12.7 219.1 -8.7 L 219.1 -8.7 L 219.1 -8.7 Q 214.9 -2.9 210.8 0.2 L 210.8 0.2 L 210.8 0.2 Q 206.7 3.3 202.3 3.3 L 202.3 3.3 L 202.3 3.3 Q 198.7 3.3 196.6 2.4 L 196.6 2.4 L 196.6 2.4 Q 196.2 -11 195.7 -15.8 L 195.7 -15.8 L 195.7 -15.8 Q 195.2 -20.6 194.8 -23.2 L 194.8 -23.2 L 194.8 -23.2 Q 194.2 -28.4 192.3 -29.6 L 192.3 -29.6 L 192.3 -29.6 Q 193.7 -30.8 195.2 -31.4 L 195.2 -31.4 L 195.2 -31.4 Q 196.6 -31.9 199.6 -31.9 L 199.6 -31.9 L 199.6 -31.9 Q 202.6 -31.9 204.7 -29.6 L 204.7 -29.6 L 204.7 -29.6 Q 206.8 -27.3 207.2 -23.1 L 207.2 -23.1 L 207.2 -23.1 Q 207.6 -19 207.6 -14 L 207.6 -14 L 207.6 -14 Q 207.6 -9 207.2 -3 L 207.2 -3 L 207.2 -3 Q 209.2 -4.4 211.3 -8.7 L 211.3 -8.7 L 211.3 -8.7 Q 214.2 -14.7 215.2 -21.8 L 215.2 -21.8 L 215.2 -21.8 Q 215.6 -24 215.6 -26.3 L 215.6 -26.3 L 215.6 -26.3 Q 215.6 -28.6 215.3 -29.6 Z M 238.4 -27.5 L 231.6 -27.5 L 231.6 -27.5 Q 234 -35.7 234.1 -44.4 L 234.1 -44.4 L 236 -44.6 L 236 -44.6 Q 236.9 -44.7 237.6 -44.7 L 237.6 -44.7 L 237.6 -44.7 Q 240.5 -44.7 242 -43.4 L 242 -43.4 L 242 -43.4 Q 243.5 -42 243.5 -39.6 L 243.5 -39.6 L 243.5 -39.6 Q 243.5 -37 242.4 -34.2 L 242.4 -34.2 L 242.4 -34.2 Q 240.3 -29.2 238.4 -27.5 L 238.4 -27.5 Z M 261.9 -20.5 L 261.9 -20.5 L 261.9 -20.5 Q 262.8 -22.8 262.8 -24.9 L 262.8 -24.9 L 262.8 -24.9 Q 262.8 -28.7 259.7 -28.7 L 259.7 -28.7 L 259.7 -28.7 Q 258.1 -28.7 256.8 -27.2 L 256.8 -27.2 L 256.8 -27.2 Q 255.5 -25.8 255.5 -24 L 255.5 -24 L 255.5 -24 Q 255.5 -22.7 256.5 -21.7 L 256.5 -21.7 L 256.5 -21.7 Q 258 -20.3 261.8 -18 L 261.8 -18 L 261.8 -18 Q 265.6 -15.7 267 -13.8 L 267 -13.8 L 267 -13.8 Q 268.4 -11.9 268.4 -9.3 L 268.4 -9.3 L 268.4 -9.3 Q 268.4 -6.7 267.2 -4.4 L 267.2 -4.4 L 267.2 -4.4 Q 265.9 -2 263.7 -0.3 L 263.7 -0.3 L 263.7 -0.3 Q 258.9 3.3 251.2 3.3 L 251.2 3.3 L 251.2 3.3 Q 247.1 3.3 243.9 1.1 L 243.9 1.1 L 243.9 1.1 Q 240.7 -1 240.7 -3.5 L 240.7 -3.5 L 240.7 -3.5 Q 240.7 -6 242.5 -7.5 L 242.5 -7.5 L 242.5 -7.5 Q 244.3 -9 247 -9 L 247 -9 L 247 -9 Q 249.7 -9 251.3 -7.9 L 251.3 -7.9 L 251.3 -7.9 Q 250.5 -5.8 250.5 -4.4 L 250.5 -4.4 L 250.5 -4.4 Q 250.5 -0.2 254.1 -0.2 L 254.1 -0.2 L 254.1 -0.2 Q 255.6 -0.2 256.7 -1.2 L 256.7 -1.2 L 256.7 -1.2 Q 257.7 -2.1 257.7 -3.8 L 257.7 -3.8 L 257.7 -3.8 Q 257.7 -7 252.2 -10.5 L 252.2 -10.5 L 252.2 -10.5 Q 247.7 -13.4 246.7 -14.6 L 246.7 -14.6 L 246.7 -14.6 Q 244.9 -16.6 244.9 -19.2 L 244.9 -19.2 L 244.9 -19.2 Q 244.9 -21.8 246.2 -24.2 L 246.2 -24.2 L 246.2 -24.2 Q 247.4 -26.6 249.6 -28.4 L 249.6 -28.4 L 249.6 -28.4 Q 254.3 -31.9 262.4 -31.9 L 262.4 -31.9 L 262.4 -31.9 Q 266.6 -31.9 269 -30.3 L 269 -30.3 L 269 -30.3 Q 271.5 -28.6 271.5 -25.8 L 271.5 -25.8 L 271.5 -25.8 Q 271.5 -23 269.8 -21.4 L 269.8 -21.4 L 269.8 -21.4 Q 268.1 -19.8 265 -19.8 L 265 -19.8 L 265 -19.8 Q 262.9 -19.8 261.9 -20.5 Z M 318.5 -24.6 L 318.5 -24.6 L 318.5 -24.6 Q 318.5 -22 316.2 -20.3 L 316.2 -20.3 L 316.2 -20.3 Q 314 -18.6 310.4 -18.6 L 310.4 -18.6 L 310.4 -18.6 Q 308.8 -18.6 307.9 -19.1 L 307.9 -19.1 L 307.9 -19.1 Q 308.6 -20.7 308.8 -22.8 L 308.8 -22.8 L 308.8 -22.8 Q 309.1 -24.9 309.1 -25.5 L 309.1 -25.5 L 309.1 -25.5 Q 309.1 -28.2 307.2 -28.2 L 307.2 -28.2 L 307.2 -28.2 Q 305.9 -28.2 304.5 -26.6 L 304.5 -26.6 L 304.5 -26.6 Q 303.1 -25 301.8 -22.5 L 301.8 -22.5 L 301.8 -22.5 Q 299.2 -16.7 299.2 -10.9 L 299.2 -10.9 L 299.2 -10.9 Q 299.2 -7.7 300.4 -6.2 L 300.4 -6.2 L 300.4 -6.2 Q 301.6 -4.8 304.3 -4.8 L 304.3 -4.8 L 304.3 -4.8 Q 308 -4.8 310.9 -7.9 L 310.9 -7.9 L 310.9 -7.9 Q 311.8 -8.8 312.2 -9.9 L 312.2 -9.9 L 312.2 -9.9 Q 314.6 -8.6 314.6 -5.1 L 314.6 -5.1 L 314.6 -5.1 Q 314.6 -1.5 310.7 0.8 L 310.7 0.8 L 310.7 0.8 Q 306.6 3.3 300 3.3 L 300 3.3 L 300 3.3 Q 287.1 3.3 287.1 -10.5 L 287.1 -10.5 L 287.1 -10.5 Q 287.1 -20.5 292.8 -26.3 L 292.8 -26.3 L 292.8 -26.3 Q 298.3 -31.9 308.4 -31.9 L 308.4 -31.9 L 308.4 -31.9 Q 318.5 -31.9 318.5 -24.6 Z M 334.2 3.3 L 334.2 3.3 L 334.2 3.3 Q 320.1 3.3 320.1 -10 L 320.1 -10 L 320.1 -10 Q 320.1 -19.4 325.3 -25.5 L 325.3 -25.5 L 325.3 -25.5 Q 330.8 -31.9 340.3 -31.9 L 340.3 -31.9 L 340.3 -31.9 Q 347.2 -31.9 350.7 -28.7 L 350.7 -28.7 L 350.7 -28.7 Q 354.3 -25.5 354.3 -18.8 L 354.3 -18.8 L 354.3 -18.8 Q 354.3 -8.6 348.8 -2.6 L 348.8 -2.6 L 348.8 -2.6 Q 343.4 3.3 334.2 3.3 Z M 335.8 -24.6 L 335.8 -24.6 L 335.8 -24.6 Q 335.1 -22.8 334.4 -20.3 L 334.4 -20.3 L 334.4 -20.3 Q 333.8 -17.7 333.1 -13.6 L 333.1 -13.6 L 333.1 -13.6 Q 332.3 -9.5 332.3 -4.4 L 332.3 -4.4 L 332.3 -4.4 Q 332.3 -2.8 332.8 -1.7 L 332.8 -1.7 L 332.8 -1.7 Q 333.4 -0.6 334.9 -0.6 L 334.9 -0.6 L 334.9 -0.6 Q 336.3 -0.6 337.3 -1.3 L 337.3 -1.3 L 337.3 -1.3 Q 338.2 -2 338.9 -3.6 L 338.9 -3.6 L 338.9 -3.6 Q 340.2 -6.6 341.2 -12.1 L 341.2 -12.1 L 341.2 -12.1 Q 342.2 -17.5 342.3 -19.9 L 342.3 -19.9 L 342.3 -19.9 Q 342.4 -22.3 342.4 -24 L 342.4 -24 L 342.4 -24 Q 342.4 -25.8 341.9 -26.9 L 341.9 -26.9 L 341.9 -26.9 Q 341.4 -28.1 340 -28.1 L 340 -28.1 L 340 -28.1 Q 338.5 -28.1 337.6 -27.2 L 337.6 -27.2 L 337.6 -27.2 Q 336.6 -26.3 335.8 -24.6 Z M 372 3.3 L 372 3.3 L 372 3.3 Q 357.9 3.3 357.9 -10 L 357.9 -10 L 357.9 -10 Q 357.9 -19.4 363.1 -25.5 L 363.1 -25.5 L 363.1 -25.5 Q 368.6 -31.9 378.1 -31.9 L 378.1 -31.9 L 378.1 -31.9 Q 385 -31.9 388.6 -28.7 L 388.6 -28.7 L 388.6 -28.7 Q 392.1 -25.5 392.1 -18.8 L 392.1 -18.8 L 392.1 -18.8 Q 392.1 -8.6 386.6 -2.6 L 386.6 -2.6 L 386.6 -2.6 Q 381.2 3.3 372 3.3 Z M 373.6 -24.6 L 373.6 -24.6 L 373.6 -24.6 Q 372.9 -22.8 372.3 -20.3 L 372.3 -20.3 L 372.3 -20.3 Q 371.7 -17.7 370.9 -13.6 L 370.9 -13.6 L 370.9 -13.6 Q 370.1 -9.5 370.1 -4.4 L 370.1 -4.4 L 370.1 -4.4 Q 370.1 -2.8 370.7 -1.7 L 370.7 -1.7 L 370.7 -1.7 Q 371.2 -0.6 372.7 -0.6 L 372.7 -0.6 L 372.7 -0.6 Q 374.2 -0.6 375.1 -1.3 L 375.1 -1.3 L 375.1 -1.3 Q 376 -2 376.7 -3.6 L 376.7 -3.6 L 376.7 -3.6 Q 378 -6.6 379 -12.1 L 379 -12.1 L 379 -12.1 Q 380 -17.5 380.1 -19.9 L 380.1 -19.9 L 380.1 -19.9 Q 380.2 -22.3 380.2 -24 L 380.2 -24 L 380.2 -24 Q 380.2 -25.8 379.7 -26.9 L 379.7 -26.9 L 379.7 -26.9 Q 379.2 -28.1 377.8 -28.1 L 377.8 -28.1 L 377.8 -28.1 Q 376.3 -28.1 375.4 -27.2 L 375.4 -27.2 L 375.4 -27.2 Q 374.4 -26.3 373.6 -24.6 Z M 411.2 -1.5 L 411.2 -1.5 L 411.2 -1.5 Q 409.2 3.3 402.8 3.3 L 402.8 3.3 L 402.8 3.3 Q 399.6 3.3 397.6 1 L 397.6 1 L 397.6 1 Q 395.9 -0.8 395.9 -2.9 L 395.9 -2.9 L 395.9 -2.9 Q 395.9 -7.7 398.2 -18.2 L 398.2 -18.2 L 402.8 -42.8 L 415.8 -44.1 L 409.6 -11.7 L 409.6 -11.7 Q 408.5 -7 408.5 -5.3 L 408.5 -5.3 L 408.5 -5.3 Q 408.5 -1.7 411.2 -1.5 Z M 443 2 L 429.1 2 L 437.2 -40.3 L 451.3 -40.3 L 443 2 Z M 498.8 3.3 L 498.8 3.3 L 498.8 3.3 Q 491 3.3 491 -2.8 L 491 -2.8 L 491 -2.8 Q 491 -5.4 492.1 -10.5 L 492.1 -10.5 L 492.1 -10.5 Q 493.3 -15.6 493.6 -17.6 L 493.6 -17.6 L 493.6 -17.6 Q 494.5 -22.3 494.5 -23.7 L 494.5 -23.7 L 494.5 -23.7 Q 494.5 -27 492.1 -27 L 492.1 -27 L 492.1 -27 Q 490.5 -27 489 -24.8 L 489 -24.8 L 489 -24.8 Q 487.4 -22.6 486.7 -18.2 L 486.7 -18.2 L 482.8 2 L 470.3 3.3 L 473.7 -14.1 L 473.7 -14.1 Q 474.3 -17 474.8 -20.3 L 474.8 -20.3 L 474.8 -20.3 Q 475.3 -23.6 475.3 -24.1 L 475.3 -24.1 L 475.3 -24.1 Q 475.3 -27 473.2 -27 L 473.2 -27 L 473.2 -27 Q 471.7 -27 470.1 -24.8 L 470.1 -24.8 L 470.1 -24.8 Q 468.5 -22.7 467.6 -18.2 L 467.6 -18.2 L 463.7 2 L 451.1 3.3 L 457.8 -30.7 L 468.2 -31.9 L 467.2 -25.5 L 467.2 -25.5 Q 468.8 -28.9 471.9 -30.4 L 471.9 -30.4 L 471.9 -30.4 Q 475 -31.9 479.8 -31.9 L 479.8 -31.9 L 479.8 -31.9 Q 482.5 -31.9 484.3 -30.6 L 484.3 -30.6 L 484.3 -30.6 Q 486.1 -29.2 486.7 -27.1 L 486.7 -27.1 L 486.7 -27.1 Q 487.8 -29.3 490.5 -30.6 L 490.5 -30.6 L 490.5 -30.6 Q 493.3 -31.9 496.8 -31.9 L 496.8 -31.9 L 496.8 -31.9 Q 500.2 -31.9 501.9 -31.2 L 501.9 -31.2 L 501.9 -31.2 Q 503.6 -30.5 504.6 -29.2 L 504.6 -29.2 L 504.6 -29.2 Q 506.3 -27 506.3 -22.9 L 506.3 -22.9 L 506.3 -22.9 Q 506.3 -18.9 504.6 -10.5 L 504.6 -10.5 L 504.6 -10.5 Q 503.7 -6.4 503.7 -4.9 L 503.7 -4.9 L 503.7 -4.9 Q 503.7 -3.4 504.6 -2.5 L 504.6 -2.5 L 504.6 -2.5 Q 505.4 -1.6 506.7 -1.5 L 506.7 -1.5 L 506.7 -1.5 Q 506.1 0.7 503.9 2 L 503.9 2 L 503.9 2 Q 501.6 3.3 498.8 3.3 Z M 514.4 0.1 L 514.4 0.1 L 514.4 0.1 Q 512.9 -1.6 512.2 -4.2 L 512.2 -4.2 L 512.2 -4.2 Q 511.6 -6.8 511.6 -11.1 L 511.6 -11.1 L 511.6 -11.1 Q 511.6 -15.4 513 -19.3 L 513 -19.3 L 513 -19.3 Q 514.5 -23.2 517.2 -26 L 517.2 -26 L 517.2 -26 Q 522.7 -31.9 531.8 -31.9 L 531.8 -31.9 L 531.8 -31.9 Q 535.1 -31.9 537.4 -30.8 L 537.4 -30.8 L 548.4 -31.9 L 543.6 -7 L 543.6 -7 Q 543.4 -6.2 543.4 -4.8 L 543.4 -4.8 L 543.4 -4.8 Q 543.4 -3.4 544.3 -2.5 L 544.3 -2.5 L 544.3 -2.5 Q 545.2 -1.6 546.4 -1.5 L 546.4 -1.5 L 546.4 -1.5 Q 545.8 0.7 543.5 2 L 543.5 2 L 543.5 2 Q 541.1 3.3 538.5 3.3 L 538.5 3.3 L 538.5 3.3 Q 535.9 3.3 534.1 2.3 L 534.1 2.3 L 534.1 2.3 Q 532.4 1.3 531.9 -0.4 L 531.9 -0.4 L 531.9 -0.4 Q 530.8 1.2 528.7 2.2 L 528.7 2.2 L 528.7 2.2 Q 526.5 3.3 523.6 3.3 L 523.6 3.3 L 523.6 3.3 Q 520.7 3.3 518.3 2.5 L 518.3 2.5 L 518.3 2.5 Q 515.9 1.7 514.4 0.1 Z M 527.9 -25.9 L 527.9 -25.9 L 527.9 -25.9 Q 527.2 -24.8 526.5 -22.8 L 526.5 -22.8 L 526.5 -22.8 Q 525.9 -20.9 524.8 -15.6 L 524.8 -15.6 L 524.8 -15.6 Q 523.8 -10.4 523.8 -6.7 L 523.8 -6.7 L 523.8 -6.7 Q 523.8 -3 524.4 -1.9 L 524.4 -1.9 L 524.4 -1.9 Q 524.9 -0.8 526 -0.8 L 526 -0.8 L 526 -0.8 Q 528 -0.8 529.5 -2.8 L 529.5 -2.8 L 529.5 -2.8 Q 531 -4.7 531.6 -8.2 L 531.6 -8.2 L 535 -26.9 L 535 -26.9 Q 533.6 -28.1 532.1 -28.1 L 532.1 -28.1 L 532.1 -28.1 Q 530.5 -28.1 529.6 -27.6 L 529.6 -27.6 L 529.6 -27.6 Q 528.7 -27.1 527.9 -25.9 Z M 556.1 -24.8 L 556.1 -24.8 L 556.1 -24.8 Q 558.3 -27.8 561.6 -29.9 L 561.6 -29.9 L 561.6 -29.9 Q 564.9 -31.9 568.9 -31.9 L 568.9 -31.9 L 568.9 -31.9 Q 572.9 -31.9 574.9 -30.7 L 574.9 -30.7 L 587.4 -31.9 L 583.1 -7.4 L 583.1 -7.4 Q 580.8 5.2 576.1 10.1 L 576.1 10.1 L 576.1 10.1 Q 571.5 14.8 562.7 14.8 L 562.7 14.8 L 562.7 14.8 Q 556 14.8 552.1 12.7 L 552.1 12.7 L 552.1 12.7 Q 548.3 10.6 548.3 7 L 548.3 7 L 548.3 7 Q 548.3 4.4 550.3 2.9 L 550.3 2.9 L 550.3 2.9 Q 552.3 1.4 555.3 1.4 L 555.3 1.4 L 555.3 1.4 Q 558 1.4 560.1 2.6 L 560.1 2.6 L 560.1 2.6 Q 561.3 3.3 561.9 4.2 L 561.9 4.2 L 561.9 4.2 Q 560.4 5.4 560.4 7.6 L 560.4 7.6 L 560.4 7.6 Q 560.4 10.3 563 10.3 L 563 10.3 L 563 10.3 Q 567.2 10.3 569.7 0.2 L 569.7 0.2 L 569.7 0.2 Q 570.4 -2.6 571 -5.3 L 571 -5.3 L 571 -5.3 Q 568.1 -1.8 561.6 -1.8 L 561.6 -1.8 L 561.6 -1.8 Q 557 -1.8 554.4 -4 L 554.4 -4 L 554.4 -4 Q 551.8 -6.1 551.8 -11.3 L 551.8 -11.3 L 551.8 -11.3 Q 551.8 -14.5 552.8 -18.1 L 552.8 -18.1 L 552.8 -18.1 Q 553.9 -21.7 556.1 -24.8 Z M 564.4 -11.1 L 564.4 -11.1 L 564.4 -11.1 Q 564.4 -6.7 566.7 -6.7 L 566.7 -6.7 L 566.7 -6.7 Q 568.2 -6.7 569.7 -8.4 L 569.7 -8.4 L 569.7 -8.4 Q 570.8 -9.7 571.3 -11.7 L 571.3 -11.7 L 574.5 -28.2 L 574.5 -28.2 Q 574.2 -28.2 573.9 -28.4 L 573.9 -28.4 L 573.9 -28.4 Q 573.3 -28.6 572.4 -28.6 L 572.4 -28.6 L 572.4 -28.6 Q 568.5 -28.6 566.2 -22.2 L 566.2 -22.2 L 566.2 -22.2 Q 564.4 -17.2 564.4 -11.1 Z M 615.8 -8.8 L 615.8 -8.8 L 615.8 -8.8 Q 617.4 -7.7 617.4 -5.3 L 617.4 -5.3 L 617.4 -5.3 Q 617.4 -2.9 616.2 -1.4 L 616.2 -1.4 L 616.2 -1.4 Q 615 0.1 613 1.2 L 613 1.2 L 613 1.2 Q 608.9 3.3 604.5 3.3 L 604.5 3.3 L 604.5 3.3 Q 600.1 3.3 597.5 2.3 L 597.5 2.3 L 597.5 2.3 Q 594.9 1.3 593.2 -0.4 L 593.2 -0.4 L 593.2 -0.4 Q 589.8 -3.8 589.8 -10 L 589.8 -10 L 589.8 -10 Q 589.8 -19.7 595 -25.6 L 595 -25.6 L 595 -25.6 Q 600.7 -31.9 610.4 -31.9 L 610.4 -31.9 L 610.4 -31.9 Q 616.5 -31.9 619.5 -29.4 L 619.5 -29.4 L 619.5 -29.4 Q 621.8 -27.5 621.8 -24.3 L 621.8 -24.3 L 621.8 -24.3 Q 621.8 -13.1 602.3 -13.1 L 602.3 -13.1 L 602.3 -13.1 Q 602.1 -11.4 602.1 -10 L 602.1 -10 L 602.1 -10 Q 602.1 -7 603.4 -5.9 L 603.4 -5.9 L 603.4 -5.9 Q 604.7 -4.8 607.1 -4.8 L 607.1 -4.8 L 607.1 -4.8 Q 609.6 -4.8 612.1 -5.9 L 612.1 -5.9 L 612.1 -5.9 Q 614.7 -7 615.8 -8.8 Z M 602.8 -15.8 L 602.8 -15.8 L 602.8 -15.8 Q 607.3 -15.8 609.9 -18.6 L 609.9 -18.6 L 609.9 -18.6 Q 612.6 -21.3 612.6 -25.6 L 612.6 -25.6 L 612.6 -25.6 Q 612.6 -27.1 612 -27.9 L 612 -27.9 L 612 -27.9 Q 611.5 -28.7 610.4 -28.7 L 610.4 -28.7 L 610.4 -28.7 Q 609.3 -28.7 608.4 -28.3 L 608.4 -28.3 L 608.4 -28.3 Q 607.4 -27.8 606.5 -26.4 L 606.5 -26.4 L 606.5 -26.4 Q 604.1 -23.2 602.8 -15.8 Z M 643.1 -20.5 L 643.1 -20.5 L 643.1 -20.5 Q 644 -22.8 644 -24.9 L 644 -24.9 L 644 -24.9 Q 644 -28.7 640.9 -28.7 L 640.9 -28.7 L 640.9 -28.7 Q 639.3 -28.7 638 -27.2 L 638 -27.2 L 638 -27.2 Q 636.7 -25.8 636.7 -24 L 636.7 -24 L 636.7 -24 Q 636.7 -22.7 637.7 -21.7 L 637.7 -21.7 L 637.7 -21.7 Q 639.2 -20.3 643 -18 L 643 -18 L 643 -18 Q 646.7 -15.7 648.2 -13.8 L 648.2 -13.8 L 648.2 -13.8 Q 649.6 -11.9 649.6 -9.3 L 649.6 -9.3 L 649.6 -9.3 Q 649.6 -6.7 648.4 -4.4 L 648.4 -4.4 L 648.4 -4.4 Q 647.1 -2 644.9 -0.3 L 644.9 -0.3 L 644.9 -0.3 Q 640.1 3.3 632.4 3.3 L 632.4 3.3 L 632.4 3.3 Q 628.2 3.3 625 1.1 L 625 1.1 L 625 1.1 Q 621.8 -1 621.8 -3.5 L 621.8 -3.5 L 621.8 -3.5 Q 621.8 -6 623.7 -7.5 L 623.7 -7.5 L 623.7 -7.5 Q 625.5 -9 628.2 -9 L 628.2 -9 L 628.2 -9 Q 630.9 -9 632.5 -7.9 L 632.5 -7.9 L 632.5 -7.9 Q 631.7 -5.8 631.7 -4.4 L 631.7 -4.4 L 631.7 -4.4 Q 631.7 -0.2 635.3 -0.2 L 635.3 -0.2 L 635.3 -0.2 Q 636.8 -0.2 637.8 -1.2 L 637.8 -1.2 L 637.8 -1.2 Q 638.9 -2.1 638.9 -3.8 L 638.9 -3.8 L 638.9 -3.8 Q 638.9 -7 633.4 -10.5 L 633.4 -10.5 L 633.4 -10.5 Q 628.9 -13.4 627.9 -14.6 L 627.9 -14.6 L 627.9 -14.6 Q 626.1 -16.6 626.1 -19.2 L 626.1 -19.2 L 626.1 -19.2 Q 626.1 -21.8 627.3 -24.2 L 627.3 -24.2 L 627.3 -24.2 Q 628.6 -26.6 630.8 -28.4 L 630.8 -28.4 L 630.8 -28.4 Q 635.5 -31.9 643.6 -31.9 L 643.6 -31.9 L 643.6 -31.9 Q 647.8 -31.9 650.2 -30.3 L 650.2 -30.3 L 650.2 -30.3 Q 652.7 -28.6 652.7 -25.8 L 652.7 -25.8 L 652.7 -25.8 Q 652.7 -23 651 -21.4 L 651 -21.4 L 651 -21.4 Q 649.3 -19.8 646.2 -19.8 L 646.2 -19.8 L 646.2 -19.8 Q 644.1 -19.8 643.1 -20.5 Z M 694.2 -18.6 L 707.1 -19.8 L 707.1 -19.8 Q 702.5 -9.7 702.5 2 L 702.5 2 L 702.5 2 Q 700.8 3.3 698.2 3.3 L 698.2 3.3 L 698.2 3.3 Q 695.7 3.3 694.1 2.1 L 694.1 2.1 L 694.1 2.1 Q 692.5 0.9 692.2 -0.3 L 692.2 -0.3 L 692.2 -0.3 Q 690.6 1.3 688 2.3 L 688 2.3 L 688 2.3 Q 685.4 3.3 682.6 3.3 L 682.6 3.3 L 682.6 3.3 Q 679.9 3.3 677.5 2.4 L 677.5 2.4 L 677.5 2.4 Q 675.1 1.5 673.2 -0.5 L 673.2 -0.5 L 673.2 -0.5 Q 669.1 -4.9 669.1 -13.1 L 669.1 -13.1 L 669.1 -13.1 Q 669.1 -25.9 676 -33.6 L 676 -33.6 L 676 -33.6 Q 683 -41.5 695.5 -41.5 L 695.5 -41.5 L 695.5 -41.5 Q 704.1 -41.5 707.2 -37.1 L 707.2 -37.1 L 707.2 -37.1 Q 708.2 -35.6 708.2 -34 L 708.2 -34 L 708.2 -34 Q 708.2 -32.3 707.4 -30.8 L 707.4 -30.8 L 707.4 -30.8 Q 706.7 -29.4 705.6 -28.2 L 705.6 -28.2 L 705.6 -28.2 Q 702.8 -25.7 699.4 -25.7 L 699.4 -25.7 L 699.4 -25.7 Q 698.1 -25.7 696.8 -26.1 L 696.8 -26.1 L 696.8 -26.1 Q 697 -28 697 -30.3 L 697 -30.3 L 697 -30.3 Q 697 -32.5 696.9 -33.5 L 696.9 -33.5 L 696.9 -33.5 Q 696.7 -34.6 696.3 -35.4 L 696.3 -35.4 L 696.3 -35.4 Q 695.5 -37.1 693.7 -37.1 L 693.7 -37.1 L 693.7 -37.1 Q 691.9 -37.1 689.8 -35.2 L 689.8 -35.2 L 689.8 -35.2 Q 687.8 -33.2 686.2 -30 L 686.2 -30 L 686.2 -30 Q 682.7 -22.8 682.7 -14.2 L 682.7 -14.2 L 682.7 -14.2 Q 682.7 -10.2 684.2 -7.4 L 684.2 -7.4 L 684.2 -7.4 Q 685.9 -4.4 688.8 -4.4 L 688.8 -4.4 L 688.8 -4.4 Q 689.9 -4.4 690.8 -4.9 L 690.8 -4.9 L 690.8 -4.9 Q 691.7 -5.4 692.1 -5.8 L 692.1 -5.8 L 694.2 -18.6 Z M 713 0.1 L 713 0.1 L 713 0.1 Q 711.5 -1.6 710.8 -4.2 L 710.8 -4.2 L 710.8 -4.2 Q 710.2 -6.8 710.2 -11.1 L 710.2 -11.1 L 710.2 -11.1 Q 710.2 -15.4 711.6 -19.3 L 711.6 -19.3 L 711.6 -19.3 Q 713.1 -23.2 715.8 -26 L 715.8 -26 L 715.8 -26 Q 721.3 -31.9 730.4 -31.9 L 730.4 -31.9 L 730.4 -31.9 Q 733.6 -31.9 736 -30.8 L 736 -30.8 L 747 -31.9 L 742.2 -7 L 742.2 -7 Q 742 -6.2 742 -4.8 L 742 -4.8 L 742 -4.8 Q 742 -3.4 742.9 -2.5 L 742.9 -2.5 L 742.9 -2.5 Q 743.8 -1.6 745 -1.5 L 745 -1.5 L 745 -1.5 Q 744.4 0.7 742.1 2 L 742.1 2 L 742.1 2 Q 739.7 3.3 737.1 3.3 L 737.1 3.3 L 737.1 3.3 Q 734.5 3.3 732.7 2.3 L 732.7 2.3 L 732.7 2.3 Q 731 1.3 730.4 -0.4 L 730.4 -0.4 L 730.4 -0.4 Q 729.4 1.2 727.2 2.2 L 727.2 2.2 L 727.2 2.2 Q 725.1 3.3 722.2 3.3 L 722.2 3.3 L 722.2 3.3 Q 719.2 3.3 716.9 2.5 L 716.9 2.5 L 716.9 2.5 Q 714.5 1.7 713 0.1 Z M 726.5 -25.9 L 726.5 -25.9 L 726.5 -25.9 Q 725.8 -24.8 725.1 -22.8 L 725.1 -22.8 L 725.1 -22.8 Q 724.5 -20.9 723.4 -15.6 L 723.4 -15.6 L 723.4 -15.6 Q 722.4 -10.4 722.4 -6.7 L 722.4 -6.7 L 722.4 -6.7 Q 722.4 -3 723 -1.9 L 723 -1.9 L 723 -1.9 Q 723.5 -0.8 724.6 -0.8 L 724.6 -0.8 L 724.6 -0.8 Q 726.6 -0.8 728.1 -2.8 L 728.1 -2.8 L 728.1 -2.8 Q 729.6 -4.7 730.2 -8.2 L 730.2 -8.2 L 733.6 -26.9 L 733.6 -26.9 Q 732.2 -28.1 730.7 -28.1 L 730.7 -28.1 L 730.7 -28.1 Q 729.1 -28.1 728.2 -27.6 L 728.2 -27.6 L 728.2 -27.6 Q 727.2 -27.1 726.5 -25.9 Z M 765.7 -1.5 L 765.7 -1.5 L 765.7 -1.5 Q 763.7 3.3 757.4 3.3 L 757.4 3.3 L 757.4 3.3 Q 754.2 3.3 752.1 1 L 752.1 1 L 752.1 1 Q 750.5 -0.8 750.5 -2.9 L 750.5 -2.9 L 750.5 -2.9 Q 750.5 -7.7 752.7 -18.2 L 752.7 -18.2 L 757.4 -42.8 L 770.4 -44.1 L 764.2 -11.7 L 764.2 -11.7 Q 763.1 -7 763.1 -5.3 L 763.1 -5.3 L 763.1 -5.3 Q 763.1 -1.7 765.7 -1.5 Z M 786.4 -1.5 L 786.4 -1.5 L 786.4 -1.5 Q 784.5 3.3 778.1 3.3 L 778.1 3.3 L 778.1 3.3 Q 774.9 3.3 772.9 1 L 772.9 1 L 772.9 1 Q 771.2 -0.8 771.2 -2.9 L 771.2 -2.9 L 771.2 -2.9 Q 771.2 -7.7 773.5 -18.2 L 773.5 -18.2 L 778.1 -42.8 L 791.1 -44.1 L 784.9 -11.7 L 784.9 -11.7 Q 783.8 -7 783.8 -5.3 L 783.8 -5.3 L 783.8 -5.3 Q 783.8 -1.7 786.4 -1.5 Z M 817.8 -8.8 L 817.8 -8.8 L 817.8 -8.8 Q 819.4 -7.7 819.4 -5.3 L 819.4 -5.3 L 819.4 -5.3 Q 819.4 -2.9 818.2 -1.4 L 818.2 -1.4 L 818.2 -1.4 Q 817 0.1 815 1.2 L 815 1.2 L 815 1.2 Q 810.9 3.3 806.5 3.3 L 806.5 3.3 L 806.5 3.3 Q 802.1 3.3 799.5 2.3 L 799.5 2.3 L 799.5 2.3 Q 796.9 1.3 795.2 -0.4 L 795.2 -0.4 L 795.2 -0.4 Q 791.8 -3.8 791.8 -10 L 791.8 -10 L 791.8 -10 Q 791.8 -19.7 797 -25.6 L 797 -25.6 L 797 -25.6 Q 802.6 -31.9 812.4 -31.9 L 812.4 -31.9 L 812.4 -31.9 Q 818.5 -31.9 821.5 -29.4 L 821.5 -29.4 L 821.5 -29.4 Q 823.8 -27.5 823.8 -24.3 L 823.8 -24.3 L 823.8 -24.3 Q 823.8 -13.1 804.3 -13.1 L 804.3 -13.1 L 804.3 -13.1 Q 804 -11.4 804 -10 L 804 -10 L 804 -10 Q 804 -7 805.4 -5.9 L 805.4 -5.9 L 805.4 -5.9 Q 806.7 -4.8 809.1 -4.8 L 809.1 -4.8 L 809.1 -4.8 Q 811.5 -4.8 814.1 -5.9 L 814.1 -5.9 L 814.1 -5.9 Q 816.7 -7 817.8 -8.8 Z M 804.8 -15.8 L 804.8 -15.8 L 804.8 -15.8 Q 809.3 -15.8 811.9 -18.6 L 811.9 -18.6 L 811.9 -18.6 Q 814.5 -21.3 814.5 -25.6 L 814.5 -25.6 L 814.5 -25.6 Q 814.5 -27.1 814 -27.9 L 814 -27.9 L 814 -27.9 Q 813.5 -28.7 812.4 -28.7 L 812.4 -28.7 L 812.4 -28.7 Q 811.3 -28.7 810.4 -28.3 L 810.4 -28.3 L 810.4 -28.3 Q 809.4 -27.8 808.5 -26.4 L 808.5 -26.4 L 808.5 -26.4 Q 806.1 -23.2 804.8 -15.8 Z M 846 -16 L 846 -16 L 846 -16 Q 848.3 -20.1 848.3 -24.3 L 848.3 -24.3 L 848.3 -24.3 Q 848.3 -27 846.3 -27 L 846.3 -27 L 846.3 -27 Q 844.8 -27 843.2 -24.4 L 843.2 -24.4 L 843.2 -24.4 Q 841.5 -21.8 841 -18.4 L 841 -18.4 L 837.6 2 L 824.4 3.3 L 830.9 -30.7 L 841.5 -31.9 L 840.3 -25.5 L 840.3 -25.5 Q 843.5 -31.9 850.5 -31.9 L 850.5 -31.9 L 850.5 -31.9 Q 854.2 -31.9 856.2 -30 L 856.2 -30 L 856.2 -30 Q 858.3 -28.1 858.3 -24.2 L 858.3 -24.2 L 858.3 -24.2 Q 858.3 -20.2 855.7 -17.7 L 855.7 -17.7 L 855.7 -17.7 Q 853.1 -15.2 848.7 -15.2 L 848.7 -15.2 L 848.7 -15.2 Q 846.7 -15.2 846 -16 Z M 879.6 -5.2 L 879.6 -5.2 L 879.6 -5.2 Q 876.3 -1.8 870.2 -1.8 L 870.2 -1.8 L 870.2 -1.8 Q 862.6 -1.8 861 -7.4 L 861 -7.4 L 861 -7.4 Q 860.5 -9 860.5 -10.9 L 860.5 -10.9 L 860.5 -10.9 Q 860.5 -12.7 860.9 -14.7 L 860.9 -14.7 L 863.9 -30.7 L 876.9 -31.9 L 873.4 -13.3 L 873.4 -13.3 Q 873.2 -12.5 873 -11.6 L 873 -11.6 L 873 -11.6 Q 872.8 -10.7 872.8 -9.8 L 872.8 -9.8 L 872.8 -9.8 Q 872.8 -8.8 873.2 -8.2 L 873.2 -8.2 L 873.2 -8.2 Q 873.5 -7.6 873.9 -7.2 L 873.9 -7.2 L 873.9 -7.2 Q 874.7 -6.7 876.1 -6.7 L 876.1 -6.7 L 876.1 -6.7 Q 877.5 -6.7 878.6 -8.4 L 878.6 -8.4 L 878.6 -8.4 Q 879.8 -10 880.4 -12.9 L 880.4 -12.9 L 883.9 -30.7 L 896.5 -31.9 L 891.7 -6.8 L 891.7 -6.8 Q 889.4 5.5 884.5 10.4 L 884.5 10.4 L 884.5 10.4 Q 882 12.9 878.8 13.9 L 878.8 13.9 L 878.8 13.9 Q 875.5 14.8 871.4 14.8 L 871.4 14.8 L 871.4 14.8 Q 864.7 14.8 860.8 12.7 L 860.8 12.7 L 860.8 12.7 Q 857 10.6 857 7.1 L 857 7.1 L 857 7.1 Q 857 4.5 859 3 L 859 3 L 859 3 Q 860.9 1.5 864 1.5 L 864 1.5 L 864 1.5 Q 866.7 1.5 868.8 2.6 L 868.8 2.6 L 868.8 2.6 Q 870 3.3 870.5 4.2 L 870.5 4.2 L 870.5 4.2 Q 869.1 5.5 869.1 7.6 L 869.1 7.6 L 869.1 7.6 Q 869.1 10.4 871.6 10.4 L 871.6 10.4 L 871.6 10.4 Q 875.9 10.4 878.3 0.7 L 878.3 0.7 L 878.3 0.7 Q 879 -2.2 879.6 -5.2 Z" fill="url(#editing-shiny-gradient2)"></path></g></g><style>text {
  font-size: 64px;
  font-family: Arial Black;
  dominant-baseline: central;
  text-anchor: middle;
}</style></svg>